<svg width="790" height="304" viewBox="0 0 790 304" fill="none" xmlns="http://www.w3.org/2000/svg">
<g clip-path="url(#clip0)">
<path d="M277.327 67.1745H24.9724V225.316H277.327V67.1745ZM274.709 222.687H27.5909V69.8028H274.709V222.687Z" fill="black"/>
<path d="M302.755 234.594C302.488 233.834 301.813 233.495 301.166 233.432L285.638 233.382C286.599 231.411 287.105 229.264 287.105 227.061V72.8256C287.105 64.7671 280.574 58.2095 272.546 58.2095H30.1439C22.1183 58.2095 15.5878 64.7645 15.5878 72.8256V227.061C15.5878 229.327 16.1194 231.542 17.1458 233.569H0.913899L0.531602 233.955C0.246189 234.249 -1.0421 235.863 1.8644 238.77C8.20372 245.136 21.8067 245.733 22.3827 245.754L23.7443 245.793V245.738C40.8063 245.743 219.745 245.793 266.304 245.793C277.317 245.793 277.343 245.788 277.325 245.788C290.53 245.788 295.688 242.195 299.451 239.572C299.836 239.301 300.205 239.051 300.572 238.807L300.773 238.641C302.53 236.867 303.127 235.656 302.755 234.594ZM18.2063 72.8256C18.2063 66.218 23.561 60.8378 30.1439 60.8378H272.546C279.129 60.8378 284.486 66.218 284.486 72.8256V227.061C284.486 229.292 283.826 231.445 282.63 233.359L282.022 233.401L20.0628 233.324C18.8714 231.414 18.2063 229.274 18.2063 227.056V72.8256ZM168.161 236.733V238.402H134.699V236.733H168.161ZM299 236.691C298.66 236.917 298.312 237.164 297.953 237.411C294.471 239.835 289.702 243.16 277.293 243.16C275.709 243.181 22.4272 243.11 22.4272 243.11L22.2151 243.115C20.3377 243.002 8.88714 242.108 3.71042 236.912C3.43025 236.633 3.22077 236.392 3.0689 236.192L134.047 236.131V239.062H168.813V236.116L299.592 236.058C299.435 236.231 299.244 236.442 299 236.691Z" fill="black"/>
</g>
<path d="M155.115 128.059H131.614C131.257 128.059 130.912 127.931 130.638 127.699C130.365 127.467 130.18 127.145 130.116 126.789L125.035 98.3965C124.971 98.0401 124.786 97.7178 124.513 97.4858C124.239 97.2537 123.894 97.1266 123.537 97.1266H120.102" stroke="black" stroke-width="2" stroke-linecap="round" stroke-linejoin="round"/>
<path d="M132.281 135.792C134.383 135.792 136.087 134.061 136.087 131.925C136.087 129.79 134.383 128.059 132.281 128.059C130.179 128.059 128.475 129.79 128.475 131.925C128.475 134.061 130.179 135.792 132.281 135.792Z" stroke="black" stroke-width="2" stroke-linecap="round" stroke-linejoin="round"/>
<path d="M155.116 135.792C157.217 135.792 158.921 134.061 158.921 131.925C158.921 129.79 157.217 128.059 155.116 128.059C153.014 128.059 151.31 129.79 151.31 131.925C151.31 134.061 153.014 135.792 155.116 135.792Z" stroke="black" stroke-width="2" stroke-linecap="round" stroke-linejoin="round"/>
<path d="M126.192 104.86H159.381C159.604 104.86 159.824 104.909 160.026 105.005C160.228 105.101 160.407 105.241 160.55 105.415C160.692 105.589 160.796 105.793 160.853 106.012C160.91 106.231 160.918 106.46 160.879 106.683L158.387 120.602C158.324 120.959 158.139 121.281 157.865 121.513C157.591 121.745 157.246 121.872 156.89 121.872H129.236" stroke="black" stroke-width="2" stroke-linecap="round" stroke-linejoin="round"/>
<path d="M155.773 111.923L162.963 132.457C163.034 132.66 163.161 132.834 163.328 132.957C163.494 133.08 163.691 133.145 163.893 133.144C164.095 133.143 164.292 133.076 164.457 132.951C164.623 132.826 164.748 132.651 164.817 132.447L167.698 123.964C167.747 123.819 167.826 123.687 167.928 123.578C168.03 123.468 168.153 123.384 168.289 123.331L176.211 120.246C176.401 120.173 176.565 120.038 176.681 119.861C176.797 119.684 176.86 119.474 176.861 119.257C176.862 119.041 176.801 118.83 176.687 118.651C176.572 118.473 176.409 118.337 176.22 118.261L157.045 110.561C156.867 110.49 156.674 110.474 156.489 110.517C156.303 110.56 156.133 110.66 155.999 110.803C155.865 110.947 155.772 111.129 155.732 111.328C155.692 111.526 155.706 111.733 155.773 111.923Z" fill="white" stroke="black" stroke-width="2" stroke-linecap="round" stroke-linejoin="round"/>
<path d="M167.928 123.578L176.749 133.024" stroke="black" stroke-width="2" stroke-linecap="round" stroke-linejoin="round"/>
<path d="M72.1096 166.651C72.1096 163.889 74.3482 161.651 77.1096 161.651H225.196C227.957 161.651 230.196 163.889 230.196 166.651V192.841C230.196 195.603 227.957 197.841 225.196 197.841H77.1096C74.3482 197.841 72.1096 195.603 72.1096 192.841V166.651Z" fill="#E37B00"/>
<rect x="75.24" y="164.798" width="158.086" height="36.1905" rx="5" fill="#B66A11"/>
<rect x="72.1096" y="161.651" width="158.086" height="36.1905" rx="5" fill="#E37B00"/>
<path d="M110.664 178.711H111.641C112.598 178.711 113.304 178.552 113.76 178.233C114.216 177.914 114.444 177.413 114.444 176.729C114.444 176.052 114.209 175.57 113.74 175.284C113.278 174.997 112.559 174.854 111.582 174.854H110.664V178.711ZM110.664 181.172V186.651H107.637V172.373H111.797C113.737 172.373 115.173 172.728 116.104 173.438C117.035 174.141 117.5 175.212 117.5 176.651C117.5 177.491 117.269 178.239 116.807 178.897C116.345 179.548 115.69 180.059 114.844 180.43C116.992 183.64 118.392 185.713 119.043 186.651H115.684L112.276 181.172H110.664ZM129.063 186.651H120.84V172.373H129.063V174.854H123.867V177.989H128.701V180.469H123.867V184.151H129.063V186.651ZM137.471 178.633H143.135V186.036C142.217 186.335 141.351 186.543 140.537 186.661C139.73 186.784 138.903 186.846 138.057 186.846C135.902 186.846 134.255 186.215 133.115 184.952C131.983 183.682 131.416 181.862 131.416 179.493C131.416 177.188 132.074 175.391 133.389 174.102C134.711 172.813 136.54 172.168 138.877 172.168C140.342 172.168 141.755 172.461 143.115 173.047L142.11 175.469C141.068 174.948 139.984 174.688 138.858 174.688C137.549 174.688 136.501 175.127 135.713 176.006C134.925 176.885 134.531 178.067 134.531 179.551C134.531 181.101 134.847 182.286 135.479 183.106C136.117 183.92 137.041 184.327 138.252 184.327C138.884 184.327 139.525 184.261 140.176 184.131V181.153H137.471V178.633ZM146.543 186.651V172.373H149.571V186.651H146.543ZM161.592 182.686C161.592 183.975 161.127 184.991 160.196 185.733C159.271 186.475 157.982 186.846 156.328 186.846C154.805 186.846 153.457 186.56 152.285 185.987V183.174C153.249 183.604 154.063 183.907 154.727 184.082C155.397 184.258 156.009 184.346 156.563 184.346C157.227 184.346 157.735 184.219 158.086 183.965C158.444 183.711 158.623 183.334 158.623 182.832C158.623 182.552 158.545 182.305 158.389 182.09C158.233 181.869 158.002 181.657 157.696 181.455C157.396 181.254 156.781 180.931 155.85 180.489C154.977 180.079 154.323 179.685 153.887 179.307C153.451 178.929 153.102 178.49 152.842 177.989C152.582 177.487 152.451 176.901 152.451 176.231C152.451 174.968 152.878 173.975 153.731 173.252C154.59 172.53 155.775 172.168 157.285 172.168C158.028 172.168 158.734 172.256 159.405 172.432C160.082 172.608 160.788 172.855 161.524 173.174L160.547 175.528C159.785 175.215 159.154 174.997 158.653 174.873C158.158 174.75 157.67 174.688 157.188 174.688C156.615 174.688 156.175 174.821 155.869 175.088C155.563 175.355 155.41 175.704 155.41 176.133C155.41 176.4 155.472 176.635 155.596 176.836C155.72 177.032 155.915 177.224 156.182 177.413C156.455 177.595 157.097 177.927 158.106 178.409C159.44 179.047 160.355 179.688 160.85 180.332C161.345 180.97 161.592 181.755 161.592 182.686ZM169.688 186.651H166.66V174.893H162.783V172.373H173.565V174.893H169.688V186.651ZM183.985 186.651H175.762V172.373H183.985V174.854H178.789V177.989H183.623V180.469H178.789V184.151H183.985V186.651ZM190 178.711H190.977C191.934 178.711 192.64 178.552 193.096 178.233C193.552 177.914 193.78 177.413 193.78 176.729C193.78 176.052 193.545 175.57 193.076 175.284C192.614 174.997 191.895 174.854 190.918 174.854H190V178.711ZM190 181.172V186.651H186.973V172.373H191.133C193.073 172.373 194.509 172.728 195.44 173.438C196.371 174.141 196.836 175.212 196.836 176.651C196.836 177.491 196.605 178.239 196.143 178.897C195.681 179.548 195.026 180.059 194.18 180.43C196.328 183.64 197.728 185.713 198.379 186.651H195.02L191.612 181.172H190Z" fill="white"/>
<g clip-path="url(#clip1)">
<path d="M764.327 67.1745H511.972V225.316H764.327V67.1745ZM761.709 222.687H514.591V69.8028H761.709V222.687Z" fill="black"/>
<path d="M789.755 234.594C789.488 233.834 788.813 233.495 788.166 233.432L772.638 233.382C773.599 231.411 774.105 229.264 774.105 227.061V72.8256C774.105 64.7671 767.574 58.2095 759.546 58.2095H517.144C509.118 58.2095 502.588 64.7645 502.588 72.8256V227.061C502.588 229.327 503.119 231.542 504.146 233.569H487.914L487.532 233.955C487.246 234.249 485.958 235.863 488.864 238.77C495.204 245.136 508.807 245.733 509.383 245.754L510.744 245.793V245.738C527.806 245.743 706.745 245.793 753.304 245.793C764.317 245.793 764.343 245.788 764.325 245.788C777.53 245.788 782.688 242.195 786.451 239.572C786.836 239.301 787.205 239.051 787.572 238.807L787.773 238.641C789.53 236.867 790.127 235.656 789.755 234.594ZM505.206 72.8256C505.206 66.218 510.561 60.8378 517.144 60.8378H759.546C766.129 60.8378 771.486 66.218 771.486 72.8256V227.061C771.486 229.292 770.826 231.445 769.63 233.359L769.022 233.401L507.063 233.324C505.871 231.414 505.206 229.274 505.206 227.056V72.8256ZM655.161 236.733V238.402H621.699V236.733H655.161ZM786.001 236.691C785.66 236.917 785.312 237.164 784.953 237.411C781.471 239.835 776.702 243.16 764.293 243.16C762.709 243.181 509.427 243.11 509.427 243.11L509.215 243.115C507.338 243.002 495.887 242.108 490.71 236.912C490.43 236.633 490.221 236.392 490.069 236.192L621.047 236.131V239.062H655.813V236.116L786.592 236.058C786.435 236.231 786.244 236.442 786.001 236.691Z" fill="black"/>
</g>
<path d="M642.115 128.059H618.614C618.257 128.059 617.912 127.931 617.638 127.699C617.365 127.467 617.18 127.145 617.116 126.789L612.035 98.3965C611.971 98.0401 611.786 97.7178 611.513 97.4858C611.239 97.2537 610.894 97.1266 610.537 97.1266H607.102" stroke="black" stroke-width="2" stroke-linecap="round" stroke-linejoin="round"/>
<path d="M619.281 135.792C621.383 135.792 623.087 134.061 623.087 131.925C623.087 129.79 621.383 128.059 619.281 128.059C617.179 128.059 615.475 129.79 615.475 131.925C615.475 134.061 617.179 135.792 619.281 135.792Z" stroke="black" stroke-width="2" stroke-linecap="round" stroke-linejoin="round"/>
<path d="M642.116 135.792C644.217 135.792 645.921 134.061 645.921 131.925C645.921 129.79 644.217 128.059 642.116 128.059C640.014 128.059 638.31 129.79 638.31 131.925C638.31 134.061 640.014 135.792 642.116 135.792Z" stroke="black" stroke-width="2" stroke-linecap="round" stroke-linejoin="round"/>
<path d="M613.192 104.86H646.381C646.604 104.86 646.824 104.909 647.026 105.005C647.228 105.101 647.407 105.241 647.55 105.415C647.692 105.589 647.796 105.793 647.853 106.012C647.91 106.231 647.918 106.46 647.879 106.683L645.387 120.602C645.324 120.959 645.139 121.281 644.865 121.513C644.591 121.745 644.246 121.872 643.89 121.872H616.236" stroke="black" stroke-width="2" stroke-linecap="round" stroke-linejoin="round"/>
<path d="M642.773 111.923L649.963 132.457C650.034 132.66 650.161 132.834 650.328 132.957C650.494 133.08 650.691 133.145 650.893 133.144C651.095 133.143 651.292 133.076 651.457 132.951C651.623 132.826 651.748 132.651 651.817 132.447L654.698 123.964C654.747 123.819 654.826 123.687 654.928 123.578C655.03 123.468 655.153 123.384 655.289 123.331L663.211 120.246C663.401 120.173 663.565 120.038 663.681 119.861C663.797 119.684 663.86 119.474 663.861 119.257C663.862 119.041 663.801 118.83 663.687 118.651C663.572 118.473 663.409 118.337 663.22 118.261L644.045 110.561C643.867 110.49 643.674 110.474 643.489 110.517C643.303 110.56 643.133 110.66 642.999 110.803C642.865 110.947 642.772 111.129 642.732 111.328C642.692 111.526 642.706 111.733 642.773 111.923Z" fill="white" stroke="black" stroke-width="2" stroke-linecap="round" stroke-linejoin="round"/>
<path d="M654.928 123.578L663.749 133.024" stroke="black" stroke-width="2" stroke-linecap="round" stroke-linejoin="round"/>
<path d="M559.11 166.651C559.11 163.889 561.348 161.651 564.11 161.651H712.196C714.957 161.651 717.196 163.889 717.196 166.651V192.841C717.196 195.603 714.957 197.841 712.196 197.841H564.11C561.348 197.841 559.11 195.603 559.11 192.841V166.651Z" fill="#E37B00"/>
<rect x="562.24" y="164.798" width="158.086" height="36.1905" rx="5" fill="#B66A11"/>
<rect x="559.11" y="161.651" width="158.086" height="36.1905" rx="5" fill="#E37B00"/>
<path d="M594.1 174.688C592.961 174.688 592.078 175.118 591.453 175.977C590.828 176.83 590.516 178.021 590.516 179.551C590.516 182.735 591.711 184.327 594.1 184.327C595.102 184.327 596.317 184.076 597.742 183.575V186.114C596.571 186.602 595.262 186.846 593.817 186.846C591.74 186.846 590.151 186.218 589.051 184.961C587.951 183.698 587.401 181.888 587.401 179.532C587.401 178.047 587.671 176.748 588.211 175.635C588.752 174.515 589.526 173.659 590.535 173.067C591.551 172.468 592.739 172.168 594.1 172.168C595.487 172.168 596.88 172.504 598.28 173.174L597.303 175.635C596.769 175.381 596.232 175.16 595.692 174.971C595.151 174.782 594.621 174.688 594.1 174.688ZM613.748 179.493C613.748 181.856 613.162 183.672 611.99 184.942C610.819 186.211 609.139 186.846 606.951 186.846C604.764 186.846 603.084 186.211 601.912 184.942C600.74 183.672 600.155 181.849 600.155 179.473C600.155 177.097 600.74 175.284 601.912 174.034C603.091 172.777 604.777 172.149 606.971 172.149C609.165 172.149 610.841 172.78 612 174.043C613.166 175.306 613.748 177.123 613.748 179.493ZM603.328 179.493C603.328 181.088 603.631 182.289 604.237 183.096C604.842 183.903 605.747 184.307 606.951 184.307C609.367 184.307 610.574 182.702 610.574 179.493C610.574 176.276 609.373 174.668 606.971 174.668C605.767 174.668 604.858 175.075 604.246 175.889C603.634 176.696 603.328 177.898 603.328 179.493ZM629.373 186.651H625.526L619.315 175.85H619.227C619.351 177.758 619.412 179.118 619.412 179.932V186.651H616.707V172.373H620.526L626.727 183.067H626.795C626.698 181.211 626.649 179.899 626.649 179.131V172.373H629.373V186.651ZM638.485 186.651H635.457V174.893H631.58V172.373H642.362V174.893H638.485V186.651ZM644.559 186.651V172.373H647.586V186.651H644.559ZM663.846 186.651H659.998L653.787 175.85H653.699C653.823 177.758 653.885 179.118 653.885 179.932V186.651H651.18V172.373H654.998L661.199 183.067H661.268C661.17 181.211 661.121 179.899 661.121 179.131V172.373H663.846V186.651ZM679.071 172.373V181.612C679.071 182.666 678.833 183.591 678.358 184.385C677.889 185.179 677.209 185.788 676.317 186.211C675.425 186.635 674.37 186.846 673.153 186.846C671.317 186.846 669.891 186.377 668.875 185.44C667.86 184.496 667.352 183.207 667.352 181.573V172.373H670.369V181.114C670.369 182.214 670.591 183.021 671.033 183.536C671.476 184.05 672.209 184.307 673.231 184.307C674.22 184.307 674.936 184.05 675.379 183.536C675.828 183.015 676.053 182.201 676.053 181.094V172.373H679.071ZM690.789 186.651H682.567V172.373H690.789V174.854H685.594V177.989H690.428V180.469H685.594V184.151H690.789V186.651Z" fill="white"/>
<path d="M338.988 128.295V138.457C338.988 139.617 338.727 140.634 338.204 141.508C337.688 142.382 336.94 143.051 335.959 143.517C334.978 143.982 333.818 144.215 332.479 144.215C330.459 144.215 328.891 143.699 327.773 142.668C326.656 141.63 326.098 140.212 326.098 138.414V128.295H329.417V137.909C329.417 139.119 329.66 140.007 330.147 140.573C330.634 141.139 331.44 141.422 332.564 141.422C333.653 141.422 334.441 141.139 334.928 140.573C335.422 140 335.669 139.105 335.669 137.888V128.295H338.988ZM355.531 144H351.729L348.076 138.06L344.424 144H340.857L346.067 135.9L341.19 128.295H344.864L348.248 133.945L351.567 128.295H355.155L350.225 136.083L355.531 144ZM366.553 135.267H367.627C368.68 135.267 369.457 135.091 369.958 134.74C370.459 134.389 370.71 133.838 370.71 133.086C370.71 132.341 370.452 131.811 369.937 131.496C369.428 131.181 368.637 131.023 367.562 131.023H366.553V135.267ZM366.553 137.974V144H363.223V128.295H367.799C369.933 128.295 371.512 128.685 372.536 129.466C373.56 130.239 374.072 131.417 374.072 133C374.072 133.924 373.818 134.747 373.31 135.471C372.801 136.187 372.081 136.749 371.15 137.157C373.514 140.688 375.053 142.969 375.77 144H372.074L368.325 137.974H366.553ZM382.462 134.096C381.767 134.096 381.223 134.318 380.829 134.762C380.435 135.199 380.21 135.822 380.152 136.631H384.75C384.736 135.822 384.524 135.199 384.116 134.762C383.708 134.318 383.157 134.096 382.462 134.096ZM382.924 144.215C380.99 144.215 379.479 143.681 378.391 142.614C377.302 141.547 376.758 140.036 376.758 138.081C376.758 136.069 377.259 134.515 378.262 133.419C379.271 132.316 380.664 131.765 382.44 131.765C384.138 131.765 385.459 132.248 386.404 133.215C387.35 134.182 387.822 135.517 387.822 137.222V138.812H380.077C380.113 139.743 380.389 140.469 380.904 140.992C381.42 141.515 382.143 141.776 383.074 141.776C383.798 141.776 384.481 141.701 385.126 141.551C385.771 141.4 386.444 141.16 387.146 140.831V143.366C386.573 143.653 385.96 143.864 385.309 144C384.657 144.143 383.862 144.215 382.924 144.215ZM398.865 140.434C398.865 141.665 398.436 142.604 397.576 143.248C396.724 143.893 395.446 144.215 393.741 144.215C392.868 144.215 392.123 144.154 391.507 144.032C390.891 143.918 390.314 143.746 389.777 143.517V140.81C390.386 141.096 391.07 141.336 391.829 141.529C392.595 141.723 393.269 141.819 393.849 141.819C395.037 141.819 395.632 141.476 395.632 140.788C395.632 140.53 395.553 140.323 395.396 140.165C395.238 140 394.966 139.818 394.579 139.617C394.192 139.41 393.677 139.17 393.032 138.897C392.108 138.511 391.428 138.153 390.991 137.823C390.562 137.494 390.246 137.118 390.046 136.695C389.853 136.266 389.756 135.739 389.756 135.116C389.756 134.049 390.168 133.226 390.991 132.646C391.822 132.058 392.996 131.765 394.515 131.765C395.961 131.765 397.368 132.08 398.736 132.71L397.748 135.073C397.146 134.815 396.584 134.604 396.062 134.439C395.539 134.275 395.005 134.192 394.461 134.192C393.494 134.192 393.011 134.454 393.011 134.977C393.011 135.27 393.165 135.524 393.473 135.739C393.788 135.954 394.472 136.273 395.524 136.695C396.463 137.075 397.15 137.429 397.587 137.759C398.024 138.088 398.346 138.468 398.554 138.897C398.761 139.327 398.865 139.839 398.865 140.434ZM406.396 134.096C405.701 134.096 405.157 134.318 404.763 134.762C404.369 135.199 404.143 135.822 404.086 136.631H408.684C408.669 135.822 408.458 135.199 408.05 134.762C407.642 134.318 407.09 134.096 406.396 134.096ZM406.857 144.215C404.924 144.215 403.413 143.681 402.324 142.614C401.236 141.547 400.691 140.036 400.691 138.081C400.691 136.069 401.193 134.515 402.195 133.419C403.205 132.316 404.598 131.765 406.374 131.765C408.071 131.765 409.393 132.248 410.338 133.215C411.283 134.182 411.756 135.517 411.756 137.222V138.812H404.011C404.047 139.743 404.322 140.469 404.838 140.992C405.354 141.515 406.077 141.776 407.008 141.776C407.731 141.776 408.415 141.701 409.06 141.551C409.704 141.4 410.377 141.16 411.079 140.831V143.366C410.506 143.653 409.894 143.864 409.242 144C408.59 144.143 407.796 144.215 406.857 144.215ZM422.047 144L421.413 142.367H421.327C420.776 143.062 420.206 143.545 419.619 143.817C419.039 144.082 418.28 144.215 417.342 144.215C416.189 144.215 415.279 143.885 414.613 143.227C413.954 142.568 413.625 141.63 413.625 140.412C413.625 139.137 414.069 138.199 414.957 137.598C415.852 136.989 417.199 136.652 418.996 136.588L421.08 136.523V135.997C421.08 134.78 420.457 134.171 419.211 134.171C418.251 134.171 417.123 134.461 415.827 135.041L414.742 132.828C416.124 132.105 417.657 131.743 419.34 131.743C420.951 131.743 422.187 132.094 423.046 132.796C423.905 133.498 424.335 134.565 424.335 135.997V144H422.047ZM421.08 138.436L419.812 138.479C418.86 138.507 418.151 138.679 417.686 138.994C417.22 139.309 416.987 139.789 416.987 140.434C416.987 141.357 417.517 141.819 418.577 141.819C419.336 141.819 419.941 141.601 420.393 141.164C420.851 140.727 421.08 140.147 421.08 139.424V138.436ZM434.422 131.765C434.866 131.765 435.235 131.797 435.528 131.861L435.281 134.934C435.016 134.862 434.694 134.826 434.314 134.826C433.269 134.826 432.452 135.095 431.865 135.632C431.285 136.169 430.995 136.921 430.995 137.888V144H427.719V131.99H430.2L430.684 134.01H430.845C431.217 133.337 431.718 132.796 432.349 132.388C432.986 131.972 433.677 131.765 434.422 131.765ZM442.586 144.215C438.848 144.215 436.979 142.163 436.979 138.06C436.979 136.019 437.487 134.461 438.504 133.387C439.521 132.305 440.978 131.765 442.876 131.765C444.265 131.765 445.511 132.037 446.614 132.581L445.647 135.116C445.132 134.909 444.652 134.74 444.208 134.611C443.764 134.475 443.32 134.407 442.876 134.407C441.172 134.407 440.319 135.618 440.319 138.038C440.319 140.387 441.172 141.562 442.876 141.562C443.506 141.562 444.09 141.479 444.627 141.314C445.164 141.143 445.701 140.878 446.238 140.52V143.323C445.708 143.66 445.171 143.893 444.627 144.021C444.09 144.15 443.41 144.215 442.586 144.215ZM460.117 144H456.841V136.985C456.841 135.252 456.196 134.386 454.907 134.386C453.991 134.386 453.328 134.697 452.92 135.32C452.512 135.943 452.308 136.953 452.308 138.35V144H449.031V127.285H452.308V130.69C452.308 130.955 452.283 131.578 452.232 132.56L452.157 133.526H452.329C453.06 132.352 454.22 131.765 455.81 131.765C457.22 131.765 458.291 132.144 459.021 132.903C459.752 133.662 460.117 134.751 460.117 136.169V144ZM391.818 159.426H387.661V157.073H391.818V152.884H394.171V157.073H398.328V159.426H394.171V163.562H391.818V159.426ZM348.581 183.639C348.581 185.057 348.069 186.174 347.045 186.99C346.028 187.807 344.61 188.215 342.791 188.215C341.115 188.215 339.633 187.9 338.344 187.27V184.176C339.404 184.648 340.299 184.981 341.029 185.175C341.767 185.368 342.44 185.465 343.049 185.465C343.779 185.465 344.338 185.325 344.725 185.046C345.118 184.767 345.315 184.351 345.315 183.8C345.315 183.492 345.229 183.22 345.058 182.983C344.886 182.74 344.632 182.507 344.295 182.285C343.965 182.063 343.289 181.709 342.265 181.222C341.305 180.771 340.585 180.337 340.105 179.922C339.626 179.507 339.243 179.023 338.956 178.472C338.67 177.92 338.526 177.276 338.526 176.538C338.526 175.149 338.995 174.057 339.934 173.262C340.879 172.467 342.182 172.069 343.844 172.069C344.66 172.069 345.437 172.166 346.175 172.359C346.92 172.553 347.697 172.825 348.506 173.176L347.432 175.765C346.594 175.421 345.899 175.181 345.348 175.045C344.803 174.909 344.266 174.841 343.736 174.841C343.106 174.841 342.623 174.988 342.286 175.281C341.95 175.575 341.781 175.958 341.781 176.431C341.781 176.724 341.849 176.982 341.985 177.204C342.121 177.419 342.336 177.63 342.63 177.838C342.931 178.038 343.636 178.404 344.746 178.934C346.214 179.635 347.22 180.341 347.765 181.05C348.309 181.752 348.581 182.615 348.581 183.639ZM351.03 172.886C351.03 171.819 351.625 171.285 352.813 171.285C354.002 171.285 354.597 171.819 354.597 172.886C354.597 173.394 354.446 173.792 354.146 174.078C353.852 174.357 353.408 174.497 352.813 174.497C351.625 174.497 351.03 173.96 351.03 172.886ZM354.446 188H351.17V175.99H354.446V188ZM368.647 188H365.371V180.985C365.371 180.119 365.224 179.471 364.931 179.041C364.644 178.604 364.189 178.386 363.566 178.386C362.729 178.386 362.12 178.694 361.74 179.31C361.361 179.925 361.171 180.939 361.171 182.35V188H357.895V175.99H360.397L360.838 177.526H361.021C361.343 176.975 361.808 176.545 362.417 176.237C363.026 175.922 363.724 175.765 364.512 175.765C366.309 175.765 367.527 176.352 368.164 177.526H368.454C368.776 176.968 369.249 176.535 369.872 176.227C370.502 175.919 371.211 175.765 371.999 175.765C373.36 175.765 374.387 176.116 375.082 176.817C375.784 177.512 376.135 178.629 376.135 180.169V188H372.848V180.985C372.848 180.119 372.701 179.471 372.407 179.041C372.121 178.604 371.666 178.386 371.043 178.386C370.241 178.386 369.639 178.672 369.238 179.245C368.844 179.818 368.647 180.728 368.647 181.974V188ZM386.104 188.215C384.693 188.215 383.586 187.703 382.784 186.679H382.612C382.727 187.681 382.784 188.261 382.784 188.419V193.285H379.508V175.99H382.172L382.634 177.548H382.784C383.55 176.359 384.686 175.765 386.189 175.765C387.607 175.765 388.717 176.312 389.52 177.408C390.322 178.504 390.723 180.026 390.723 181.974C390.723 183.256 390.533 184.369 390.153 185.314C389.781 186.26 389.247 186.979 388.553 187.474C387.858 187.968 387.042 188.215 386.104 188.215ZM385.137 178.386C384.327 178.386 383.737 178.636 383.364 179.138C382.992 179.632 382.799 180.452 382.784 181.598V181.952C382.784 183.241 382.974 184.165 383.354 184.724C383.74 185.282 384.349 185.562 385.18 185.562C386.648 185.562 387.382 184.351 387.382 181.931C387.382 180.749 387.199 179.865 386.834 179.277C386.476 178.683 385.91 178.386 385.137 178.386ZM396.706 188H393.43V171.285H396.706V188ZM405.128 178.096C404.433 178.096 403.889 178.318 403.495 178.762C403.101 179.199 402.876 179.822 402.818 180.631H407.416C407.402 179.822 407.19 179.199 406.782 178.762C406.374 178.318 405.823 178.096 405.128 178.096ZM405.59 188.215C403.656 188.215 402.145 187.681 401.057 186.614C399.968 185.547 399.424 184.036 399.424 182.081C399.424 180.069 399.925 178.515 400.928 177.419C401.938 176.316 403.33 175.765 405.106 175.765C406.804 175.765 408.125 176.248 409.07 177.215C410.016 178.182 410.488 179.517 410.488 181.222V182.812H402.743C402.779 183.743 403.055 184.469 403.57 184.992C404.086 185.515 404.809 185.776 405.74 185.776C406.464 185.776 407.147 185.701 407.792 185.551C408.437 185.4 409.11 185.16 409.812 184.831V187.366C409.239 187.653 408.626 187.864 407.975 188C407.323 188.143 406.528 188.215 405.59 188.215ZM422.401 188H419.125V172.295H428.127V175.023H422.401V179.073H427.729V181.791H422.401V188ZM430.802 172.886C430.802 171.819 431.396 171.285 432.585 171.285C433.774 171.285 434.368 171.819 434.368 172.886C434.368 173.394 434.218 173.792 433.917 174.078C433.623 174.357 433.179 174.497 432.585 174.497C431.396 174.497 430.802 173.96 430.802 172.886ZM434.218 188H430.941V175.99H434.218V188ZM440.126 181.866L436.259 175.99H439.976L442.307 179.814L444.659 175.99H448.376L444.466 181.866L448.559 188H444.831L442.307 183.886L439.771 188H436.055L440.126 181.866Z" fill="black"/>
<path d="M356.555 82.4864C356.831 82.5075 357.071 82.3014 357.092 82.026L357.435 77.5391C357.456 77.2638 357.25 77.0235 356.975 77.0024C356.699 76.9814 356.459 77.1875 356.438 77.4629L356.133 81.4512L352.145 81.1462C351.869 81.1251 351.629 81.3312 351.608 81.6066C351.587 81.8819 351.793 82.1222 352.068 82.1432L356.555 82.4864ZM256.175 39.1784C257.509 38.6794 258.832 38.2176 260.145 37.7933L259.837 36.8418C258.509 37.2709 257.172 37.7377 255.825 38.2418L256.175 39.1784ZM268.242 35.6299C271.038 35.046 273.796 34.6454 276.526 34.4315L276.448 33.4346C273.673 33.652 270.873 34.0589 268.038 34.6511L268.242 35.6299ZM284.883 34.368C287.656 34.5477 290.412 34.9303 293.164 35.5201L293.373 34.5423C290.575 33.9424 287.77 33.553 284.948 33.3701L284.883 34.368ZM301.196 37.8362C303.749 38.7612 306.308 39.8684 308.882 41.1616L309.331 40.268C306.724 38.9583 304.129 37.8352 301.537 36.896L301.196 37.8362ZM316.177 45.2976C318.465 46.7403 320.772 48.3287 323.102 50.0651L323.7 49.2633C321.35 47.5125 319.022 45.9093 316.71 44.4517L316.177 45.2976ZM329.679 55.3024C331.75 57.0549 333.843 58.9211 335.962 60.9027L336.645 60.1722C334.515 58.1803 332.409 56.303 330.325 54.5391L329.679 55.3024ZM341.986 66.7716C343.9 68.7084 345.836 70.7358 347.798 72.8547L348.532 72.1752C346.563 70.049 344.619 68.0139 342.698 66.0688L341.986 66.7716ZM353.442 79.1193C354.36 80.1648 355.284 81.2295 356.214 82.3134L356.973 81.6623C356.04 80.5755 355.114 79.508 354.194 78.4596L353.442 79.1193ZM356.517 82.985C357.068 83.0271 357.548 82.6148 357.59 82.0641L358.277 73.0904C358.319 72.5397 357.907 72.0591 357.356 72.017C356.805 71.9749 356.325 72.3872 356.283 72.9378L355.673 80.9145L347.696 80.3044C347.145 80.2623 346.665 80.6746 346.622 81.2253C346.58 81.7759 346.993 82.2565 347.543 82.2986L356.517 82.985ZM256.35 39.6467C257.677 39.1502 258.993 38.6909 260.298 38.2691L259.683 36.366C258.348 36.7975 257.004 37.2669 255.65 37.7735L256.35 39.6467ZM268.344 36.1194C271.12 35.5396 273.857 35.1421 276.565 34.93L276.409 32.9361C273.611 33.1553 270.79 33.5654 267.935 34.1616L268.344 36.1194ZM284.851 34.8669C287.599 35.0451 290.331 35.4243 293.059 36.009L293.478 34.0534C290.656 33.4484 287.827 33.0556 284.981 32.8711L284.851 34.8669ZM301.026 38.3063C303.559 39.2242 306.1 40.3235 308.657 41.6083L309.555 39.8212C306.932 38.5032 304.319 37.3722 301.707 36.426L301.026 38.3063ZM315.91 45.7206C318.187 47.1558 320.483 48.7367 322.804 50.4661L323.999 48.8623C321.639 47.1044 319.301 45.4938 316.977 44.0288L315.91 45.7206ZM329.356 55.6841C331.42 57.4309 333.507 59.2916 335.621 61.2679L336.987 59.807C334.851 57.8099 332.739 55.9271 330.648 54.1574L329.356 55.6841ZM341.631 67.123C343.54 69.0557 345.472 71.0791 347.431 73.1944L348.899 71.8355C346.926 69.7056 344.979 67.6666 343.053 65.7174L341.631 67.123ZM353.066 79.4492C353.983 80.4932 354.906 81.5564 355.834 82.639L357.352 81.3368C356.419 80.2486 355.491 79.1796 354.569 78.1297L353.066 79.4492Z" fill="black"/>
<path d="M536.604 265.809C536.879 265.842 537.074 266.091 537.041 266.365L536.501 270.833C536.468 271.107 536.219 271.302 535.944 271.269C535.67 271.236 535.475 270.987 535.508 270.713L535.988 266.742L532.017 266.262C531.743 266.228 531.547 265.979 531.581 265.705C531.614 265.431 531.863 265.236 532.137 265.269L536.604 265.809ZM429.611 234.566C430.681 235.653 431.741 236.717 432.791 237.759L432.087 238.469C431.034 237.424 429.971 236.358 428.898 235.268L429.611 234.566ZM439.187 243.945C441.44 246.066 443.644 248.077 445.8 249.982L445.138 250.732C442.973 248.819 440.762 246.801 438.502 244.673L439.187 243.945ZM452.58 255.754C454.99 257.724 457.338 259.553 459.627 261.249L459.032 262.053C456.729 260.347 454.369 258.507 451.947 256.528L452.58 255.754ZM466.934 266.339C469.558 268.047 472.102 269.566 474.57 270.909L474.092 271.787C471.599 270.431 469.033 268.898 466.389 267.177L466.934 266.339ZM482.576 274.762C485.473 275.967 488.262 276.911 490.956 277.617L490.702 278.584C487.961 277.866 485.128 276.906 482.192 275.686L482.576 274.762ZM499.667 279.121C502.72 279.364 505.653 279.286 508.488 278.925L508.615 279.917C505.711 280.287 502.709 280.366 499.588 280.118L499.667 279.121ZM517.082 276.913C519.845 275.966 522.532 274.756 525.167 273.322L525.645 274.201C522.967 275.658 520.229 276.892 517.406 277.859L517.082 276.913ZM532.672 268.585C533.865 267.732 535.052 266.84 536.236 265.912L536.853 266.699C535.659 267.635 534.46 268.536 533.253 269.398L532.672 268.585ZM536.664 265.312C537.213 265.379 537.603 265.877 537.537 266.425L536.457 275.36C536.391 275.908 535.893 276.299 535.344 276.233C534.796 276.167 534.405 275.668 534.472 275.12L535.432 267.178L527.489 266.218C526.941 266.152 526.55 265.653 526.617 265.105C526.683 264.557 527.181 264.166 527.729 264.232L536.664 265.312ZM429.967 234.215C431.036 235.301 432.095 236.364 433.143 237.404L431.735 238.824C430.681 237.778 429.616 236.71 428.542 235.619L429.967 234.215ZM439.53 243.581C441.779 245.698 443.979 247.706 446.131 249.608L444.807 251.106C442.638 249.19 440.423 247.168 438.159 245.037L439.53 243.581ZM452.897 255.366C455.301 257.332 457.642 259.157 459.925 260.847L458.734 262.454C456.424 260.744 454.058 258.899 451.631 256.915L452.897 255.366ZM467.207 265.92C469.821 267.621 472.353 269.134 474.809 270.47L473.853 272.227C471.348 270.864 468.77 269.324 466.116 267.596L467.207 265.92ZM482.768 274.301C485.645 275.497 488.413 276.434 491.082 277.133L490.575 279.068C487.81 278.343 484.956 277.376 482 276.147L482.768 274.301ZM499.707 278.623C502.726 278.863 505.624 278.785 508.425 278.429L508.678 280.413C505.739 280.787 502.703 280.867 499.549 280.617L499.707 278.623ZM516.92 276.439C519.654 275.504 522.314 274.305 524.928 272.883L525.884 274.64C523.184 276.109 520.42 277.355 517.568 278.332L516.92 276.439ZM532.381 268.178C533.568 267.33 534.749 266.442 535.927 265.518L537.162 267.092C535.962 268.033 534.757 268.939 533.544 269.805L532.381 268.178Z" fill="black"/>
<defs>
<clipPath id="clip0">
<rect width="302.86" height="304" fill="white"/>
</clipPath>
<clipPath id="clip1">
<rect width="302.86" height="304" fill="white" transform="translate(487)"/>
</clipPath>
</defs>
</svg>
