<svg width="123" height="117" viewBox="0 0 123 117" fill="none" xmlns="http://www.w3.org/2000/svg">
<path d="M60.3951 97.5618L87.78 114.912C91.2804 117.13 95.6265 113.831 94.5878 109.745L86.6757 78.6207C86.4529 77.7538 86.4793 76.8417 86.7518 75.9891C87.0244 75.1366 87.532 74.3783 88.2164 73.8014L112.773 53.3622C116 50.6766 114.335 45.3215 110.189 45.0524L78.1192 42.9711C77.2554 42.9094 76.4269 42.6036 75.7302 42.0892C75.0335 41.5749 74.4972 40.8732 74.1838 40.0659L62.2231 9.94578C61.898 9.0889 61.3199 8.35119 60.5656 7.83062C59.8113 7.31005 58.9165 7.03125 58 7.03125C57.0835 7.03125 56.1887 7.31005 55.4344 7.83062C54.6801 8.35119 54.102 9.0889 53.7769 9.94578L41.8162 40.0659C41.5028 40.8732 40.9665 41.5749 40.2698 42.0892C39.5731 42.6036 38.7446 42.9094 37.8808 42.9711L5.81095 45.0524C1.66534 45.3215 -8.45194e-05 50.6766 3.22661 53.3622L27.7836 73.8014C28.468 74.3783 28.9756 75.1366 29.2482 75.9891C29.5207 76.8417 29.5471 77.7538 29.3243 78.6207L21.9867 107.485C20.7403 112.388 25.9556 116.346 30.1562 113.685L55.6049 97.5618C56.3207 97.1062 57.1516 96.8642 58 96.8642C58.8485 96.8642 59.6793 97.1062 60.3951 97.5618Z" stroke="black" stroke-width="2" stroke-linecap="round" stroke-linejoin="round"/>
<path d="M67.3951 91.5618L94.78 108.912C98.2804 111.13 102.627 107.831 101.588 103.745L93.6757 72.6207C93.4529 71.7538 93.4793 70.8417 93.7518 69.9891C94.0244 69.1366 94.532 68.3783 95.2164 67.8014L119.773 47.3622C123 44.6766 121.335 39.3215 117.189 39.0524L85.1192 36.9711C84.2554 36.9094 83.4269 36.6036 82.7302 36.0892C82.0335 35.5749 81.4972 34.8732 81.1838 34.0659L69.2231 3.94578C68.898 3.0889 68.3199 2.35119 67.5656 1.83062C66.8113 1.31005 65.9165 1.03125 65 1.03125C64.0835 1.03125 63.1887 1.31005 62.4344 1.83062C61.6801 2.35119 61.102 3.0889 60.7769 3.94578L48.8162 34.0659C48.5028 34.8732 47.9665 35.5749 47.2698 36.0892C46.5731 36.6036 45.7446 36.9094 44.8808 36.9711L12.8109 39.0524C8.66534 39.3215 6.99992 44.6766 10.2266 47.3622L34.7836 67.8014C35.468 68.3783 35.9756 69.1366 36.2482 69.9891C36.5207 70.8417 36.5471 71.7538 36.3243 72.6207L28.9867 101.485C27.7403 106.388 32.9556 110.346 37.1562 107.685L62.605 91.5618C63.3207 91.1062 64.1516 90.8642 65 90.8642C65.8485 90.8642 66.6793 91.1062 67.3951 91.5618V91.5618Z" stroke="#FFC107" stroke-width="2" stroke-linecap="round" stroke-linejoin="round"/>
</svg>
