<svg width="635" height="228" viewBox="0 0 635 228" fill="none" xmlns="http://www.w3.org/2000/svg">
<path fill-rule="evenodd" clip-rule="evenodd" d="M99.6831 27.2135C152.876 27.2135 196 70.2601 196 123.357C196 176.453 152.876 219.5 99.6831 219.5C46.4906 219.5 3.36743 176.453 3.36743 123.357C3.36743 70.2599 46.4918 27.2145 99.6831 27.2145V27.2135Z" fill="url(#paint0_linear)"/>
<path d="M31.5607 58.3048L41.0641 54.6411L42.4984 58.3396L32.9892 62.0034L31.5607 58.3048ZM47.6877 52.0764L59.337 47.6347L60.7486 51.3492L49.1051 55.7908L47.6877 52.0764ZM66.3841 44.8672L179.946 1.04275L182.651 0V74.51C181.403 72.4022 180.07 70.3388 178.67 68.3378V5.7888L67.8122 48.5648L66.3841 44.8672ZM182.651 172.203V199.772L180.979 200.042L163.017 202.968L162.38 199.05L178.67 196.401V178.381C180.071 176.374 181.398 174.315 182.652 172.203H182.651ZM155.738 204.151L41.736 222.712L39.9516 223L39.4934 221.253L36.6587 210.435L40.5034 209.438L42.8751 218.507L155.099 200.239L155.738 204.151ZM34.2483 201.57L31.5718 191.323C32.3341 192.084 33.1077 192.832 33.8927 193.566L36.9902 196.346L38.0938 200.578L34.2483 201.57ZM6.98013 97.1919L0.446218 72.1936L0 70.4857L1.65458 69.8494L24.8853 60.8815L26.3196 64.579L4.73769 72.9043L9.25506 90.1918C8.41362 92.4858 7.65145 94.8249 6.97933 97.1923L6.98013 97.1919Z" fill="#F2001B"/>
<path fill-rule="evenodd" clip-rule="evenodd" d="M99.6831 27.2135C152.876 27.2135 196 70.2601 196 123.357C196 176.453 152.876 219.5 99.6831 219.5C46.4906 219.5 3.36743 176.453 3.36743 123.357C3.36743 70.2599 46.4918 27.2145 99.6831 27.2145V27.2135Z" fill="url(#paint1_linear)"/>
<path d="M31.5607 58.3048L41.0641 54.6411L42.4984 58.3396L32.9892 62.0034L31.5607 58.3048ZM47.6877 52.0764L59.337 47.6347L60.7486 51.3492L49.1051 55.7908L47.6877 52.0764ZM66.3841 44.8672L179.946 1.04275L182.651 0V74.51C181.403 72.4022 180.07 70.3388 178.67 68.3378V5.7888L67.8122 48.5648L66.3841 44.8672ZM182.651 172.203V199.772L180.979 200.042L163.017 202.968L162.38 199.05L178.67 196.401V178.381C180.071 176.374 181.398 174.315 182.652 172.203H182.651ZM155.738 204.151L41.736 222.712L39.9516 223L39.4934 221.253L36.6587 210.435L40.5034 209.438L42.8751 218.507L155.099 200.239L155.738 204.151ZM34.2483 201.57L31.5718 191.323C32.3341 192.084 33.1077 192.832 33.8927 193.566L36.9902 196.346L38.0938 200.578L34.2483 201.57ZM6.98013 97.1919L0.446218 72.1936L0 70.4857L1.65458 69.8494L24.8853 60.8815L26.3196 64.579L4.73769 72.9043L9.25506 90.1918C8.41362 92.4858 7.65145 94.8249 6.97933 97.1923L6.98013 97.1919Z" fill="#F2001B"/>
<path d="M107.041 135.281C104.624 128.562 99.0788 124.014 91.7945 124.014C81.8562 124.014 75.1196 132.502 75.1196 143.33V143.437C75.1196 152.783 80.0097 160.296 87.7739 162.19L92.8053 155.162C92.4703 155.208 92.1326 155.23 91.7945 155.23C86.8253 155.23 83.5673 150.162 83.5673 143.331V143.224C83.5673 136.398 86.7745 131.432 91.6931 131.432C96.6057 131.432 99.9203 136.556 99.9203 143.331V143.438C99.9203 144.092 99.892 144.729 99.8356 145.343L107.041 135.281Z" fill="#FEFEFE"/>
<path d="M108.396 131.86C110.632 131.86 112.145 130.084 112.145 127.937V127.892C112.145 125.744 110.655 124.014 108.435 124.014C106.199 124.014 104.686 125.767 104.686 127.937V127.982C104.686 130.13 106.177 131.86 108.396 131.86V131.86ZM90.1118 162.838H92.7262L120.045 124.187H117.436L90.1118 162.838ZM117.832 139.699C120.068 139.699 121.581 137.924 121.581 135.776V135.737C121.581 133.589 120.09 131.859 117.876 131.859C115.634 131.859 114.121 133.612 114.121 135.776V135.821C114.121 137.969 115.612 139.699 117.831 139.699L117.832 139.699ZM108.435 129.863C107.56 129.863 106.99 128.967 106.99 127.936V127.891C106.99 126.887 107.47 126.008 108.396 126.008C109.271 126.008 109.841 126.904 109.841 127.937V127.982C109.841 128.968 109.362 129.864 108.435 129.864V129.863ZM117.877 137.71C116.996 137.71 116.426 136.808 116.426 135.776V135.737C116.426 134.728 116.911 133.848 117.832 133.848C118.707 133.848 119.277 134.75 119.277 135.776V135.821C119.277 136.808 118.797 137.71 117.877 137.71V137.71Z" fill="#FEFEFE"/>
<path d="M113.789 163.052C119.091 163.052 122.942 159.062 122.942 154.186V154.135C122.942 149.26 119.142 145.32 113.84 145.32C108.538 145.32 104.686 149.31 104.686 154.186V154.237C104.686 159.107 108.492 163.052 113.789 163.052ZM113.84 159.575C110.796 159.575 108.639 157.123 108.639 154.186V154.135C108.639 151.199 110.745 148.797 113.789 148.797C116.833 148.797 118.99 151.243 118.99 154.186V154.237C118.99 157.174 116.883 159.575 113.84 159.575ZM126.308 162.759H130.085V156.119H138.279V152.692H130.085V149.04H139.386V145.613H126.308V162.759ZM142.401 162.759H146.184V156.119H154.378V152.692H146.184V149.04H155.484V145.613H142.401V162.759Z" fill="#FEFEFE"/>
<path d="M44.763 162.376H54.3342L71.6077 130.31V123.94H43.8821V131.245H61.9799L44.763 162.376Z" fill="#FEFEFE"/>
<path d="M54.8429 183.072C54.2109 183.072 53.6349 182.952 53.1149 182.712C52.6029 182.464 52.1589 182.136 51.7829 181.728C51.4069 181.312 51.1189 180.848 50.9189 180.336C50.7189 179.816 50.6189 179.28 50.6189 178.728C50.6189 178.168 50.7229 177.632 50.9309 177.12C51.1469 176.6 51.4429 176.14 51.8189 175.74C52.2029 175.332 52.6549 175.012 53.1749 174.78C53.6949 174.548 54.2629 174.432 54.8789 174.432C55.5109 174.432 56.0829 174.556 56.5949 174.804C57.1149 175.044 57.5589 175.372 57.9269 175.788C58.3029 176.204 58.5909 176.672 58.7909 177.192C58.9909 177.704 59.0909 178.228 59.0909 178.764C59.0909 179.324 58.9829 179.864 58.7669 180.384C58.5589 180.896 58.2629 181.356 57.8789 181.764C57.5029 182.164 57.0549 182.484 56.5349 182.724C56.0229 182.956 55.4589 183.072 54.8429 183.072ZM52.6229 178.752C52.6229 179.192 52.7069 179.608 52.8749 180C53.0429 180.384 53.2949 180.7 53.6309 180.948C53.9669 181.196 54.3749 181.32 54.8549 181.32C55.3509 181.32 55.7629 181.192 56.0909 180.936C56.4269 180.68 56.6749 180.356 56.8349 179.964C57.0029 179.564 57.0869 179.152 57.0869 178.728C57.0869 178.288 56.9989 177.876 56.8229 177.492C56.6549 177.1 56.4029 176.784 56.0669 176.544C55.7389 176.304 55.3349 176.184 54.8549 176.184C54.3589 176.184 53.9429 176.312 53.6069 176.568C53.2789 176.816 53.0309 177.136 52.8629 177.528C52.7029 177.92 52.6229 178.328 52.6229 178.752ZM60.2281 183V174.48H66.0121V176.208H62.1961V178.044H65.3401V179.64H62.1961V183H60.2281ZM71.341 174.48H73.465L76.393 183H74.377L73.717 181.092H71.065L70.417 183H68.401L71.341 174.48ZM73.393 179.736L72.397 176.46L71.377 179.736H73.393ZM77.232 183V174.48H79.2V181.272H83.328V183H77.232ZM84.2515 183V174.48H86.2195V181.272H90.3475V183H84.2515ZM98.8323 176.976C98.8083 176.944 98.7243 176.884 98.5803 176.796C98.4363 176.708 98.2563 176.616 98.0403 176.52C97.8243 176.416 97.5883 176.332 97.3323 176.268C97.0763 176.196 96.8203 176.16 96.5643 176.16C95.8603 176.16 95.5083 176.396 95.5083 176.868C95.5083 177.156 95.6603 177.36 95.9643 177.48C96.2763 177.6 96.7203 177.744 97.2963 177.912C97.8403 178.064 98.3083 178.24 98.7003 178.44C99.1003 178.632 99.4083 178.892 99.6243 179.22C99.8403 179.54 99.9483 179.964 99.9483 180.492C99.9483 180.972 99.8603 181.38 99.6843 181.716C99.5083 182.044 99.2683 182.312 98.9643 182.52C98.6603 182.72 98.3163 182.868 97.9323 182.964C97.5563 183.052 97.1643 183.096 96.7563 183.096C96.1243 183.096 95.4843 183.004 94.8363 182.82C94.1883 182.628 93.6163 182.368 93.1203 182.04L93.9843 180.324C94.0163 180.364 94.1203 180.44 94.2963 180.552C94.4723 180.656 94.6923 180.768 94.9563 180.888C95.2203 181.008 95.5083 181.112 95.8203 181.2C96.1403 181.28 96.4643 181.32 96.7923 181.32C97.4883 181.32 97.8363 181.108 97.8363 180.684C97.8363 180.468 97.7443 180.3 97.5603 180.18C97.3843 180.052 97.1403 179.944 96.8283 179.856C96.5163 179.76 96.1643 179.652 95.7723 179.532C94.9883 179.292 94.4083 179 94.0323 178.656C93.6643 178.312 93.4803 177.82 93.4803 177.18C93.4803 176.58 93.6203 176.076 93.9003 175.668C94.1883 175.252 94.5723 174.94 95.0523 174.732C95.5323 174.516 96.0563 174.408 96.6243 174.408C97.2243 174.408 97.7923 174.512 98.3283 174.72C98.8643 174.92 99.3203 175.128 99.6963 175.344L98.8323 176.976ZM107.091 181.272V183H101.103V174.48H106.983V176.208H103.071V177.864H106.431V179.46H103.071V181.272H107.091ZM108.287 183V174.48H112.127C112.527 174.48 112.895 174.564 113.231 174.732C113.575 174.892 113.871 175.112 114.119 175.392C114.367 175.664 114.559 175.972 114.695 176.316C114.839 176.66 114.911 177.008 114.911 177.36C114.911 177.888 114.783 178.376 114.527 178.824C114.279 179.264 113.943 179.6 113.519 179.832L115.391 183H113.219L111.587 180.252H110.255V183H108.287ZM110.255 178.536H112.055C112.287 178.536 112.487 178.428 112.655 178.212C112.823 177.988 112.907 177.704 112.907 177.36C112.907 177.016 112.811 176.74 112.619 176.532C112.427 176.316 112.219 176.208 111.995 176.208H110.255V178.536ZM117.245 174.48L119.249 180.696L121.229 174.48H123.305L120.209 183H118.277L115.157 174.48H117.245ZM124.095 183V174.48H126.063V183H124.095ZM127.201 178.668C127.201 178.156 127.297 177.648 127.489 177.144C127.681 176.64 127.961 176.184 128.329 175.776C128.697 175.368 129.145 175.044 129.673 174.804C130.201 174.556 130.801 174.432 131.473 174.432C132.265 174.432 132.957 174.604 133.549 174.948C134.141 175.292 134.581 175.74 134.869 176.292L133.357 177.348C133.229 177.052 133.057 176.82 132.841 176.652C132.625 176.476 132.393 176.356 132.145 176.292C131.897 176.22 131.657 176.184 131.425 176.184C130.921 176.184 130.505 176.312 130.177 176.568C129.849 176.824 129.605 177.148 129.445 177.54C129.285 177.932 129.205 178.332 129.205 178.74C129.205 179.188 129.297 179.612 129.481 180.012C129.665 180.404 129.925 180.72 130.261 180.96C130.597 181.2 130.993 181.32 131.449 181.32C131.689 181.32 131.933 181.284 132.181 181.212C132.429 181.132 132.657 181.004 132.865 180.828C133.081 180.652 133.245 180.424 133.357 180.144L134.965 181.092C134.797 181.516 134.521 181.876 134.137 182.172C133.753 182.46 133.317 182.684 132.829 182.844C132.349 182.996 131.873 183.072 131.401 183.072C130.785 183.072 130.221 182.948 129.709 182.7C129.197 182.444 128.753 182.108 128.377 181.692C128.001 181.268 127.709 180.796 127.501 180.276C127.301 179.748 127.201 179.212 127.201 178.668ZM141.943 181.272V183H135.955V174.48H141.835V176.208H137.923V177.864H141.283V179.46H137.923V181.272H141.943ZM148.25 176.976C148.226 176.944 148.142 176.884 147.998 176.796C147.854 176.708 147.674 176.616 147.458 176.52C147.242 176.416 147.006 176.332 146.75 176.268C146.494 176.196 146.238 176.16 145.982 176.16C145.278 176.16 144.926 176.396 144.926 176.868C144.926 177.156 145.078 177.36 145.382 177.48C145.694 177.6 146.138 177.744 146.714 177.912C147.258 178.064 147.726 178.24 148.118 178.44C148.518 178.632 148.826 178.892 149.042 179.22C149.258 179.54 149.366 179.964 149.366 180.492C149.366 180.972 149.278 181.38 149.102 181.716C148.926 182.044 148.686 182.312 148.382 182.52C148.078 182.72 147.734 182.868 147.35 182.964C146.974 183.052 146.582 183.096 146.174 183.096C145.542 183.096 144.902 183.004 144.254 182.82C143.606 182.628 143.034 182.368 142.538 182.04L143.402 180.324C143.434 180.364 143.538 180.44 143.714 180.552C143.89 180.656 144.11 180.768 144.374 180.888C144.638 181.008 144.926 181.112 145.238 181.2C145.558 181.28 145.882 181.32 146.21 181.32C146.906 181.32 147.254 181.108 147.254 180.684C147.254 180.468 147.162 180.3 146.978 180.18C146.802 180.052 146.558 179.944 146.246 179.856C145.934 179.76 145.582 179.652 145.19 179.532C144.406 179.292 143.826 179 143.45 178.656C143.082 178.312 142.898 177.82 142.898 177.18C142.898 176.58 143.038 176.076 143.318 175.668C143.606 175.252 143.99 174.94 144.47 174.732C144.95 174.516 145.474 174.408 146.042 174.408C146.642 174.408 147.21 174.512 147.746 174.72C148.282 174.92 148.738 175.128 149.114 175.344L148.25 176.976Z" fill="#F2001B"/>
<path d="M75.3201 112.409V106.025H78.3601V111.744C78.3601 112.998 78.8225 113.625 79.7471 113.625C80.1525 113.625 80.5451 113.517 80.9251 113.302C81.3051 113.074 81.6408 112.7 81.9321 112.181V106.025H84.9721V112.618C84.9721 112.922 85.0165 113.137 85.1051 113.264C85.2065 113.391 85.3775 113.46 85.6181 113.473V116C85.3268 116.051 85.0798 116.089 84.8771 116.114C84.6745 116.139 84.4908 116.152 84.3261 116.152C83.2368 116.152 82.6161 115.728 82.4641 114.879L82.4071 114.271C81.9511 114.93 81.3811 115.417 80.6971 115.734C80.0258 116.038 79.2721 116.19 78.4361 116.19C77.4228 116.19 76.6501 115.867 76.1181 115.221C75.5861 114.575 75.3201 113.638 75.3201 112.409ZM93.6352 116.19C92.8879 116.19 92.2292 116.032 91.6592 115.715C91.1019 115.386 90.6712 114.942 90.3672 114.385V120.047H87.3272V106.025H89.9682V107.64C90.3356 107.07 90.7979 106.627 91.3552 106.31C91.9126 105.993 92.5649 105.835 93.3122 105.835C94.1989 105.835 94.9906 106.069 95.6872 106.538C96.3966 106.994 96.9476 107.608 97.3402 108.381C97.7456 109.154 97.9482 110.021 97.9482 110.984C97.9482 111.972 97.7646 112.859 97.3972 113.644C97.0299 114.429 96.5169 115.05 95.8582 115.506C95.2122 115.962 94.4712 116.19 93.6352 116.19ZM92.6092 113.625C93.0399 113.625 93.4262 113.505 93.7682 113.264C94.1102 113.011 94.3762 112.688 94.5662 112.295C94.7562 111.89 94.8512 111.446 94.8512 110.965C94.8512 110.23 94.6232 109.622 94.1672 109.141C93.7239 108.66 93.1539 108.419 92.4572 108.419C92.0392 108.419 91.6339 108.546 91.2412 108.799C90.8612 109.04 90.5699 109.369 90.3672 109.787V111.839C90.5699 112.346 90.8739 112.77 91.2792 113.112C91.6972 113.454 92.1406 113.625 92.6092 113.625ZM110.375 115.468C109.957 115.645 109.476 115.81 108.931 115.962C108.399 116.114 107.861 116.19 107.316 116.19C106.809 116.19 106.347 116.108 105.929 115.943C105.511 115.766 105.175 115.481 104.922 115.088C104.669 114.695 104.542 114.176 104.542 113.53V108.324H103.269V106.025H104.542V102.852H107.582V106.025H109.615V108.324H107.582V112.485C107.582 112.814 107.664 113.055 107.829 113.207C107.994 113.346 108.203 113.416 108.456 113.416C108.684 113.416 108.918 113.378 109.159 113.302C109.4 113.226 109.609 113.144 109.786 113.055L110.375 115.468ZM116.198 116.19C115.058 116.19 114.089 115.949 113.291 115.468C112.506 114.987 111.904 114.353 111.486 113.568C111.068 112.783 110.859 111.934 110.859 111.022C110.859 110.097 111.068 109.242 111.486 108.457C111.904 107.672 112.512 107.038 113.31 106.557C114.108 106.076 115.071 105.835 116.198 105.835C117.326 105.835 118.288 106.076 119.086 106.557C119.884 107.038 120.492 107.672 120.91 108.457C121.328 109.242 121.537 110.097 121.537 111.022C121.537 111.934 121.328 112.783 120.91 113.568C120.492 114.353 119.884 114.987 119.086 115.468C118.288 115.949 117.326 116.19 116.198 116.19ZM113.975 111.022C113.975 111.795 114.184 112.422 114.602 112.903C115.033 113.384 115.565 113.625 116.198 113.625C116.819 113.625 117.338 113.384 117.756 112.903C118.187 112.422 118.402 111.795 118.402 111.022C118.402 110.249 118.187 109.622 117.756 109.141C117.338 108.66 116.819 108.419 116.198 108.419C115.565 108.419 115.033 108.66 114.602 109.141C114.184 109.622 113.975 110.249 113.975 111.022Z" fill="white"/>
<path d="M38.7112 76.462C38.6732 76.4113 38.5402 76.3163 38.3122 76.177C38.0842 76.0377 37.7992 75.892 37.4572 75.74C37.1152 75.5753 36.7415 75.4423 36.3362 75.341C35.9309 75.227 35.5255 75.17 35.1202 75.17C34.0055 75.17 33.4482 75.5437 33.4482 76.291C33.4482 76.747 33.6889 77.07 34.1702 77.26C34.6642 77.45 35.3672 77.678 36.2792 77.944C37.1405 78.1847 37.8815 78.4633 38.5022 78.78C39.1355 79.084 39.6232 79.4957 39.9652 80.015C40.3072 80.5217 40.4782 81.193 40.4782 82.029C40.4782 82.789 40.3389 83.435 40.0602 83.967C39.7815 84.4863 39.4015 84.9107 38.9202 85.24C38.4389 85.5567 37.8942 85.791 37.2862 85.943C36.6909 86.0823 36.0702 86.152 35.4242 86.152C34.4235 86.152 33.4102 86.0063 32.3842 85.715C31.3582 85.411 30.4525 84.9993 29.6672 84.48L31.0352 81.763C31.0859 81.8263 31.2505 81.9467 31.5292 82.124C31.8079 82.2887 32.1562 82.466 32.5742 82.656C32.9922 82.846 33.4482 83.0107 33.9422 83.15C34.4489 83.2767 34.9619 83.34 35.4812 83.34C36.5832 83.34 37.1342 83.0043 37.1342 82.333C37.1342 81.991 36.9885 81.725 36.6972 81.535C36.4185 81.3323 36.0322 81.1613 35.5382 81.022C35.0442 80.87 34.4869 80.699 33.8662 80.509C32.6249 80.129 31.7065 79.6667 31.1112 79.122C30.5285 78.5773 30.2372 77.7983 30.2372 76.785C30.2372 75.835 30.4589 75.037 30.9022 74.391C31.3582 73.7323 31.9662 73.2383 32.7262 72.909C33.4862 72.567 34.3159 72.396 35.2152 72.396C36.1652 72.396 37.0645 72.5607 37.9132 72.89C38.7619 73.2067 39.4839 73.536 40.0792 73.878L38.7112 76.462ZM42.3066 86V72.51H48.0636C48.7096 72.51 49.2986 72.643 49.8306 72.909C50.3753 73.1623 50.844 73.5107 51.2366 73.954C51.6293 74.3847 51.9333 74.8723 52.1486 75.417C52.364 75.9617 52.4716 76.5127 52.4716 77.07C52.4716 77.8553 52.288 78.5963 51.9206 79.293C51.566 79.9897 51.0656 80.5597 50.4196 81.003C49.7736 81.4337 49.02 81.649 48.1586 81.649H45.4226V86H42.3066ZM45.4226 78.932H47.9686C48.336 78.932 48.6526 78.7737 48.9186 78.457C49.1846 78.1403 49.3176 77.678 49.3176 77.07C49.3176 76.4493 49.1593 75.9933 48.8426 75.702C48.5386 75.398 48.2093 75.246 47.8546 75.246H45.4226V78.932ZM63.6255 83.264V86H54.1445V72.51H63.4545V75.246H57.2605V77.868H62.5805V80.395H57.2605V83.264H63.6255ZM64.5169 79.141C64.5169 78.3303 64.6689 77.526 64.9729 76.728C65.2769 75.93 65.7202 75.208 66.3029 74.562C66.8856 73.916 67.5949 73.403 68.4309 73.023C69.2669 72.6303 70.2169 72.434 71.2809 72.434C72.5349 72.434 73.6306 72.7063 74.5679 73.251C75.5052 73.7957 76.2019 74.505 76.6579 75.379L74.2639 77.051C74.0612 76.5823 73.7889 76.215 73.4469 75.949C73.1049 75.6703 72.7376 75.4803 72.3449 75.379C71.9522 75.265 71.5722 75.208 71.2049 75.208C70.4069 75.208 69.7482 75.4107 69.2289 75.816C68.7096 76.2213 68.3232 76.7343 68.0699 77.355C67.8166 77.9757 67.6899 78.609 67.6899 79.255C67.6899 79.9643 67.8356 80.6357 68.1269 81.269C68.4182 81.8897 68.8299 82.39 69.3619 82.77C69.8939 83.15 70.5209 83.34 71.2429 83.34C71.6229 83.34 72.0092 83.283 72.4019 83.169C72.7946 83.0423 73.1556 82.8397 73.4849 82.561C73.8269 82.2823 74.0866 81.9213 74.2639 81.478L76.8099 82.979C76.5439 83.6503 76.1069 84.2203 75.4989 84.689C74.8909 85.145 74.2006 85.4997 73.4279 85.753C72.6679 85.9937 71.9142 86.114 71.1669 86.114C70.1916 86.114 69.2986 85.9177 68.4879 85.525C67.6772 85.1197 66.9742 84.5877 66.3789 83.929C65.7836 83.2577 65.3212 82.5103 64.9919 81.687C64.6752 80.851 64.5169 80.0023 64.5169 79.141ZM78.377 86V72.51H81.493V86H78.377ZM87.4743 72.51H90.8373L95.4733 86H92.2812L91.2363 82.979H87.0373L86.0113 86H82.8193L87.4743 72.51ZM90.7233 80.832L89.1463 75.645L87.5312 80.832H90.7233ZM96.8018 86V72.51H99.9178V83.264H106.454V86H96.8018ZM117.703 86.114C116.702 86.114 115.79 85.924 114.967 85.544C114.156 85.1513 113.453 84.632 112.858 83.986C112.263 83.3273 111.807 82.5927 111.49 81.782C111.173 80.9587 111.015 80.11 111.015 79.236C111.015 78.3493 111.18 77.5007 111.509 76.69C111.851 75.8667 112.32 75.1383 112.915 74.505C113.523 73.859 114.239 73.3523 115.062 72.985C115.885 72.6177 116.785 72.434 117.76 72.434C118.761 72.434 119.666 72.6303 120.477 73.023C121.3 73.403 122.003 73.9223 122.586 74.581C123.181 75.2397 123.637 75.9807 123.954 76.804C124.271 77.6147 124.429 78.4443 124.429 79.293C124.429 80.1797 124.258 81.0347 123.916 81.858C123.587 82.6687 123.118 83.397 122.51 84.043C121.915 84.6763 121.205 85.183 120.382 85.563C119.571 85.9303 118.678 86.114 117.703 86.114ZM114.188 79.274C114.188 79.9707 114.321 80.6293 114.587 81.25C114.853 81.858 115.252 82.3583 115.784 82.751C116.316 83.1437 116.962 83.34 117.722 83.34C118.507 83.34 119.16 83.1373 119.679 82.732C120.211 82.3267 120.604 81.8137 120.857 81.193C121.123 80.5597 121.256 79.9073 121.256 79.236C121.256 78.5393 121.117 77.887 120.838 77.279C120.572 76.6583 120.173 76.158 119.641 75.778C119.122 75.398 118.482 75.208 117.722 75.208C116.937 75.208 116.278 75.4107 115.746 75.816C115.227 76.2087 114.834 76.7153 114.568 77.336C114.315 77.9567 114.188 78.6027 114.188 79.274ZM126.23 86V72.51H135.388V75.246H129.346V78.153H134.324V80.68H129.346V86H126.23ZM137.047 86V72.51H146.205V75.246H140.163V78.153H145.141V80.68H140.163V86H137.047ZM157.345 83.264V86H147.864V72.51H157.174V75.246H150.98V77.868H156.3V80.395H150.98V83.264H157.345ZM159.238 86V72.51H165.318C165.952 72.51 166.534 72.643 167.066 72.909C167.611 73.1623 168.08 73.5107 168.472 73.954C168.865 74.3847 169.169 74.8723 169.384 75.417C169.612 75.9617 169.726 76.5127 169.726 77.07C169.726 77.906 169.524 78.6787 169.118 79.388C168.726 80.0847 168.194 80.6167 167.522 80.984L170.486 86H167.047L164.463 81.649H162.354V86H159.238ZM162.354 78.932H165.204C165.572 78.932 165.888 78.761 166.154 78.419C166.42 78.0643 166.553 77.6147 166.553 77.07C166.553 76.5253 166.401 76.0883 166.097 75.759C165.793 75.417 165.464 75.246 165.109 75.246H162.354V78.932Z" fill="white"/>
<path d="M226.199 181.7L220.77 181.042L223.506 158.457L228.936 159.115L226.199 181.7ZM242.36 177.567C242.457 176.771 242.248 176.116 241.733 175.602C241.228 175.09 240.296 174.51 238.937 173.863C237.578 173.216 236.476 172.615 235.63 172.061C232.878 170.269 231.654 168.117 231.958 165.604C232.11 164.353 232.605 163.295 233.444 162.432C234.295 161.559 235.419 160.94 236.817 160.574C238.216 160.198 239.748 160.111 241.413 160.312C243.037 160.509 244.455 160.975 245.667 161.709C246.889 162.445 247.792 163.394 248.375 164.556C248.96 165.707 249.169 166.971 249.002 168.346L243.573 167.688C243.685 166.768 243.487 166.02 242.979 165.444C242.482 164.87 241.753 164.524 240.791 164.408C239.819 164.29 239.022 164.414 238.401 164.779C237.791 165.136 237.446 165.645 237.366 166.307C237.296 166.886 237.542 167.451 238.105 168.001C238.669 168.542 239.701 169.16 241.201 169.856C242.703 170.542 243.92 171.235 244.853 171.935C247.123 173.637 248.108 175.724 247.809 178.196C247.569 180.171 246.637 181.632 245.011 182.579C243.386 183.525 241.275 183.841 238.679 183.527C236.849 183.305 235.229 182.778 233.819 181.946C232.42 181.105 231.412 180.071 230.795 178.842C230.19 177.603 229.977 176.24 230.157 174.751L235.618 175.412C235.471 176.622 235.673 177.554 236.223 178.209C236.785 178.854 237.769 179.262 239.176 179.432C240.075 179.541 240.807 179.435 241.37 179.116C241.945 178.786 242.275 178.27 242.36 177.567ZM278.218 177.017C277.951 179.219 277.307 181.119 276.284 182.716C275.262 184.313 273.94 185.48 272.319 186.218C270.709 186.946 268.942 187.194 267.019 186.961C265.096 186.728 263.443 186.081 262.06 185.022C260.679 183.952 259.669 182.544 259.03 180.799C258.402 179.054 258.197 177.114 258.413 174.979L258.567 173.707C258.836 171.494 259.475 169.594 260.486 168.006C261.508 166.409 262.83 165.242 264.451 164.504C266.083 163.768 267.866 163.517 269.8 163.752C271.713 163.983 273.364 164.645 274.753 165.737C276.142 166.828 277.148 168.267 277.771 170.053C278.406 171.83 278.597 173.805 278.344 175.977L278.218 177.017ZM272.795 175.4C273.067 173.156 272.896 171.409 272.281 170.159C271.678 168.9 270.679 168.186 269.283 168.017C266.553 167.686 264.862 169.559 264.211 173.635L263.994 175.293C263.726 177.506 263.887 179.252 264.477 180.53C265.067 181.808 266.086 182.535 267.534 182.71C268.909 182.877 270.04 182.421 270.926 181.343C271.812 180.265 272.393 178.63 272.669 176.439L272.795 175.4ZM298.576 190.469L293.163 189.813L286.861 174.79L285.159 188.844L279.714 188.184L282.45 165.599L287.895 166.259L294.181 181.28L295.883 167.227L301.312 167.884L298.576 190.469ZM317.186 183.013L308.624 181.976L307.972 187.358L318.085 188.583L317.578 192.772L302.02 190.887L304.756 168.302L320.345 170.19L319.836 174.394L309.691 173.165L309.114 177.927L317.677 178.964L317.186 183.013ZM340.083 189.407C340.18 188.611 339.971 187.956 339.456 187.442C338.951 186.93 338.019 186.35 336.66 185.703C335.301 185.056 334.199 184.455 333.353 183.901C330.601 182.11 329.377 179.957 329.681 177.444C329.833 176.193 330.328 175.135 331.167 174.272C332.018 173.399 333.142 172.78 334.54 172.414C335.939 172.038 337.471 171.951 339.136 172.152C340.76 172.349 342.178 172.815 343.39 173.549C344.612 174.285 345.515 175.234 346.098 176.396C346.683 177.547 346.892 178.811 346.725 180.186L341.296 179.528C341.407 178.608 341.21 177.86 340.702 177.284C340.205 176.71 339.476 176.364 338.514 176.248C337.542 176.13 336.745 176.254 336.124 176.619C335.514 176.976 335.169 177.485 335.089 178.147C335.019 178.726 335.265 179.291 335.828 179.842C336.392 180.382 337.424 181 338.924 181.696C340.426 182.382 341.643 183.075 342.576 183.776C344.846 185.478 345.831 187.564 345.532 190.036C345.292 192.011 344.36 193.472 342.734 194.419C341.108 195.365 338.998 195.682 336.402 195.367C334.572 195.145 332.952 194.619 331.541 193.787C330.143 192.946 329.135 191.911 328.518 190.682C327.912 189.444 327.7 188.08 327.88 186.591L333.34 187.252C333.194 188.462 333.396 189.394 333.946 190.049C334.508 190.694 335.492 191.102 336.898 191.272C337.798 191.381 338.53 191.276 339.093 190.956C339.668 190.627 339.998 190.11 340.083 189.407ZM367.549 180.175L360.771 179.354L358.544 197.735L353.099 197.075L355.326 178.694L348.672 177.888L349.181 173.684L368.059 175.971L367.549 180.175ZM382.8 190.963L374.238 189.925L373.586 195.308L383.699 196.533L383.192 200.721L367.634 198.836L370.37 176.252L385.959 178.14L385.45 182.344L375.305 181.115L374.728 185.877L383.291 186.914L382.8 190.963ZM391.783 193.987L390.854 201.65L385.41 200.99L388.146 178.405L397.158 179.497C398.885 179.706 400.372 180.212 401.618 181.013C402.875 181.806 403.795 182.835 404.376 184.102C404.968 185.359 405.174 186.733 404.994 188.222C404.727 190.424 403.722 192.092 401.98 193.224C400.249 194.347 398.008 194.741 395.257 194.408L391.783 193.987ZM392.292 189.783L395.86 190.216C396.915 190.343 397.748 190.177 398.36 189.716C398.982 189.256 399.352 188.545 399.468 187.584C399.596 186.529 399.414 185.652 398.921 184.952C398.429 184.252 397.692 183.838 396.711 183.708L393.081 183.269L392.292 189.783ZM427.352 201.791L419.891 200.887L418.077 204.948L412.26 204.243L423.28 182.662L428.399 183.282L434.008 206.878L428.16 206.17L427.352 201.791ZM421.704 196.841L426.559 197.429L425.072 189.301L421.704 196.841ZM453.564 200.701L457.871 186.853L463.269 187.507L455.739 209.511L450.093 208.827L448.628 195.586L444.106 208.102L438.475 207.419L436.403 184.252L441.816 184.908L442.691 199.384L447.509 185.598L452.131 186.158L453.564 200.701ZM475.314 207.602L467.853 206.698L466.039 210.759L460.222 210.054L471.242 188.473L476.36 189.093L481.969 212.689L476.121 211.981L475.314 207.602ZM469.665 202.652L474.52 203.24L473.034 195.112L469.665 202.652ZM491.119 200.829L496.463 191.529L502.342 192.241L493.314 205.832L492.331 213.945L486.809 213.276L487.792 205.163L482.286 189.811L488.134 190.52L491.119 200.829ZM507.065 208.474L502.83 207.961L504.033 192.446L509.602 193.121L507.065 208.474ZM501.425 212.67C501.518 211.905 501.868 211.312 502.475 210.893C503.093 210.464 503.816 210.3 504.644 210.4C505.471 210.5 506.128 210.832 506.616 211.394C507.116 211.948 507.319 212.608 507.227 213.373C507.134 214.138 506.778 214.735 506.16 215.164C505.553 215.583 504.836 215.743 504.008 215.643C503.181 215.543 502.518 215.216 502.018 214.662C501.53 214.099 501.333 213.435 501.425 212.67Z" fill="black"/>
<rect x="390" y="79" width="132" height="87" rx="4" fill="#F2001B"/>
<path d="M417.812 129.953C417.812 128.719 417.508 127.75 416.898 127.047C416.289 126.344 415.219 125.68 413.688 125.055C412.156 124.43 410.742 123.797 409.445 123.156C408.148 122.516 407.031 121.773 406.094 120.93C405.156 120.086 404.438 119.109 403.938 118C403.438 116.891 403.188 115.547 403.188 113.969C403.188 111.328 404.078 109.156 405.859 107.453C407.641 105.734 410.016 104.734 412.984 104.453V99.5078H416.711V104.547C419.57 104.969 421.812 106.148 423.438 108.086C425.078 110.008 425.898 112.453 425.898 115.422H417.977C417.977 113.797 417.664 112.547 417.039 111.672C416.414 110.797 415.523 110.359 414.367 110.359C413.336 110.359 412.531 110.688 411.953 111.344C411.391 111.984 411.109 112.875 411.109 114.016C411.109 115.172 411.438 116.094 412.094 116.781C412.75 117.453 413.805 118.102 415.258 118.727C416.711 119.336 418.078 119.977 419.359 120.648C420.656 121.305 421.773 122.055 422.711 122.898C423.648 123.742 424.383 124.727 424.914 125.852C425.445 126.977 425.711 128.328 425.711 129.906C425.711 132.578 424.859 134.758 423.156 136.445C421.469 138.133 419.164 139.117 416.242 139.398V144.109H412.516V139.375C409.109 139.016 406.492 137.852 404.664 135.883C402.852 133.898 401.945 131.289 401.945 128.055H409.844C409.844 129.836 410.234 131.195 411.016 132.133C411.812 133.055 412.938 133.516 414.391 133.516C415.453 133.516 416.289 133.203 416.898 132.578C417.508 131.938 417.812 131.062 417.812 129.953ZM453.602 109.094L440.852 139H432.508L445.281 110.969H429.016V104.875H453.602V109.094ZM481.375 125.055C481.375 129.664 480.336 133.219 478.258 135.719C476.195 138.219 473.281 139.469 469.516 139.469C465.719 139.469 462.781 138.211 460.703 135.695C458.625 133.18 457.586 129.633 457.586 125.055V118.82C457.586 114.211 458.617 110.656 460.68 108.156C462.758 105.656 465.688 104.406 469.469 104.406C473.25 104.406 476.18 105.664 478.258 108.18C480.336 110.695 481.375 114.25 481.375 118.844V125.055ZM473.477 117.812C473.477 115.359 473.156 113.531 472.516 112.328C471.875 111.109 470.859 110.5 469.469 110.5C468.109 110.5 467.117 111.062 466.492 112.188C465.883 113.312 465.555 115.016 465.508 117.297V126.016C465.508 128.562 465.828 130.43 466.469 131.617C467.109 132.789 468.125 133.375 469.516 133.375C470.859 133.375 471.852 132.805 472.492 131.664C473.133 130.508 473.461 128.703 473.477 126.25V117.812ZM509.172 125.055C509.172 129.664 508.133 133.219 506.055 135.719C503.992 138.219 501.078 139.469 497.312 139.469C493.516 139.469 490.578 138.211 488.5 135.695C486.422 133.18 485.383 129.633 485.383 125.055V118.82C485.383 114.211 486.414 110.656 488.477 108.156C490.555 105.656 493.484 104.406 497.266 104.406C501.047 104.406 503.977 105.664 506.055 108.18C508.133 110.695 509.172 114.25 509.172 118.844V125.055ZM501.273 117.812C501.273 115.359 500.953 113.531 500.312 112.328C499.672 111.109 498.656 110.5 497.266 110.5C495.906 110.5 494.914 111.062 494.289 112.188C493.68 113.312 493.352 115.016 493.305 117.297V126.016C493.305 128.562 493.625 130.43 494.266 131.617C494.906 132.789 495.922 133.375 497.312 133.375C498.656 133.375 499.648 132.805 500.289 131.664C500.93 130.508 501.258 128.703 501.273 126.25V117.812Z" fill="white"/>
<path d="M240.984 123.938H232.141V133H226.656V110.25H241.875V114.484H232.141V119.719H240.984V123.938ZM263.422 122.094C263.422 124.312 263.01 126.276 262.188 127.984C261.365 129.693 260.193 131.01 258.672 131.938C257.161 132.854 255.438 133.312 253.5 133.312C251.562 133.312 249.844 132.87 248.344 131.984C246.844 131.089 245.672 129.812 244.828 128.156C243.995 126.5 243.557 124.599 243.516 122.453V121.172C243.516 118.943 243.922 116.979 244.734 115.281C245.557 113.573 246.729 112.255 248.25 111.328C249.781 110.401 251.521 109.938 253.469 109.938C255.396 109.938 257.115 110.396 258.625 111.312C260.135 112.229 261.307 113.536 262.141 115.234C262.984 116.922 263.411 118.859 263.422 121.047V122.094ZM257.844 121.141C257.844 118.88 257.464 117.167 256.703 116C255.953 114.823 254.875 114.234 253.469 114.234C250.719 114.234 249.266 116.297 249.109 120.422L249.094 122.094C249.094 124.323 249.464 126.036 250.203 127.234C250.943 128.432 252.042 129.031 253.5 129.031C254.885 129.031 255.953 128.443 256.703 127.266C257.453 126.089 257.833 124.396 257.844 122.188V121.141ZM274.703 124.969H271.734V133H266.25V110.25H275.203C277.901 110.25 280.01 110.849 281.531 112.047C283.052 113.245 283.812 114.938 283.812 117.125C283.812 118.708 283.49 120.021 282.844 121.062C282.208 122.104 281.208 122.948 279.844 123.594L284.594 132.766V133H278.719L274.703 124.969ZM271.734 120.734H275.203C276.245 120.734 277.026 120.464 277.547 119.922C278.078 119.37 278.344 118.604 278.344 117.625C278.344 116.646 278.078 115.88 277.547 115.328C277.016 114.766 276.234 114.484 275.203 114.484H271.734V120.734ZM314.359 122.094C314.359 124.312 313.948 126.276 313.125 127.984C312.302 129.693 311.13 131.01 309.609 131.938C308.099 132.854 306.375 133.312 304.438 133.312C302.5 133.312 300.781 132.87 299.281 131.984C297.781 131.089 296.609 129.812 295.766 128.156C294.932 126.5 294.495 124.599 294.453 122.453V121.172C294.453 118.943 294.859 116.979 295.672 115.281C296.495 113.573 297.667 112.255 299.188 111.328C300.719 110.401 302.458 109.938 304.406 109.938C306.333 109.938 308.052 110.396 309.562 111.312C311.073 112.229 312.245 113.536 313.078 115.234C313.922 116.922 314.349 118.859 314.359 121.047V122.094ZM308.781 121.141C308.781 118.88 308.401 117.167 307.641 116C306.891 114.823 305.812 114.234 304.406 114.234C301.656 114.234 300.203 116.297 300.047 120.422L300.031 122.094C300.031 124.323 300.401 126.036 301.141 127.234C301.88 128.432 302.979 129.031 304.438 129.031C305.823 129.031 306.891 128.443 307.641 127.266C308.391 126.089 308.771 124.396 308.781 122.188V121.141ZM336.188 133H330.734L322.672 118.844V133H317.188V110.25H322.672L330.719 124.406V110.25H336.188V133ZM345.141 128.781H354.688V133H339.656V110.25H345.141V128.781ZM360.953 120.125L365.141 110.25H371.062L363.734 124.828V133H358.172V124.828L350.859 110.25H356.75L360.953 120.125Z" fill="#F2001B"/>
<path d="M228.26 74.4145L231.214 64.1032L237.092 63.3823L231.593 78.7441L232.588 86.8552L227.066 87.5323L226.072 79.4213L217.039 65.8418L222.886 65.1247L228.26 74.4145ZM258.834 72.648C259.105 74.8502 258.935 76.8493 258.326 78.6451C257.718 80.4409 256.715 81.8915 255.318 82.9968C253.931 84.0905 252.275 84.7553 250.352 84.9912C248.429 85.227 246.669 84.9969 245.073 84.3006C243.475 83.5941 242.156 82.4702 241.117 80.929C240.088 79.3865 239.423 77.5529 239.12 75.4281L238.964 74.1563C238.693 71.9437 238.857 69.9454 239.457 68.1612C240.065 66.3653 241.068 64.9148 242.465 63.8094C243.872 62.7028 245.542 62.031 247.475 61.7938C249.388 61.5592 251.15 61.8049 252.761 62.5309C254.372 63.2569 255.694 64.4118 256.728 65.9956C257.771 67.5678 258.43 69.4389 258.707 71.6089L258.834 72.648ZM253.182 72.381C252.907 70.1374 252.321 68.4829 251.424 67.4175C250.536 66.3405 249.394 65.8876 247.999 66.0588C245.269 66.3935 244.078 68.6176 244.425 72.7309L244.613 74.3923C244.884 76.6049 245.46 78.2606 246.34 79.3596C247.22 80.4586 248.383 80.9193 249.831 80.7418C251.206 80.5731 252.194 79.859 252.795 78.5993C253.396 77.3397 253.568 75.6133 253.309 73.4201L253.182 72.381ZM277.911 58.3758L279.724 73.1556C279.929 74.8306 279.75 76.327 279.188 77.6449C278.624 78.9524 277.715 80.0085 276.46 80.8131C275.204 81.6177 273.667 82.1316 271.847 82.3548C269.097 82.6921 266.844 82.2444 265.087 81.0116C263.33 79.7788 262.284 77.9236 261.948 75.446L260.122 60.5576L265.597 59.8861L267.436 74.8831C267.801 77.3465 269.1 78.4413 271.334 78.1674C272.461 78.0292 273.276 77.6144 273.779 76.923C274.281 76.2317 274.447 75.1881 274.276 73.7923L272.467 59.0434L277.911 58.3758ZM291.505 71.5375L288.558 71.8989L289.536 79.8704L284.092 80.5381L281.323 57.9573L290.209 56.8674C292.887 56.5389 295.054 56.8766 296.709 57.8805C298.364 58.8844 299.325 60.4719 299.592 62.6431C299.784 64.2147 299.624 65.5567 299.109 66.6693C298.605 67.7806 297.716 68.7398 296.44 69.5469L302.271 78.0723L302.3 78.3049L296.468 79.0202L291.505 71.5375ZM288.043 67.696L291.486 67.2738C292.519 67.1469 293.262 66.783 293.713 66.182C294.173 65.5693 294.344 64.7771 294.224 63.8052C294.105 62.8333 293.748 62.1057 293.154 61.6224C292.558 61.1287 291.748 60.9447 290.725 61.0702L287.282 61.4925L288.043 67.696ZM312.721 77.0267L309.952 54.4459L318.063 53.4511C320.968 53.0947 323.241 53.3565 324.881 54.2363C326.532 55.1148 327.481 56.5673 327.73 58.5938C327.873 59.7621 327.727 60.7928 327.29 61.6859C326.854 62.5789 326.138 63.286 325.142 63.8069C326.359 63.9725 327.334 64.4406 328.069 65.211C328.804 65.9815 329.246 66.9767 329.396 68.1968C329.667 70.4094 329.168 72.1602 327.899 73.4493C326.639 74.7268 324.635 75.5445 321.887 75.9025L312.721 77.0267ZM316.988 66.7591L317.651 72.1717L321.218 71.7342C322.201 71.6137 322.928 71.2988 323.401 70.7896C323.872 70.27 324.058 69.6018 323.958 68.785C323.727 66.9032 322.675 66.072 320.803 66.2912L316.988 66.7591ZM316.55 63.1921L319.388 62.844C320.576 62.6878 321.397 62.3667 321.852 61.8807C322.306 61.3946 322.483 60.738 322.382 59.9109C322.265 58.9597 321.907 58.3109 321.308 57.9645C320.709 57.6078 319.799 57.5043 318.578 57.654L315.911 57.9811L316.55 63.1921ZM340.637 65.5114L337.69 65.8729L338.668 73.8444L333.224 74.512L330.455 51.9312L339.341 50.8413C342.019 50.5129 344.185 50.8506 345.841 51.8544C347.496 52.8583 348.457 54.4458 348.723 56.6171C348.916 58.1886 348.755 59.5307 348.241 60.6432C347.737 61.7545 346.847 62.7137 345.572 63.5209L351.403 72.0463L351.431 72.2789L345.6 72.9941L340.637 65.5114ZM337.174 61.67L340.617 61.2477C341.651 61.1209 342.394 60.757 342.845 60.1559C343.305 59.5433 343.475 58.751 343.356 57.7791C343.237 56.8072 342.88 56.0796 342.286 55.5963C341.69 55.1027 340.88 54.9186 339.857 55.0442L336.414 55.4665L337.174 61.67ZM366.252 66.1793L358.792 67.0942L358.007 71.4724L352.191 72.1857L357.703 48.5891L362.821 47.9614L373.935 69.5189L368.088 70.236L366.252 66.1793ZM359.58 62.7315L364.434 62.1362L361.038 54.6029L359.58 62.7315ZM394.453 67.0023L389.04 67.6661L379.314 54.5967L381.038 68.6477L375.594 69.3153L372.825 46.7345L378.268 46.0669L387.978 59.1382L386.255 45.0873L391.683 44.4215L394.453 67.0023ZM397.896 66.58L395.126 43.9992L402.4 43.1071C404.395 42.8624 406.245 43.0973 407.949 43.8118C409.651 44.516 411.049 45.6408 412.141 47.186C413.242 48.7196 413.923 50.5093 414.184 52.5552L414.312 53.5943C414.566 55.6622 414.354 57.5719 413.677 59.3236C413.008 61.0638 411.935 62.4967 410.457 63.6225C408.988 64.7368 407.277 65.4189 405.324 65.6689L397.896 66.58ZM401.085 47.5344L402.826 61.725L404.718 61.4929C406.279 61.3014 407.41 60.6012 408.112 59.3922C408.813 58.1728 409.029 56.4672 408.76 54.2753L408.64 53.2982C408.372 51.1167 407.752 49.5241 406.779 48.5205C405.806 47.5169 404.518 47.1134 402.915 47.31L401.085 47.5344ZM445.197 60.7784L439.785 61.4423L430.059 48.3728L431.782 62.4238L426.339 63.0914L423.569 40.5107L429.013 39.843L438.723 52.9143L437 38.8634L442.428 38.1976L445.197 60.7784ZM461.471 49.0696L452.91 50.1196L453.57 55.5011L463.682 54.2609L464.196 58.4483L448.64 60.3561L445.871 37.7753L461.457 35.8637L461.973 40.0665L451.83 41.3106L452.414 46.0718L460.975 45.0218L461.471 49.0696ZM482.875 47.6093L483.728 33.1322L489.125 32.4702L487.102 55.6388L481.457 56.3312L476.854 43.8298L475.471 57.0654L469.841 57.7559L462.264 35.7648L467.676 35.1009L472.003 48.9428L473.368 34.4028L477.99 33.836L482.875 47.6093ZM518.39 43.2534L519.243 28.7762L524.64 28.1142L522.617 51.2828L516.972 51.9752L512.369 39.4738L510.986 52.7094L505.356 53.3999L497.779 31.4088L503.191 30.7449L507.518 44.5868L508.883 30.0468L513.505 29.48L518.39 43.2534ZM542.365 39.1479L533.804 40.1979L534.464 45.5794L544.576 44.3392L545.09 48.5266L529.534 50.4344L526.765 27.8537L542.351 25.942L542.867 30.1449L532.724 31.3889L533.308 36.1501L541.869 35.1001L542.365 39.1479ZM547.307 48.2546L544.538 25.6738L552.649 24.6789C555.554 24.3226 557.827 24.5843 559.467 25.4641C561.118 26.3426 562.067 27.7951 562.316 29.8216C562.459 30.99 562.312 32.0207 561.876 32.9137C561.44 33.8068 560.724 34.5138 559.728 35.0348C560.945 35.2004 561.92 35.6685 562.655 36.4389C563.39 37.2094 563.832 38.2046 563.981 39.4246C564.253 41.6372 563.754 43.3881 562.485 44.6772C561.225 45.9546 559.221 46.7724 556.473 47.1304L547.307 48.2546ZM551.573 37.987L552.237 43.3995L555.804 42.962C556.787 42.8416 557.514 42.5267 557.987 42.0174C558.458 41.4978 558.644 40.8296 558.544 40.0129C558.313 38.1311 557.261 37.2998 555.389 37.519L551.573 37.987ZM551.136 34.4199L553.974 34.0719C555.162 33.9157 555.983 33.5946 556.438 33.1085C556.892 32.6225 557.069 31.9659 556.967 31.1388C556.851 30.1876 556.493 29.5388 555.894 29.1924C555.294 28.8357 554.384 28.7322 553.164 28.8818L550.497 29.209L551.136 34.4199ZM578.721 38.3095C578.623 37.5134 578.263 36.9279 577.64 36.553C577.027 36.1769 575.983 35.8379 574.508 35.5361C573.033 35.2342 571.819 34.9161 570.865 34.5819C567.763 33.5036 566.057 31.7083 565.749 29.1958C565.596 27.9448 565.823 26.7993 566.43 25.7593C567.046 24.7077 567.989 23.8365 569.258 23.1456C570.525 22.4444 571.992 21.9917 573.656 21.7875C575.28 21.5884 576.768 21.6998 578.121 22.1215C579.484 22.542 580.589 23.2461 581.434 24.2339C582.278 25.2113 582.784 26.3876 582.953 27.7627L577.525 28.4285C577.412 27.5083 577.04 26.8298 576.409 26.3929C575.789 25.9547 574.998 25.7946 574.036 25.9126C573.064 26.0318 572.321 26.3434 571.805 26.8474C571.299 27.3398 571.086 27.9168 571.168 28.5785C571.239 29.1575 571.613 29.6468 572.292 30.0463C572.97 30.4354 574.12 30.7876 575.743 31.1027C577.365 31.4075 578.713 31.7879 579.787 32.2439C582.4 33.3508 583.858 35.1397 584.161 37.6108C584.403 39.5856 583.849 41.2278 582.498 42.5373C581.147 43.8469 579.175 44.6609 576.579 44.9792C574.749 45.2036 573.05 45.0815 571.481 44.6127C569.922 44.1323 568.695 43.3698 567.8 42.325C566.915 41.2687 566.381 39.9961 566.199 38.5073L571.658 37.8377C571.806 39.0474 572.226 39.9037 572.917 40.4066C573.618 40.8979 574.671 41.0573 576.077 40.8848C576.977 40.7745 577.662 40.4964 578.132 40.0504C578.611 39.5929 578.807 39.0125 578.721 38.3095ZM593.492 42.5899L588.064 43.2557L585.295 20.6749L590.723 20.0091L593.492 42.5899ZM612.284 21.6308L605.507 22.462L607.761 40.8399L602.317 41.5076L600.063 23.1297L593.41 23.9457L592.894 19.7428L611.768 17.4279L612.284 21.6308ZM629.68 28.4387L621.119 29.4887L621.779 34.8702L631.89 33.63L632.404 37.8174L616.849 39.7253L614.079 17.1445L629.666 15.2328L630.181 19.4357L620.038 20.6797L620.622 25.4409L629.183 24.3909L629.68 28.4387Z" fill="black"/>
<defs>
<linearGradient id="paint0_linear" x1="147.849" y1="206.632" x2="51.7777" y2="39.9307" gradientUnits="userSpaceOnUse">
<stop/>
<stop offset="1" stop-color="#414042"/>
</linearGradient>
<linearGradient id="paint1_linear" x1="147.849" y1="206.632" x2="51.7777" y2="39.9307" gradientUnits="userSpaceOnUse">
<stop/>
<stop offset="1" stop-color="#414042"/>
</linearGradient>
</defs>
</svg>
