<svg width="500" height="297" viewBox="0 0 500 297" fill="none" xmlns="http://www.w3.org/2000/svg">
<g clip-path="url(#clip0)">
<path d="M458.333 47.0207V112.863C458.299 142.59 446.475 171.09 425.455 192.11C404.435 213.13 375.935 224.954 346.208 224.988H77.0739L103.417 151.253L58.6401 153.323L104.728 49.8225L105.974 47.0237L458.333 47.0207Z" fill="#F7F7F7"/>
<path d="M446.41 58.9459V112.871C446.41 139.444 435.854 164.929 417.064 183.719C398.274 202.509 372.789 213.065 346.216 213.065H87.2484L111.751 144.439L74.0166 146.188L112.863 58.9459H446.41Z" fill="url(#paint0_linear)"/>
<path style="mix-blend-mode:screen" d="M207.554 213.065C210.428 205.007 213.868 197.162 217.847 189.589C227.364 160.187 244.344 133.757 267.13 112.88C288.007 90.0948 314.437 73.1144 343.838 63.5973C346.99 61.9424 350.172 60.403 353.377 58.9474H112.863L74.0166 146.188L111.751 144.439L87.2483 213.065H207.554Z" fill="url(#paint1_linear)"/>
<path d="M161.335 43.9786L159.342 47.0207L157.517 49.8195L106.762 127.663H153.623L85.0884 224.988L79.6749 232.67L63.4604 255.682L71.6741 232.67L74.4121 224.988L100.755 151.253L55.9783 153.32L102.064 49.8195L103.311 47.0207L104.665 43.9786H161.335Z" fill="#F2001B"/>
<g style="mix-blend-mode:multiply">
<g style="mix-blend-mode:multiply">
<path d="M83.2889 137.097L125.591 139.705L63.4679 255.694L100.745 151.25L55.9736 153.319L104.657 43.9907H128.165L83.2889 137.097Z" fill="#E00E26"/>
</g>
</g>
<path d="M370.818 162.089C370.057 162.158 369.291 162.052 368.577 161.781C367.863 161.51 367.22 161.079 366.697 160.523C365.744 159.171 365.288 157.53 365.407 155.88V154.58C365.275 152.942 365.717 151.308 366.657 149.96C367.198 149.421 367.852 149.008 368.571 148.752C369.29 148.495 370.057 148.401 370.818 148.476C371.576 148.402 372.342 148.493 373.062 148.743C373.782 148.993 374.44 149.396 374.99 149.924C375.941 151.236 376.39 152.846 376.257 154.461V155.955C376.38 157.593 375.923 159.223 374.967 160.559C374.433 161.107 373.783 161.529 373.065 161.793C372.347 162.058 371.579 162.159 370.818 162.089ZM370.818 159.221C371.095 159.227 371.37 159.167 371.619 159.044C371.828 158.937 372.008 158.781 372.142 158.588C372.287 158.365 372.39 158.117 372.447 157.858C372.52 157.558 372.568 157.253 372.59 156.945C372.609 156.641 372.618 156.278 372.618 155.857V154.54C372.618 154.096 372.609 153.736 372.59 153.453C372.568 153.167 372.525 152.883 372.462 152.604C372.415 152.361 372.316 152.131 372.17 151.932C372.027 151.76 371.845 151.625 371.639 151.539C371.38 151.434 371.102 151.382 370.822 151.387C370.542 151.378 370.262 151.43 370.004 151.539C369.801 151.627 369.622 151.762 369.48 151.932C369.336 152.134 369.239 152.365 369.196 152.61C369.133 152.892 369.09 153.179 369.068 153.468C369.047 153.745 369.039 154.104 369.039 154.548V155.892C369.034 156.337 369.054 156.781 369.099 157.223C369.136 157.574 369.216 157.918 369.338 158.249C369.433 158.548 369.625 158.806 369.885 158.982C370.167 159.149 370.49 159.232 370.818 159.221ZM374.053 173.085L381.066 148.579H384.017L377.005 173.085H374.053ZM387.225 173.188C386.465 173.257 385.698 173.152 384.984 172.881C384.27 172.609 383.627 172.179 383.105 171.622C382.152 170.27 381.696 168.63 381.815 166.981V165.681C381.683 164.042 382.125 162.409 383.065 161.061C383.606 160.522 384.259 160.109 384.979 159.852C385.698 159.596 386.465 159.501 387.225 159.576C387.984 159.503 388.749 159.593 389.469 159.842C390.189 160.091 390.848 160.491 391.399 161.017C392.349 162.327 392.798 163.934 392.665 165.547V167.056C392.787 168.694 392.331 170.324 391.375 171.66C390.841 172.207 390.191 172.629 389.473 172.893C388.755 173.158 387.987 173.259 387.225 173.188ZM387.225 170.306C387.505 170.315 387.782 170.254 388.033 170.13C388.241 170.02 388.421 169.864 388.559 169.673C388.706 169.452 388.81 169.204 388.863 168.943C388.93 168.646 388.975 168.345 388.997 168.041C389.018 167.746 389.027 167.386 389.026 166.961V165.644C389.026 165.2 389.017 164.837 388.997 164.556C388.976 164.268 388.933 163.982 388.87 163.7C388.825 163.457 388.728 163.227 388.585 163.026C388.443 162.857 388.263 162.723 388.06 162.635C387.798 162.525 387.514 162.474 387.23 162.483C386.95 162.474 386.671 162.526 386.413 162.635C386.208 162.723 386.028 162.86 385.888 163.034C385.745 163.24 385.648 163.474 385.604 163.721C385.54 164.004 385.498 164.291 385.476 164.579C385.456 164.855 385.446 165.215 385.447 165.659V166.989C385.442 167.436 385.462 167.882 385.506 168.327C385.543 168.678 385.623 169.022 385.745 169.352C385.842 169.648 386.035 169.904 386.293 170.078C386.575 170.242 386.899 170.321 387.225 170.306Z" fill="#F2001B"/>
<path d="M376.083 184.742C376.184 186.253 375.697 187.744 374.724 188.904C373.64 189.842 372.256 190.358 370.823 190.358C369.39 190.358 368.005 189.842 366.922 188.904C365.944 187.741 365.453 186.245 365.553 184.729C365.45 183.217 365.941 181.725 366.922 180.57C367.438 180.071 368.052 179.685 368.726 179.438C369.4 179.191 370.118 179.087 370.834 179.134C371.549 179.086 372.267 179.19 372.939 179.44C373.611 179.689 374.222 180.078 374.733 180.581C375.7 181.743 376.184 183.233 376.083 184.742ZM368.022 184.742C367.953 185.711 368.2 186.677 368.725 187.494C368.974 187.806 369.295 188.054 369.661 188.214C370.027 188.375 370.426 188.445 370.825 188.417C372.695 188.417 373.63 187.192 373.63 184.742C373.63 182.293 372.7 181.065 370.84 181.06C370.44 181.033 370.039 181.104 369.672 181.265C369.305 181.427 368.983 181.675 368.732 181.988C368.201 182.804 367.951 183.771 368.019 184.742H368.022Z" fill="#F2001B"/>
<path d="M380.371 190.208H378.065V179.306H384.399V181.2H380.371V184.012H384.121V185.899H380.371V190.208Z" fill="#F2001B"/>
<path d="M388.559 190.208H386.253V179.306H392.587V181.2H388.559V184.012H392.307V185.899H388.559V190.208Z" fill="#F2001B"/>
<path d="M298.006 182.001H305.656C306.462 181.985 307.256 182.174 307.953 182.545C308.619 182.916 309.146 183.464 309.464 184.115C309.832 184.879 310.012 185.708 309.99 186.542C310.071 187.732 309.654 188.906 308.822 189.824C308.413 190.219 307.915 190.528 307.363 190.731C306.81 190.933 306.217 191.023 305.622 190.995H298.006V188.68H305.244C305.957 188.734 306.668 188.553 307.248 188.169C307.48 187.946 307.657 187.68 307.767 187.389C307.876 187.098 307.915 186.789 307.881 186.483C307.912 186.181 307.87 185.878 307.759 185.593C307.648 185.307 307.47 185.048 307.239 184.832C306.655 184.446 305.939 184.263 305.22 184.318H298L298.006 182.001Z" fill="#F2001B"/>
<path d="M301.438 173.007C301.947 172.978 302.456 173.055 302.926 173.232C303.397 173.409 303.816 173.681 304.153 174.028C304.833 174.864 305.165 175.892 305.09 176.93V177.85H309V180H298.011V176.769C297.935 175.774 298.239 174.786 298.872 173.97C299.189 173.64 299.585 173.382 300.031 173.215C300.476 173.047 300.958 172.976 301.438 173.007V173.007ZM303.181 177.85V177.143C303.223 176.621 303.074 176.101 302.757 175.664C302.609 175.499 302.42 175.368 302.205 175.282C301.989 175.197 301.755 175.159 301.521 175.173C301.298 175.156 301.074 175.184 300.864 175.255C300.655 175.326 300.466 175.439 300.31 175.584C300.017 175.96 299.879 176.416 299.92 176.875V177.85H303.181Z" fill="#F2001B"/>
<path d="M309 162.877V165.123H299.941V168H298V160H299.941V162.877H309Z" fill="#F2001B"/>
<path d="M304.001 150.011C305.615 149.926 307.208 150.342 308.447 151.172C309.449 152.096 310 153.278 310 154.5C310 155.722 309.449 156.903 308.447 157.827C307.203 158.66 305.604 159.076 303.985 158.988C302.371 159.077 300.777 158.66 299.544 157.824C299.011 157.383 298.6 156.859 298.336 156.285C298.073 155.71 297.962 155.098 298.012 154.487C297.961 153.877 298.072 153.266 298.338 152.693C298.604 152.12 299.019 151.598 299.556 151.162C300.797 150.337 302.389 149.924 304.001 150.011V150.011ZM304.001 156.892C305.036 156.95 306.067 156.74 306.94 156.293C307.274 156.081 307.539 155.806 307.711 155.494C307.883 155.182 307.958 154.841 307.929 154.501C307.929 152.904 306.619 152.107 304.001 152.107C301.382 152.108 300.07 152.902 300.066 154.487C300.037 154.829 300.112 155.171 300.285 155.484C300.458 155.797 300.723 156.072 301.058 156.286C301.93 156.738 302.963 156.95 304.001 156.892Z" fill="#F2001B"/>
<path d="M415.476 36.2561H187.952C187.75 36.2561 187.557 36.176 187.414 36.0334C187.272 35.8907 187.191 35.6973 187.191 35.4956C187.191 35.2939 187.272 35.1004 187.414 34.9578C187.557 34.8152 187.75 34.735 187.952 34.735H415.476C415.678 34.735 415.871 34.8152 416.014 34.9578C416.156 35.1004 416.236 35.2939 416.236 35.4956C416.236 35.6973 416.156 35.8907 416.014 36.0334C415.871 36.176 415.678 36.2561 415.476 36.2561Z" fill="black"/>
<path d="M349.059 235.51C348.857 235.51 348.663 235.429 348.521 235.287C348.378 235.144 348.298 234.951 348.298 234.749C348.298 234.547 348.378 234.354 348.521 234.211C348.663 234.069 348.857 233.988 349.059 233.988C399.511 233.988 427.73 210.118 442.52 190.094C452.198 177.004 459.083 162.066 462.751 146.206C462.787 146.008 462.9 145.832 463.066 145.717C463.232 145.602 463.437 145.558 463.635 145.594C463.834 145.63 464.01 145.744 464.124 145.91C464.239 146.075 464.283 146.28 464.247 146.479C460.534 162.565 453.556 177.717 443.748 190.997C428.746 211.303 400.145 235.51 349.059 235.51Z" fill="black"/>
<path d="M389.673 24.8131H290.718C290.516 24.8131 290.323 24.733 290.18 24.5904C290.038 24.4477 289.958 24.2543 289.958 24.0526C289.958 23.8509 290.038 23.6574 290.18 23.5148C290.323 23.3722 290.516 23.2921 290.718 23.2921H389.673C389.874 23.2921 390.068 23.3722 390.21 23.5148C390.353 23.6574 390.433 23.8509 390.433 24.0526C390.433 24.2543 390.353 24.4477 390.21 24.5904C390.068 24.733 389.874 24.8131 389.673 24.8131Z" fill="black"/>
<path d="M39.8777 164.159C39.7512 164.16 39.6266 164.129 39.5151 164.069C39.4037 164.009 39.3089 163.922 39.2395 163.817C39.17 163.711 39.128 163.59 39.1172 163.463C39.1065 163.337 39.1274 163.211 39.178 163.095L68.46 94.1038C68.4972 94.0092 68.553 93.9231 68.6241 93.8505C68.6951 93.7779 68.78 93.7202 68.8737 93.681C68.9674 93.6417 69.068 93.6216 69.1696 93.6218C69.2712 93.6221 69.3717 93.6427 69.4652 93.6824C69.5587 93.7222 69.6433 93.7802 69.7139 93.8532C69.7846 93.9262 69.84 94.0125 69.8767 94.1073C69.9135 94.202 69.9309 94.3031 69.9279 94.4046C69.9249 94.5062 69.9016 94.6061 69.8594 94.6985L41.0489 162.587L78.5508 160.956C78.6512 160.949 78.752 160.963 78.847 160.996C78.942 161.029 79.0292 161.082 79.1034 161.15C79.1777 161.218 79.2373 161.3 79.2788 161.392C79.3203 161.483 79.3427 161.583 79.3448 161.683C79.3491 161.783 79.3336 161.883 79.2993 161.977C79.265 162.071 79.2125 162.157 79.1448 162.23C79.0771 162.304 78.9956 162.364 78.9049 162.406C78.8142 162.448 78.7161 162.472 78.6162 162.476L39.9112 164.159H39.8777Z" fill="black"/>
<path d="M152.498 236.856H90.1202C89.9184 236.856 89.725 236.776 89.5824 236.633C89.4397 236.49 89.3596 236.297 89.3596 236.095C89.3596 235.894 89.4397 235.7 89.5824 235.557C89.725 235.415 89.9184 235.335 90.1202 235.335H152.498C152.699 235.335 152.893 235.415 153.035 235.557C153.178 235.7 153.258 235.894 153.258 236.095C153.258 236.297 153.178 236.49 153.035 236.633C152.893 236.776 152.699 236.856 152.498 236.856Z" fill="black"/>
<path d="M197.375 236.856H178.97C178.768 236.856 178.575 236.776 178.432 236.633C178.29 236.49 178.209 236.297 178.209 236.095C178.209 235.894 178.29 235.7 178.432 235.557C178.575 235.415 178.768 235.335 178.97 235.335H197.375C197.577 235.335 197.77 235.415 197.913 235.557C198.055 235.7 198.135 235.894 198.135 236.095C198.135 236.297 198.055 236.49 197.913 236.633C197.77 236.776 197.577 236.856 197.375 236.856Z" fill="black"/>
<path d="M336.668 154.029L325.269 190.821H317.816L329.234 156.335H314.693V148.839H336.674L336.668 154.029Z" fill="#F2001B"/>
<path d="M340.734 170.314L342.599 148.839H360.432V156.393H348.342L347.65 164.733C348.25 164.277 348.917 163.918 349.627 163.668C350.393 163.372 351.206 163.217 352.026 163.212C353.414 163.159 354.792 163.473 356.019 164.124C357.246 164.775 358.279 165.738 359.014 166.917C360.816 170.073 361.665 173.684 361.457 177.312C361.492 179.81 361.047 182.291 360.147 184.621C359.417 186.609 358.142 188.353 356.469 189.653C354.849 190.838 352.882 191.456 350.875 191.411C348.958 191.411 347.084 190.844 345.487 189.783C343.793 188.68 342.431 187.136 341.548 185.317C340.574 183.324 340.092 181.126 340.144 178.908H347.226C347.223 180.202 347.592 181.469 348.29 182.558C348.564 182.979 348.941 183.324 349.384 183.56C349.828 183.797 350.324 183.916 350.826 183.909C353.2 183.909 354.387 181.493 354.388 176.66C354.388 172.19 352.935 169.955 350.029 169.955C349.269 169.927 348.517 170.118 347.863 170.506C347.208 170.894 346.679 171.462 346.339 172.142L340.734 170.314Z" fill="#F2001B"/>
<path d="M194.544 120.642C194.705 117.84 193.9 115.067 192.263 112.787C190.742 110.877 187.898 109.048 183.732 107.302C180.291 106.032 177.162 104.038 174.557 101.455C171.895 98.3759 170.519 94.3913 170.712 90.3254C170.537 86.274 171.886 82.3039 174.492 79.1973C175.697 77.8 177.198 76.6891 178.887 75.9457C180.575 75.2023 182.409 74.8452 184.253 74.9003C186.197 74.868 188.12 75.3049 189.859 76.174C191.599 77.043 193.103 78.3185 194.245 79.8924C196.954 83.6128 198.322 88.1425 198.123 92.7409H194.343C194.507 89.2943 193.556 85.8866 191.631 83.0228C190.806 81.8407 189.7 80.8829 188.411 80.2362C187.123 79.5895 185.694 79.2743 184.253 79.319C182.909 79.2547 181.568 79.4949 180.33 80.0217C179.092 80.5485 177.989 81.3482 177.104 82.3611C175.298 84.5786 174.369 87.3817 174.492 90.2387C174.381 92.9131 175.258 95.5349 176.956 97.6037C179.15 99.8808 181.838 101.624 184.812 102.698C187.753 103.807 190.503 105.367 192.964 107.322C194.752 108.845 196.149 110.775 197.039 112.95C197.963 115.376 198.41 117.959 198.353 120.555C198.546 124.656 197.189 128.68 194.55 131.826C193.297 133.236 191.746 134.351 190.01 135.09C188.275 135.83 186.397 136.176 184.511 136.103C181.801 136.13 179.139 135.384 176.836 133.954C174.47 132.461 172.587 130.315 171.413 127.776C170.047 124.794 169.379 121.54 169.459 118.261H173.205C172.999 121.823 174.085 125.339 176.263 128.165C177.273 129.353 178.542 130.294 179.971 130.918C181.4 131.542 182.953 131.832 184.511 131.765C185.872 131.822 187.229 131.58 188.486 131.056C189.744 130.533 190.872 129.742 191.791 128.737C193.706 126.488 194.691 123.592 194.544 120.642Z" fill="white"/>
<path d="M210.613 111.067V135.29H206.865V75.7126H220.767C222.693 75.6374 224.609 76.0305 226.349 76.8581C228.09 77.6857 229.604 78.9232 230.761 80.4644C233.195 83.6282 234.411 87.9789 234.411 93.5166C234.411 99.1628 233.234 103.5 230.878 106.528C229.669 108.044 228.115 109.247 226.345 110.038C224.574 110.828 222.64 111.182 220.705 111.07L210.613 111.067ZM210.613 106.689H220.769C222.174 106.759 223.575 106.485 224.849 105.889C226.124 105.294 227.233 104.395 228.081 103.273C229.97 100.413 230.878 97.0155 230.666 93.5942C230.859 90.1141 229.945 86.6624 228.053 83.7347C227.243 82.5764 226.154 81.64 224.888 81.0111C223.622 80.3821 222.218 80.0806 220.805 80.1343H210.614L210.613 106.689Z" fill="white"/>
<path d="M265.468 106.77H246.898V130.955H268.263V135.291H243.151V75.7125H268.097V80.1343H246.898V102.433H265.468V106.77Z" fill="white"/>
<path d="M305.304 116.714C304.952 123.398 303.506 128.301 300.966 131.423C299.694 132.973 298.078 134.204 296.245 135.017C294.413 135.831 292.416 136.205 290.414 136.109C288.168 136.124 285.96 135.524 284.031 134.373C282.102 133.223 280.525 131.566 279.47 129.583C276.8 125.23 275.452 119.317 275.427 111.844V98.9148C275.427 91.4109 276.791 85.5325 279.519 81.2796C280.642 79.3113 282.273 77.6803 284.242 76.5567C286.21 75.433 288.444 74.8579 290.711 74.8912C292.699 74.7918 294.683 75.1753 296.491 76.0089C298.3 76.8424 299.88 78.1013 301.096 79.6779C303.549 82.8691 304.952 87.766 305.304 94.3684H301.492C301.139 88.9676 300.114 85.1076 298.418 82.7885C297.521 81.617 296.347 80.686 295.002 80.079C293.657 79.4719 292.183 79.2076 290.711 79.3098C288.975 79.2867 287.268 79.7446 285.777 80.6327C284.286 81.5209 283.07 82.8046 282.264 84.3415C280.247 87.699 279.239 92.5664 279.24 98.9438V111.71C279.24 118.04 280.215 122.964 282.165 126.483C282.89 128.06 284.053 129.396 285.515 130.332C286.977 131.268 288.678 131.764 290.414 131.761C294.141 131.761 296.836 130.602 298.5 128.284C300.164 125.965 301.161 122.106 301.492 116.704L305.304 116.714Z" fill="white"/>
<path d="M319.107 135.29H315.359V75.7125H319.107V135.29Z" fill="white"/>
<path d="M353.454 118.643H335.506L331.44 135.29H327.529L342.778 75.7125H346.263L361.515 135.29H357.602L353.454 118.643ZM336.593 114.265H352.368L344.48 82.3109L336.593 114.265Z" fill="white"/>
<path d="M372.384 130.953H392.105V135.29H368.606V75.7125H372.384V130.953Z" fill="white"/>
<path d="M191.485 174.226C191.485 180.81 190.471 185.922 188.443 189.563C186.415 193.203 183.601 195.024 180 195.025C176.413 195.025 173.595 193.221 171.544 189.613C169.494 186.005 168.454 180.954 168.426 174.46V166.068C168.426 159.325 169.444 154.06 171.479 150.274C173.514 146.487 176.34 144.594 179.956 144.594C183.513 144.594 186.317 146.454 188.367 150.173C190.418 153.893 191.457 159.115 191.485 165.84V174.226ZM185.007 166C185.157 162.662 184.741 159.323 183.777 156.124C182.956 153.965 181.683 152.886 179.956 152.887C179.069 152.923 178.219 153.247 177.533 153.81C176.847 154.372 176.362 155.143 176.153 156.005C175.187 159.072 174.756 162.282 174.88 165.495V174.226C174.721 177.438 175.145 180.653 176.132 183.714C176.363 184.571 176.863 185.33 177.559 185.879C178.256 186.429 179.11 186.74 179.997 186.766C180.86 186.736 181.691 186.43 182.367 185.893C183.043 185.356 183.529 184.615 183.752 183.781C184.722 180.797 185.146 177.663 185.004 174.529L185.007 166Z" fill="white"/>
<path d="M212.611 174.328H202.572V194.351H196.115V145.262H213.816V153.521H202.575V166.1H212.614L212.611 174.328Z" fill="white"/>
<path d="M234.001 174.328H223.962V194.351H217.512V145.262H235.213V153.521H223.969V166.1H234.008L234.001 174.328Z" fill="white"/>
<path d="M255.411 173.114H245.348V186.125H257.25V194.351H238.891V145.262H257.212V153.521H245.348V165.118H255.405L255.411 173.114Z" fill="white"/>
<path d="M270.652 176.418H267.446V194.351H260.99V145.262H271.288C272.765 145.203 274.232 145.528 275.547 146.204C276.861 146.881 277.978 147.886 278.788 149.122C280.553 151.696 281.435 155.353 281.435 160.095C281.435 166.611 279.89 171.175 276.8 173.785L282.401 193.875V194.348H275.465L270.652 176.418ZM267.446 168.158H271.113C271.74 168.161 272.352 167.973 272.87 167.62C273.387 167.267 273.786 166.765 274.012 166.181C274.725 164.516 275.055 162.713 274.978 160.904C274.978 155.984 273.726 153.524 271.223 153.523H267.446V168.158Z" fill="white"/>
</g>
<defs>
<linearGradient id="paint0_linear" x1="36.6668" y1="251.712" x2="587.256" y2="-57.5509" gradientUnits="userSpaceOnUse">
<stop/>
<stop offset="0.203" stop-color="#040404"/>
<stop offset="0.424" stop-color="#111111"/>
<stop offset="0.653" stop-color="#272727"/>
<stop offset="0.886" stop-color="#454545"/>
<stop offset="1" stop-color="#575757"/>
</linearGradient>
<linearGradient id="paint1_linear" x1="34.0187" y1="79.538" x2="410.085" y2="193.525" gradientUnits="userSpaceOnUse">
<stop/>
<stop offset="0.213" stop-color="#030303"/>
<stop offset="0.386" stop-color="#0D0D0D"/>
<stop offset="0.544" stop-color="#1E1E1E"/>
<stop offset="0.694" stop-color="#363636"/>
<stop offset="0.838" stop-color="#555555"/>
<stop offset="0.975" stop-color="#7A7A7A"/>
<stop offset="1" stop-color="#828282"/>
</linearGradient>
<clipPath id="clip0">
<rect width="500" height="296.384" fill="white"/>
</clipPath>
</defs>
</svg>
