<svg width="32" height="32" viewBox="0 0 32 32" fill="none" xmlns="http://www.w3.org/2000/svg">
<g clip-path="url(#clip0)">
<path d="M2.1333 27.7334H10.3372L9.80371 28.8001H9.6001C7.93018 28.8001 6.93335 29.5974 6.93335 30.9334C6.93335 31.5225 7.41089 32 8 32H24C24.5891 32 25.0667 31.5225 25.0667 30.9334C25.0667 29.5974 24.0698 28.8001 22.3999 28.8001H22.1963L21.6628 27.7334H29.8667C31.0449 27.7334 32 26.7783 32 25.6001V6.93335C32 5.75513 31.0449 4.80005 29.8667 4.80005H24C23.7056 4.80005 23.4666 5.03882 23.4666 5.33325C23.4666 5.62793 23.7056 5.8667 24 5.8667H29.8667C30.4558 5.8667 30.9333 6.34424 30.9333 6.93335V25.6001C30.9333 26.1892 30.4558 26.6667 29.8667 26.6667H2.1333C1.54419 26.6667 1.06665 26.1892 1.06665 25.6001V6.93335C1.06665 6.34424 1.54419 5.8667 2.1333 5.8667H8C8.29443 5.8667 8.53345 5.62793 8.53345 5.33325C8.53345 5.03882 8.29443 4.80005 8 4.80005H2.1333C0.955078 4.80005 0 5.75513 0 6.93335V25.6001C0 26.7783 0.955078 27.7334 2.1333 27.7334ZM24 30.9334H8C8 30.6694 8 29.8667 9.6001 29.8667H22.3999C24 29.8667 24 30.6694 24 30.9334ZM20.47 27.7334L21.0032 28.8001H10.9963L11.5295 27.7334H20.47Z" fill="#FFC107"/>
<path d="M28.2666 22.3999H3.7334C3.43872 22.3999 3.19995 22.1611 3.19995 21.8667V8.53345C3.19995 8.23877 3.43872 8 3.7334 8H5.33325C5.62793 8 5.8667 7.76123 5.8667 7.46655C5.8667 7.17212 5.62793 6.93335 5.33325 6.93335H3.7334C2.84961 6.93335 2.1333 7.64966 2.1333 8.53345V21.8667C2.1333 22.7502 2.84961 23.4666 3.7334 23.4666H28.2666C29.1504 23.4666 29.8667 22.7502 29.8667 21.8667V8.53345C29.8667 7.64966 29.1504 6.93335 28.2666 6.93335H26.6667C26.3721 6.93335 26.1333 7.17212 26.1333 7.46655C26.1333 7.76123 26.3721 8 26.6667 8H28.2666C28.5613 8 28.8 8.23877 28.8 8.53345V21.8667C28.8 22.1611 28.5613 22.3999 28.2666 22.3999Z" fill="#FFC107"/>
<path d="M13.3333 24.5334C13.0388 24.5334 12.8 24.7722 12.8 25.0667C12.8 25.3613 13.0388 25.6001 13.3333 25.6001H18.6667C18.9612 25.6001 19.2 25.3613 19.2 25.0667C19.2 24.7722 18.9612 24.5334 18.6667 24.5334H13.3333Z" fill="#FFC107"/>
<path d="M22.8564 3.10034L21.967 2.21021C21.6064 1.85083 21.0422 1.79639 20.6196 2.08008L19.2864 2.96045C18.874 2.73853 18.439 2.56104 17.9888 2.4314L17.6746 0.859131C17.5757 0.360107 17.1382 0.000488281 16.6294 0H15.3706C14.8623 0 14.4246 0.358643 14.3247 0.857178L14.0022 2.42725C13.553 2.5603 13.1196 2.74072 12.7087 2.96582L11.3809 2.08008C10.9578 1.79688 10.3936 1.85229 10.0337 2.21216L9.14282 3.10229C8.78662 3.46313 8.73242 4.02466 9.01343 4.44702L9.89429 5.78027C9.67261 6.19287 9.49536 6.62793 9.36523 7.07788L7.79297 7.39136C7.29468 7.49146 6.9353 7.92847 6.93335 8.43677V9.69653C6.93457 10.2046 7.29297 10.6416 7.79102 10.7424L9.3606 11.0625C9.4939 11.5112 9.67432 11.9448 9.89868 12.3557L9.01343 13.6863C8.73169 14.1099 8.78735 14.6731 9.14624 15.0337L10.0356 15.9231C10.3958 16.2832 10.9597 16.3384 11.3828 16.0554L12.7163 15.175C13.1287 15.397 13.5637 15.5742 14.0139 15.7041L14.3279 17.2764C14.4277 17.7734 14.8635 18.1318 15.3706 18.1333H16.6294C17.1377 18.1333 17.5754 17.7747 17.6753 17.2764L17.9978 15.7061C18.447 15.5732 18.8804 15.3926 19.2913 15.1675L20.6191 16.0554C21.0425 16.3389 21.6069 16.2834 21.967 15.9231L22.8572 15.0337C23.2156 14.6729 23.2708 14.1099 22.9893 13.6863L22.1082 12.353C22.3291 11.9424 22.5078 11.5105 22.6416 11.064L22.1306 10.9121L22.6394 11.0554L24.2117 10.7419C24.7083 10.6399 25.0652 10.2034 25.0667 9.69653V8.43677C25.0654 7.92871 24.707 7.4917 24.209 7.39087L22.6394 7.07104C22.5061 6.62207 22.3257 6.18848 22.1013 5.77759L22.9893 4.44897C23.2732 4.02539 23.2175 3.46045 22.8564 3.10034ZM21.2139 5.18335C20.9966 5.51367 20.979 5.93652 21.168 6.28369C21.3542 6.63062 21.5049 6.99536 21.6172 7.3728C21.7271 7.75439 22.0398 8.04321 22.4287 8.12256L24 8.43677V9.69653L22.4287 10.0107C22.0398 10.0901 21.7271 10.3789 21.6172 10.7605C21.5046 11.1379 21.3542 11.5032 21.168 11.8501C20.9783 12.197 20.9961 12.6206 21.2144 12.9504L22.1023 14.2791L21.2122 15.1689L19.8838 14.281C19.5537 14.0635 19.1304 14.0454 18.783 14.2341C18.436 14.4207 18.0708 14.5713 17.6934 14.6838C17.3135 14.7952 17.0261 15.1072 16.9468 15.4949L16.6294 17.0667H15.3706L15.0559 15.4944C14.9756 15.1057 14.6868 14.7937 14.3057 14.6831C13.9285 14.571 13.5637 14.4207 13.217 14.2346C13.0586 14.1492 12.8813 14.1042 12.7014 14.104C12.4924 14.1035 12.2883 14.165 12.1147 14.281L10.7861 15.1689L9.896 14.2791L10.7844 12.95C11.0017 12.6196 11.0193 12.1968 10.8303 11.8496C10.644 11.5027 10.4937 11.1379 10.3813 10.7605C10.2715 10.3789 9.95874 10.0901 9.56958 10.0107L8 9.69653V8.43677L9.57129 8.12256C9.96021 8.04321 10.2729 7.75439 10.3828 7.3728C10.4954 6.99536 10.6458 6.63037 10.832 6.2832C11.0217 5.93628 11.0039 5.5127 10.7856 5.18286L9.89771 3.85449L10.7878 2.96436L12.1162 3.85229C12.446 4.0708 12.8699 4.08887 13.217 3.89917C13.564 3.71265 13.9292 3.56201 14.3066 3.44971C14.6875 3.33911 14.9761 3.02686 15.0559 2.63843L15.3706 1.06665H16.6294L16.9441 2.63892C17.0244 3.02759 17.3132 3.33984 17.6943 3.4502C18.0715 3.56226 18.4363 3.71265 18.783 3.89868C19.1301 4.08862 19.5537 4.0708 19.8838 3.85229L21.2122 2.96436L22.1023 3.85449L21.2139 5.18335Z" fill="#FFC107"/>
<path d="M16 4.80005C13.6436 4.80005 11.7334 6.71021 11.7334 9.06665C11.7334 11.4231 13.6436 13.3333 16 13.3333C18.3564 13.3333 20.2666 11.4231 20.2666 9.06665C20.2639 6.71143 18.3552 4.80273 16 4.80005ZM16 12.2666C14.2327 12.2666 12.8 10.834 12.8 9.06665C12.8 7.29932 14.2327 5.8667 16 5.8667C17.7673 5.8667 19.2 7.29932 19.2 9.06665C19.1982 10.8333 17.7666 12.2649 16 12.2666Z" fill="#FFC107"/>
<path d="M16.5334 9.06665C16.5334 9.36133 16.2944 9.6001 16 9.6001C15.7056 9.6001 15.4666 9.36133 15.4666 9.06665C15.4666 8.77222 15.7056 8.53345 16 8.53345C16.2944 8.53345 16.5334 8.77222 16.5334 9.06665Z" fill="#FFC107"/>
</g>
<defs>
<clipPath id="clip0">
<rect width="32" height="32" fill="white"/>
</clipPath>
</defs>
</svg>
