<svg width="548" height="314" viewBox="0 0 548 314" fill="none" xmlns="http://www.w3.org/2000/svg">
<path d="M407.684 221.11C407.684 221.11 442.184 219.15 491.196 261.115L525.521 298.687L422.049 304.905L335.03 308.197L304.683 280.035L308.705 250.41L407.684 221.11Z" fill="url(#paint0_radial)"/>
<path d="M201.018 217.76C201.018 217.76 168.85 206.155 106.292 233.063L47.8282 262.479L96.8219 312.22L214.188 299.053L255.869 266.502V229.928L201.018 217.76Z" fill="url(#paint1_radial)"/>
<path d="M499.668 110.17C498.918 108.385 498.11 106.622 497.247 104.892C487.602 85.5374 468.963 72.7767 450.338 62.6128C433.592 53.4729 415.519 46.9554 397.015 42.4239C379.289 38.0826 361.505 36.1368 344.098 30.5264C320.716 22.9884 298.322 11.5773 274.362 5.97418C248.535 -0.0641988 220.473 -1.39915 194.188 1.84863C163.699 5.61576 125.893 16.3502 107.407 42.636C91.7874 64.8475 80.475 89.7654 64.8628 111.951C53.554 128.018 39.7919 142.242 28.5087 158.327C17.2255 174.412 8.31155 192.045 8.67718 211.692H199.204C209.204 212.19 223.2 210.654 227.343 222.394C230.297 230.766 224.985 242.02 222.667 250.304C220.879 256.678 219.094 263.057 217.306 269.432L188.422 280.038C188.422 280.038 216.941 276.747 241.072 265.043C241.072 265.043 255.332 270.163 262.096 271.443L272.15 270.529L262.278 313.686C262.278 313.686 267.763 308.932 274.892 292.291L285.13 293.388L295.367 297.777L354.771 274.311C361.794 271.535 368.694 268.459 375.454 265.083C391.073 257.289 423.234 242.44 436.144 245.373C431.629 242.846 421.369 236.424 428.481 230.806C432.232 227.843 437.065 228.494 441.468 228.052C472.652 224.925 497.752 193.767 504.534 164.808C508.772 146.689 506.86 127.298 499.668 110.17Z" fill="url(#paint2_radial)"/>
<path d="M499.668 110.17C498.918 108.385 498.11 106.622 497.247 104.892C487.602 85.5374 468.963 72.7767 450.338 62.6128C433.592 53.4729 415.519 46.9554 397.015 42.4239C379.289 38.0826 361.505 36.1368 344.098 30.5264C320.716 22.9884 298.322 11.5773 274.362 5.97418C248.535 -0.0641988 220.473 -1.39915 194.188 1.84863C163.699 5.61576 125.893 16.3502 107.407 42.636C91.7874 64.8475 80.475 89.7654 64.8628 111.951C53.554 128.018 39.7919 142.242 28.5087 158.327C17.2255 174.412 8.31155 192.045 8.67718 211.692H199.204C209.204 212.19 223.2 210.654 227.343 222.394C230.297 230.766 224.985 242.02 222.667 250.304C220.879 256.678 219.094 263.057 217.306 269.432L188.422 280.038C188.422 280.038 216.941 276.747 241.072 265.043C241.072 265.043 255.332 270.163 262.096 271.443L272.15 270.529L262.278 313.686C262.278 313.686 267.763 308.932 274.892 292.291L285.13 293.388L295.367 297.777L354.771 274.311C361.794 271.535 368.694 268.459 375.454 265.083C391.073 257.289 423.234 242.44 436.144 245.373C431.629 242.846 421.369 236.424 428.481 230.806C432.232 227.843 437.065 228.494 441.468 228.052C472.652 224.925 497.752 193.767 504.534 164.808C508.772 146.689 506.86 127.298 499.668 110.17Z" fill="url(#paint3_radial)"/>
<path d="M499.668 110.17C498.918 108.385 498.11 106.622 497.247 104.892C487.602 85.5374 468.963 72.7767 450.338 62.6128C433.592 53.4729 415.519 46.9554 397.015 42.4239C379.289 38.0826 361.505 36.1368 344.098 30.5264C320.716 22.9884 298.322 11.5773 274.362 5.97418C248.535 -0.0641988 220.473 -1.39915 194.188 1.84863C163.699 5.61576 125.893 16.3502 107.407 42.636C91.7874 64.8475 80.475 89.7654 64.8628 111.951C53.554 128.018 39.7919 142.242 28.5087 158.327C17.2255 174.412 8.31155 192.045 8.67718 211.692H199.204C209.204 212.19 223.2 210.654 227.343 222.394C230.297 230.766 224.985 242.02 222.667 250.304C220.879 256.678 219.094 263.057 217.306 269.432L188.422 280.038C188.422 280.038 216.941 276.747 241.072 265.043C241.072 265.043 255.332 270.163 262.096 271.443L272.15 270.529L262.278 313.686C262.278 313.686 267.763 308.932 274.892 292.291L285.13 293.388L295.367 297.777L298.292 299.971C305.316 297.195 368.697 268.459 375.454 265.087C391.073 257.293 423.234 242.444 436.144 245.377C431.629 242.85 421.369 236.427 428.481 230.81C432.232 227.847 437.065 228.498 441.468 228.056C472.652 224.929 497.752 193.771 504.534 164.812C508.772 146.689 506.86 127.298 499.668 110.17Z" fill="url(#paint4_radial)"/>
<path d="M407.684 221.11C407.684 221.11 442.184 219.15 491.196 261.115" stroke="#FA404B" stroke-width="0.385648" stroke-miterlimit="10"/>
<path d="M364.434 246.639C366.412 246.343 408.938 235.44 444.063 247.74" stroke="#FA404B" stroke-width="0.385648" stroke-miterlimit="10"/>
<path d="M144.606 230.129C144.606 230.129 186.166 213.265 210.473 230.129" stroke="#FA404B" stroke-width="0.385648" stroke-miterlimit="10"/>
<path d="M0.125061 211.502H123.235" stroke="#0061FE" stroke-width="0.385648" stroke-miterlimit="10"/>
<path d="M27.7664 218.363H142.057" stroke="#0061FE" stroke-width="0.385648" stroke-miterlimit="10"/>
<path d="M200.835 218.491C200.835 218.491 168.861 204.762 106.109 233.794" stroke="#FA404B" stroke-width="0.385648" stroke-miterlimit="10"/>
<path d="M69.7438 131.379H56.457H54.7094H41.4189L36.5232 134.528H54.7094H56.457H74.6396L69.7438 131.379Z" fill="#EECFF8"/>
<path d="M69.7438 131.379H56.457H54.7094H41.4189L36.5232 134.528H54.7094H56.457H74.6396L69.7438 131.379Z" fill="url(#paint5_radial)"/>
<path d="M55.6746 131.379C57.0256 131.379 58.1206 130.284 58.1206 128.933C58.1206 127.581 57.0256 126.486 55.6746 126.486C54.3236 126.486 53.2285 127.581 53.2285 128.933C53.2285 130.284 54.3236 131.379 55.6746 131.379Z" fill="url(#paint6_radial)"/>
<path d="M87.4766 157.757C82.8807 167.767 79.2355 173.326 76.6468 176.409L74.4019 146.397L79.7802 143.09L92.025 143.16C92.7453 143.163 93.2426 143.884 92.9866 144.561C91.7727 147.754 89.8422 152.607 87.4766 157.757ZM94.3614 138.541H78.4932L69.6597 143.972L72.5921 183.132H76.2117C85.9301 176.066 95.8677 149.992 98.1822 143.632C98.4966 142.765 98.3211 141.799 97.7215 141.101L96.3028 139.44C95.8166 138.87 95.1072 138.541 94.3614 138.541Z" fill="url(#paint7_radial)"/>
<path d="M36.8046 208.66L38.6766 211.356H72.603L74.3507 208.836C74.7346 208.28 74.9576 207.644 74.9905 206.985L78.7089 134.364H32.4573L36.1648 206.81C36.2013 207.468 36.4207 208.104 36.8046 208.66Z" fill="#EECFF8"/>
<path d="M36.8046 208.66L38.6766 211.356H72.603L74.3507 208.836C74.7346 208.28 74.9576 207.644 74.9905 206.985L78.7089 134.364H32.4573L36.1648 206.81C36.2013 207.468 36.4207 208.104 36.8046 208.66Z" fill="url(#paint8_radial)"/>
<path d="M25.2546 134.364L32.5927 143.624L33.4519 153.792L40.6181 134.364H25.2546Z" fill="url(#paint9_radial)"/>
<path d="M32.0406 132.36C30.8998 132.111 30.2052 130.845 30.2381 129.675C30.271 128.505 30.856 127.429 31.4775 126.442C32.0991 125.451 32.7901 124.471 33.0753 123.337C33.642 121.08 32.5086 118.783 31.408 116.735" stroke="#C0D8F0" stroke-width="0.385648" stroke-miterlimit="10"/>
<path d="M34.8668 139.601L37.6638 184.028" stroke="white" stroke-width="0.385648" stroke-miterlimit="10"/>
<path d="M86.7966 139.952H93.3193C94.0615 139.952 94.7708 140.278 95.2535 140.841L96.588 142.399" stroke="white" stroke-width="0.385648" stroke-miterlimit="10"/>
<path d="M56.6325 159.424H54.5338V161.582H56.6325V159.424Z" fill="#B0B0F8"/>
<path d="M56.6325 164.439H54.5338V166.597H56.6325V164.439Z" fill="#B0B0F8"/>
<path d="M56.6325 161.93H54.5338V164.088H56.6325V161.93Z" fill="#B0B0F8"/>
<path d="M56.6325 166.944H54.5338V169.102H56.6325V166.944Z" fill="#808CC6"/>
<path d="M56.6325 174.464H54.5338V176.621H56.6325V174.464Z" fill="#808CC6"/>
<path d="M56.6325 169.449H54.5338V171.607H56.6325V169.449Z" fill="#808CC6"/>
<path d="M56.6325 171.958H54.5338V174.116H56.6325V171.958Z" fill="#808CC6"/>
<path d="M56.6325 156.915H54.5338V159.073H56.6325V156.915Z" fill="#B0B0F8"/>
<path d="M56.6325 176.973H54.5338V179.13H56.6325V176.973Z" fill="#808CC6"/>
<path d="M55.5832 180.528C56.1608 180.528 56.6325 180.059 56.6325 179.478H54.5338C54.5338 180.059 55.0018 180.528 55.5832 180.528Z" fill="#808CC6"/>
<path d="M55.5832 147.995C55.0055 147.995 54.5338 148.463 54.5338 149.045H56.6325C56.6325 148.467 56.1608 147.995 55.5832 147.995Z" fill="#B0B0F8"/>
<path d="M56.6325 154.41H54.5338V156.568H56.6325V154.41Z" fill="#B0B0F8"/>
<path d="M56.6325 149.396H54.5338V151.554H56.6325V149.396Z" fill="#B0B0F8"/>
<path d="M56.6325 151.901H54.5338V154.059H56.6325V151.901Z" fill="#B0B0F8"/>
<path d="M386.119 95.215L380.631 95.6063C373.574 92.4683 308.881 94.8236 262.227 92.0769C215.573 89.3302 168.521 103.06 168.521 103.06L164.817 100.899C164.335 100.617 163.72 100.913 163.64 101.465C162.788 107.321 159.296 134.313 163.815 154.831C168.912 177.971 168.492 216.674 168.492 216.674C188.656 214.454 199.102 218.367 199.102 218.367L202.853 220.602L242.227 223.462L306.526 221.11L379.45 216.213C379.45 216.213 381.413 163.85 386.119 140.318C390.825 116.786 386.119 95.215 386.119 95.215Z" fill="#BDD9FF"/>
<path d="M378.276 140.318C378.276 140.318 384.551 123.062 380.627 99.1393C380.627 99.1393 359.454 97.1789 339.853 98.7479" stroke="white" stroke-width="0.385648" stroke-miterlimit="10"/>
<path d="M167.932 108.356C167.932 108.356 194.594 98.9418 218.9 98.9418" stroke="white" stroke-width="0.385648" stroke-miterlimit="10"/>
<path d="M167.735 129.73C167.735 129.73 166.558 143.065 171.263 157.577" stroke="white" stroke-width="0.385648" stroke-miterlimit="10"/>
<path d="M532.164 64.8218H434.148V122.865H532.164V64.8218Z" fill="url(#paint10_radial)"/>
<path d="M512.168 87.9623H414.152V146.005H512.168V87.9623Z" fill="#DEF4FF"/>
<path d="M503.009 100.12H428.407C426.813 100.12 425.522 98.8285 425.522 97.2338V93.2034C425.522 91.6088 426.813 90.3177 428.407 90.3177H503.009C504.604 90.3177 505.894 91.6088 505.894 93.2034V97.2338C505.894 98.8248 504.604 100.12 503.009 100.12Z" stroke="#0061FE" stroke-width="0.385648" stroke-miterlimit="10"/>
<path d="M454.337 103.843H504.132" stroke="#0061FE" stroke-width="0.385648" stroke-miterlimit="10"/>
<path d="M454.535 108.55H504.326" stroke="#0061FE" stroke-width="0.385648" stroke-miterlimit="10"/>
<path d="M454.535 112.866H504.326" stroke="#0061FE" stroke-width="0.385648" stroke-miterlimit="10"/>
<path d="M425.256 124.631H410.693C409.68 124.631 408.857 123.808 408.857 122.795V111.757C408.857 110.744 409.68 109.921 410.693 109.921H425.256C426.268 109.921 427.091 110.744 427.091 111.757V122.795C427.091 123.808 426.268 124.631 425.256 124.631Z" fill="#EECFF8"/>
<path d="M413.76 116.984L416.166 120.766C416.327 121.018 416.696 121.029 416.868 120.78L421.994 113.454" stroke="#0061FE" stroke-width="0.385648" stroke-miterlimit="10"/>
<path d="M536.479 58.1544H501.583V75.8014H536.479V58.1544Z" fill="#FFDE99"/>
<path d="M501.569 75.8014H536.49V58.1544H501.569V75.8014Z" fill="url(#paint11_radial)"/>
<path d="M501.583 58.1544L518.834 66.7822L536.475 58.1544H501.583Z" fill="#FFDE99"/>
<path d="M532.497 68.5853C533.396 66.7347 535.93 65.9008 537.755 66.8554C538.629 67.3126 539.294 68.0879 540.124 68.6183C541.298 69.3717 542.793 69.5984 544.139 69.2254C545.48 68.856 546.65 67.8904 547.272 66.6432" stroke="#FA404B" stroke-width="0.385648" stroke-miterlimit="10"/>
<path d="M483.123 93.8434H422.806C421.705 93.8434 420.813 92.951 420.813 91.8501V83.6758C420.813 82.5749 421.705 81.6825 422.806 81.6825H483.123C484.224 81.6825 485.116 82.5749 485.116 83.6758V91.8501C485.116 92.951 484.224 93.8434 483.123 93.8434Z" fill="#FFDE99"/>
<path d="M429.051 89.5276C430.133 89.5276 431.011 88.6498 431.011 87.5672C431.011 86.4847 430.133 85.6069 429.051 85.6069C427.969 85.6069 427.091 86.4847 427.091 87.5672C427.091 88.6498 427.969 89.5276 429.051 89.5276Z" stroke="#FA404B" stroke-width="0.385648" stroke-miterlimit="10"/>
<path d="M434.341 87.7648H479.236" stroke="#FA404B" stroke-width="0.385648" stroke-miterlimit="10"/>
<path d="M278.889 246.408L277.711 253.467C277.711 253.467 286.336 307.198 297.316 297.393C308.296 287.587 294.965 258.957 294.965 258.957L287.122 248.76L278.889 246.408Z" fill="#0061FE"/>
<path d="M285.25 253.354L262.947 262.629C261.346 263.295 260.201 264.739 259.935 266.451C258.98 272.541 257.426 288.509 261.635 313.471C261.635 313.471 265.554 319.352 272.22 276.995C272.22 276.995 277.316 269.545 299.272 264.838C321.232 260.135 285.25 253.354 285.25 253.354Z" fill="#FFDE99"/>
<path d="M285.25 253.354L262.947 262.629C261.346 263.295 260.201 264.739 259.935 266.451C258.98 272.541 257.426 288.509 261.635 313.471C261.635 313.471 265.554 319.352 272.22 276.995C272.22 276.995 277.316 269.545 299.272 264.838C321.232 260.135 285.25 253.354 285.25 253.354Z" fill="url(#paint12_radial)"/>
<path d="M233.844 232.254C233.844 232.254 234.527 251.441 234.999 259.926C235.098 261.685 234.114 263.32 232.513 264.055C223.833 268.035 196.338 280.218 185.12 280.218C185.12 280.218 179.757 278.521 215.965 258.569C215.965 258.569 219.54 245.834 216.86 232.254C214.173 218.671 233.844 232.254 233.844 232.254Z" fill="#FFDE99"/>
<path d="M233.844 232.254C233.844 232.254 234.527 251.441 234.999 259.926C235.098 261.685 234.114 263.32 232.513 264.055C223.833 268.035 196.338 280.218 185.12 280.218C185.12 280.218 179.757 278.521 215.965 258.569C215.965 258.569 219.54 245.834 216.86 232.254C214.173 218.671 233.844 232.254 233.844 232.254Z" fill="url(#paint13_radial)"/>
<path d="M124.803 185.224L118.357 187.063L118.529 188.753L108.485 193.018C106.606 193.815 105.293 195.556 105.059 197.582C105.008 198.028 104.964 198.493 104.935 198.95H106.376L106.288 199.008C105.25 199.692 104.741 200.987 105.14 202.165C105.246 202.479 105.392 202.724 105.59 202.874L117.352 199.345L127.545 195.029L129.114 192.677L124.803 185.224Z" fill="#FFDE99"/>
<path d="M124.803 185.224L118.357 187.063L118.529 188.753L108.485 193.018C106.606 193.815 105.293 195.556 105.059 197.582C105.008 198.028 104.964 198.493 104.935 198.95H106.376L106.288 199.008C105.25 199.692 104.741 200.987 105.14 202.165C105.246 202.479 105.392 202.724 105.59 202.874L117.352 199.345L127.545 195.029L129.114 192.677L124.803 185.224Z" fill="url(#paint14_radial)"/>
<path d="M115.787 180.517L110.69 185.224L111.473 190.322L117.352 196.598C117.352 196.598 119.312 193.46 116.569 189.931C113.824 186.401 115.787 187.579 115.787 187.579L123.63 186.01V182.872L115.787 180.517Z" fill="#FFDE99"/>
<path d="M115.787 180.517L110.69 185.224L111.473 190.322L117.352 196.598C117.352 196.598 119.312 193.46 116.569 189.931C113.824 186.401 115.787 187.579 115.787 187.579L123.63 186.01V182.872L115.787 180.517Z" fill="url(#paint15_radial)"/>
<path d="M110.101 185.224C113.235 185.224 115.787 187.51 115.787 190.322C115.787 193.135 113.235 195.421 110.101 195.421C106.968 195.421 104.416 193.135 104.416 190.322C104.416 187.513 106.968 185.224 110.101 185.224ZM110.101 182.481C105.447 182.481 101.674 185.992 101.674 190.326C101.674 194.66 105.447 198.171 110.101 198.171C114.756 198.171 118.533 194.66 118.533 190.326C118.533 185.992 114.756 182.481 110.101 182.481Z" fill="#0144B9"/>
<path d="M180.086 170.32C180.086 170.32 141.662 186.006 134.997 186.006L128.723 178.161L112.646 179.73C112.646 179.73 113.824 183.651 122.449 184.046C122.449 184.046 120.489 191.105 126.368 193.46C126.368 193.46 109.509 201.697 105.59 205.617C105.59 205.617 119.703 201.302 125.977 199.736C130.514 198.602 133.82 197.878 136.046 196.971C138.255 196.072 140.543 195.395 142.891 194.989L192.235 186.405C192.239 186.401 193.416 165.221 180.086 170.32Z" fill="#FFDE99"/>
<path d="M180.086 170.32C180.086 170.32 141.662 186.006 134.997 186.006L128.723 178.161L112.646 179.73C112.646 179.73 113.824 183.651 122.449 184.046C122.449 184.046 120.489 191.105 126.368 193.46C126.368 193.46 109.509 201.697 105.59 205.617C105.59 205.617 119.703 201.302 125.977 199.736C132.251 198.167 136.171 197.385 138.13 195.816L192.235 186.401C192.239 186.401 193.416 165.221 180.086 170.32Z" fill="url(#paint16_radial)"/>
<path d="M227.134 57.368C227.134 57.368 211.453 76.1927 234.191 102.863C234.191 102.863 237.719 107.57 238.505 113.059C238.505 113.059 268.874 107.804 271.225 99.1759C273.576 90.548 250.268 70.7029 250.268 70.7029L243.993 60.5061L230.663 57.368H227.134Z" fill="url(#paint17_radial)"/>
<path d="M258.501 100.902C258.501 100.902 266.735 114.628 261.247 121.296H253.799L263.211 136.983L280.852 137.765L288.695 127.568L291.832 110.704L287.517 109.921C287.517 109.921 273.159 104.856 273.086 72.678L256.154 87.5636L258.501 100.902Z" fill="#FFDE99"/>
<path d="M258.501 100.902C258.501 100.902 266.735 114.628 261.247 121.296H253.799L263.211 136.983L280.852 137.765L288.695 127.568L291.832 110.704L287.517 109.921C287.517 109.921 273.159 104.856 273.086 72.678L256.154 87.5636L258.501 100.902Z" fill="url(#paint18_radial)"/>
<path d="M258.501 100.902C258.501 100.902 266.735 114.628 261.247 121.296H253.799L263.211 136.983L280.852 137.765L288.695 127.568L291.832 110.704L287.517 109.921C287.517 109.921 273.159 104.856 273.086 72.678L256.154 87.5636L258.501 100.902Z" fill="url(#paint19_radial)"/>
<path d="M231.449 58.1544C231.449 58.1544 232.125 97.0107 246.015 105.73C247.821 106.864 250.107 106.915 252.012 105.949C256.937 103.455 267.576 97.5557 270.264 91.883C273.792 84.4329 273.009 71.8807 273.009 71.8807L231.449 58.1544Z" fill="#FFDE99"/>
<path d="M298.099 60.5061C289.082 47.5626 275.752 29.9156 265.163 32.2673C256.161 34.2679 236.959 42.2228 231.409 44.5598C230.436 44.9695 229.686 45.7778 229.354 46.7799L228.703 48.7366L228.33 48.6122C226.495 48.0015 224.495 48.9195 223.771 50.7116C220.389 59.0651 213.149 82.4798 228.315 102.073L229.493 101.681C229.493 101.681 221.65 92.6621 222.045 77.7581C222.308 67.8027 226.418 62.2215 229.12 59.6137C230.016 58.7506 231.507 59.3504 231.547 60.5939C231.547 60.5939 242.827 70.6957 254.589 72.6597C266.351 74.6201 269.488 85.2083 269.488 85.2083L270.666 84.8169C270.666 84.8169 269.097 79.7185 264.392 75.4028C259.686 71.087 258.512 70.3043 258.512 70.3043C258.512 70.3043 264.878 73.2888 268.706 77.7545C275.763 85.9909 278.508 104.033 272.234 108.345C272.234 108.345 280.304 107.094 288.303 104.41C288.936 102.848 290.066 98.8065 289.488 90.698H290.271C290.271 90.698 291.294 97.541 289.832 103.879C292.574 102.892 295.243 101.732 297.51 100.394C297.751 98.7809 297.982 96.901 298.175 94.7139L298.643 94.776C298.643 94.776 298.552 96.9705 298.168 99.9952C300.804 98.3384 302.811 96.4219 303.601 94.2311C307.115 84.4292 307.115 73.4497 298.099 60.5061Z" fill="url(#paint20_radial)"/>
<path d="M261.635 120.513C261.635 120.513 255.361 120.122 240.461 125.22L180.477 166.79C180.477 166.79 176.557 196.99 190.279 208.755L247.522 176.205L265.163 215.032L318.091 211.111C318.091 211.111 312.994 189.539 314.954 183.658C316.914 177.777 324.365 168.754 324.365 164.834C324.365 164.834 336.127 182.876 351.418 193.855L357.297 162.478C357.297 162.478 329.853 120.122 321.619 117.375C313.385 114.628 298.095 109.139 287.51 109.925C287.51 109.925 282.413 132.67 272.22 133.065C262.03 133.457 261.635 120.513 261.635 120.513Z" fill="#F9C1DA"/>
<path d="M261.635 120.513C261.635 120.513 255.361 120.122 240.461 125.22L180.477 166.79C180.477 166.79 176.557 196.99 190.279 208.755L247.522 176.205L265.163 215.032L318.091 211.111C318.091 211.111 312.994 189.539 314.954 183.658C316.914 177.777 324.365 168.754 324.365 164.834C324.365 164.834 336.127 182.876 351.418 193.855L357.297 162.478C357.297 162.478 329.853 120.122 321.619 117.375C313.385 114.628 298.095 109.139 287.51 109.925C287.51 109.925 282.413 132.67 272.22 133.065C262.03 133.457 261.635 120.513 261.635 120.513Z" fill="url(#paint21_radial)"/>
<path d="M261.635 120.513C261.635 120.513 255.361 120.122 240.461 125.22L180.477 166.79C180.477 166.79 176.557 196.99 190.279 208.755L247.522 176.205L265.163 215.032L318.091 211.111C318.091 211.111 312.994 189.539 314.954 183.658C316.914 177.777 324.365 168.754 324.365 164.834C324.365 164.834 336.127 182.876 351.418 193.855L357.297 162.478C357.297 162.478 329.853 120.122 321.619 117.375C313.385 114.628 298.095 109.139 287.51 109.925C287.51 109.925 282.413 132.67 272.22 133.065C262.03 133.457 261.635 120.513 261.635 120.513Z" fill="url(#paint22_radial)"/>
<path d="M89.5168 179.343L70.4641 179.745C70.2301 192.304 82.4603 205.226 82.4603 205.226L82.8515 206.404H89.5168H96.2882L96.6868 205.226C96.6868 205.226 109.114 192.304 108.877 179.745L89.5168 179.343Z" fill="#0061FE"/>
<path d="M89.5168 179.343L70.4641 179.745C70.2301 192.304 82.4603 205.226 82.4603 205.226L82.8515 206.404H89.5168H96.2882L96.6868 205.226C96.6868 205.226 109.114 192.304 108.877 179.745L89.5168 179.343Z" fill="url(#paint23_radial)"/>
<path d="M324.369 164.83L318.881 158.554C318.881 158.554 319.071 185.82 296.925 191.5C281.634 195.421 275.221 206.301 272.223 214.64L277.711 216.992L318.095 211.111C318.095 211.111 312.998 189.539 314.957 183.658C316.917 177.774 324.369 168.751 324.369 164.83Z" fill="url(#paint24_radial)"/>
<path d="M116.569 189.931C115.794 188.936 115.396 188.314 115.22 187.934C115.209 187.927 115.202 187.916 115.191 187.908C114.621 187.747 114.065 187.524 113.473 187.308C112.639 187.005 111.765 186.837 110.902 186.635L111.469 190.326L117.348 196.602C117.355 196.598 119.315 193.46 116.569 189.931Z" fill="#FFDE99"/>
<path d="M273.006 212.68C273.006 212.68 236.937 133.457 224.78 127.967C224.78 127.967 213.8 126.789 208.312 129.536C202.824 132.283 199.296 242.096 199.296 242.096H239.679C239.679 242.096 244.776 255.431 277.711 253.08C277.711 253.08 278.102 247.198 281.631 247.59C285.159 247.981 299.667 295.045 296.53 298.183L413.289 239.24C419.793 235.956 423.669 223.861 421.208 216.999C419.731 212.881 414.042 209.399 409.446 208.763C398.075 207.194 317.897 210.921 317.897 210.921C317.897 210.921 283.005 214.834 273.006 212.68Z" fill="#DEF4FF"/>
<path d="M421.208 216.992C419.731 212.874 414.042 209.392 409.446 208.755C404.547 208.079 386.872 208.386 368.339 208.957C367.22 210.888 366.171 212.863 365.183 214.863C361.838 221.659 359.205 228.791 357.019 236.032C354.8 243.38 352.928 250.86 351.962 258.482C351.451 262.512 351.165 266.568 351.111 270.621L413.292 239.229C419.793 235.948 423.669 223.853 421.208 216.992Z" fill="url(#paint25_radial)"/>
<path d="M218.659 178.801C225.595 177.298 232.341 174.946 238.816 172.05C242.754 170.291 246.556 168.323 250.07 165.883C240.436 147.618 230.216 130.421 224.783 127.963C224.783 127.963 213.804 126.786 208.316 129.532C205.782 130.801 203.665 154.893 202.122 180.462C207.668 180.604 213.23 179.979 218.659 178.801Z" fill="url(#paint26_radial)"/>
<path d="M317.897 210.913C317.897 210.913 284.457 214.673 273.671 212.804L273.203 212.874L273.09 212.694C273.064 212.687 273.035 212.684 273.009 212.68C273.009 212.68 272.947 212.541 272.827 212.281L241.057 162.284L249.682 241.899H239.489V242.096H239.686C239.686 242.096 244.783 255.431 277.719 253.08C277.719 253.08 277.982 249.159 280 247.934C280.172 247.828 280.362 247.743 280.559 247.685L371.816 220.924L347.9 215.043L347.509 213.082L415.727 211.122L317.897 210.913Z" fill="url(#paint27_radial)"/>
<path d="M317.897 210.913C317.897 210.913 284.457 214.673 273.671 212.804L273.203 212.874L273.09 212.694C273.064 212.687 273.035 212.684 273.009 212.68C273.009 212.68 272.947 212.541 272.827 212.281L241.057 162.284L249.682 241.899H239.489V242.096H239.686C239.686 242.096 244.783 255.431 277.719 253.08C277.719 253.08 277.982 249.159 280 247.934C280.172 247.828 280.362 247.743 280.559 247.685L371.816 220.924L347.9 215.043L347.509 213.082L415.727 211.122L317.897 210.913Z" fill="url(#paint28_radial)"/>
<path d="M246.721 94.7065C247.65 93.4337 248.575 92.1646 249.503 90.8919C249.693 90.6322 249.997 90.3359 250.289 90.4749C250.472 90.5627 250.542 90.7821 250.593 90.9796C250.911 92.2999 251.046 93.6642 250.991 95.0174C250.959 95.8367 250.75 96.8022 249.99 97.1131C249.342 97.3801 248.604 97.018 248.074 96.5608C247.478 96.0524 246.995 95.4087 246.666 94.6955" fill="url(#paint29_radial)"/>
<path d="M259.788 55.8759C269.397 57.9203 277.393 65.3266 281.411 74.2946C285.43 83.2625 285.77 93.5874 283.704 103.195" stroke="#0144B9" stroke-width="0.385648" stroke-miterlimit="10"/>
<path d="M281.093 66.0215C284.271 68.3878 285.978 72.2354 287.119 76.0281C288.512 80.6584 289.261 85.4825 289.345 90.3176" stroke="#0144B9" stroke-width="0.385648" stroke-miterlimit="10"/>
<path d="M255.701 65.5826C263.371 67.9855 269.927 73.5557 273.861 80.5633C277.799 87.5709 279.148 95.9318 277.989 103.887" stroke="#0144B9" stroke-width="0.385648" stroke-miterlimit="10"/>
<path d="M320.636 118.908C317.415 119.321 314.533 121.716 313.539 124.811" stroke="#FA404B" stroke-width="0.385648" stroke-miterlimit="10"/>
<path d="M288.124 186.818C292.314 187.934 296.885 187.729 300.863 186.006C304.841 184.284 308.168 181.003 309.725 176.958" stroke="#FA404B" stroke-width="0.385648" stroke-miterlimit="10"/>
<path d="M259.774 123.834C261.017 128.772 262.732 134.28 267.284 136.555C270.607 138.215 274.735 137.612 277.945 135.746C281.156 133.881 283.58 130.908 285.602 127.791C288.837 122.803 291.229 117.269 292.647 111.498" stroke="#FA404B" stroke-width="0.385648" stroke-miterlimit="10"/>
<path d="M183.475 167.185C183.161 173.703 183.139 180.286 184.371 186.694C185.599 193.102 188.151 199.374 192.484 204.25" stroke="#FA404B" stroke-width="0.385648" stroke-miterlimit="10"/>
<path d="M240.209 126.186C240.695 126.142 241.006 126.68 241.167 127.14C242.067 129.679 242.337 132.436 241.95 135.099" stroke="#FA404B" stroke-width="0.385648" stroke-miterlimit="10"/>
<path d="M228.728 138.23C234.78 140.713 239.876 151.693 241.054 161.498" stroke="#B0B0F8" stroke-width="0.385648" stroke-miterlimit="10"/>
<path d="M371.64 220.664C380.591 216.575 390.733 215.145 400.466 216.601" stroke="#B0B0F8" stroke-width="0.385648" stroke-miterlimit="10"/>
<path d="M380.547 220.971C385 219.87 389.695 219.761 394.192 220.66" stroke="#B0B0F8" stroke-width="0.385648" stroke-miterlimit="10"/>
<path d="M286.6 248.029C294.42 261.872 299.521 277.248 301.521 293.022" stroke="#B0B0F8" stroke-width="0.385648" stroke-miterlimit="10"/>
<path d="M202.166 238.146C202.297 238.146 202.429 238.146 202.561 238.146H244.768" stroke="#B0B0F8" stroke-width="0.385648" stroke-miterlimit="10"/>
<path d="M89.5168 182.872C100.126 182.872 108.727 181.467 108.727 179.734C108.727 178.001 100.126 176.596 89.5168 176.596C78.9074 176.596 70.3068 178.001 70.3068 179.734C70.3068 181.467 78.9074 182.872 89.5168 182.872Z" fill="#DEF4FF"/>
<path d="M89.5168 182.872C100.126 182.872 108.727 181.467 108.727 179.734C108.727 178.001 100.126 176.596 89.5168 176.596C78.9074 176.596 70.3068 178.001 70.3068 179.734C70.3068 181.467 78.9074 182.872 89.5168 182.872Z" fill="url(#paint30_radial)"/>
<path d="M76.0764 179.193C79.5901 178.56 84.6613 178.165 90.3029 178.165C90.972 178.165 91.6301 178.172 92.2809 178.18" stroke="white" stroke-width="0.385648" stroke-miterlimit="10"/>
<path d="M74.9503 186.138C76.1678 190.395 78.1312 194.437 80.7308 198.017" stroke="#BDD9FF" stroke-width="0.385648" stroke-miterlimit="10"/>
<path d="M259.788 74.2872C244.904 74.6969 236.842 78.9431 233.931 80.8669C235.467 88.6791 237.95 96.751 241.95 101.923H252.395C252.395 101.919 279.086 73.7569 259.788 74.2872Z" fill="url(#paint31_radial)"/>
<path d="M424.645 211.016L279.495 211.243C278.545 211.243 277.773 210.474 277.77 209.524L277.766 208.262C277.766 207.311 278.534 206.539 279.484 206.535L424.634 206.309C425.585 206.309 426.356 207.077 426.36 208.028L426.363 209.289C426.363 210.24 425.596 211.012 424.645 211.016Z" fill="#241921"/>
<path d="M424.645 211.016L338.306 211.151C337.356 211.151 336.584 210.383 336.581 209.432L336.577 208.17C336.577 207.219 337.345 206.448 338.295 206.444L424.634 206.309C425.585 206.309 426.356 207.077 426.36 208.028L426.364 209.289C426.364 210.24 425.596 211.012 424.645 211.016Z" fill="#0061FE"/>
<path d="M446.524 132.542L362.28 132.674C361.143 132.674 360.138 133.406 359.783 134.485L337.707 201.81C337.147 203.514 338.42 205.263 340.211 205.263L424.455 205.131C425.592 205.131 426.598 204.399 426.952 203.321L449.029 135.995C449.584 134.291 448.316 132.539 446.524 132.542Z" fill="#0061FE"/>
<path d="M326.65 209.992L319.853 210.003C319.349 210.003 318.939 209.593 318.939 209.088V208.957C318.939 208.452 319.349 208.042 319.853 208.042L326.65 208.031C327.155 208.031 327.564 208.441 327.564 208.946V209.077C327.564 209.578 327.155 209.988 326.65 209.992Z" stroke="#F2F6FF" stroke-width="0.385648" stroke-miterlimit="10"/>
<path d="M420.55 210.039L413.753 210.05C413.248 210.05 412.839 209.641 412.839 209.136V209.004C412.839 208.499 413.248 208.09 413.753 208.09L420.55 208.079C421.055 208.079 421.464 208.488 421.464 208.993V209.125C421.464 209.63 421.055 210.039 420.55 210.039Z" stroke="#F2F6FF" stroke-width="0.385648" stroke-miterlimit="10"/>
<path d="M312.34 210.207L305.543 210.218C305.038 210.218 304.629 209.809 304.629 209.304V209.172C304.629 208.668 305.038 208.258 305.543 208.258L312.34 208.247C312.844 208.247 313.254 208.657 313.254 209.161V209.293C313.254 209.798 312.844 210.207 312.34 210.207Z" stroke="#F2F6FF" stroke-width="0.385648" stroke-miterlimit="10"/>
<path d="M331.941 210.178H331.809C331.305 210.178 330.895 209.769 330.895 209.264V209.132C330.895 208.627 331.305 208.218 331.809 208.218H331.941C332.445 208.218 332.855 208.627 332.855 209.132V209.264C332.855 209.769 332.449 210.178 331.941 210.178Z" stroke="#F2F6FF" stroke-width="0.385648" stroke-miterlimit="10"/>
<path d="M448.071 133.043C447.643 132.729 447.113 132.539 446.524 132.542L362.28 132.674C361.143 132.674 360.138 133.406 359.783 134.484L337.966 201.02L448.071 133.043Z" fill="url(#paint32_radial)"/>
<path d="M396.492 172.15C398.923 170.487 399.848 167.605 398.558 165.712C397.263 163.819 394.243 163.632 391.812 165.295C389.377 166.957 388.455 169.839 389.746 171.732C391.04 173.625 394.06 173.812 396.492 172.15Z" fill="#0144B9"/>
<path d="M433.921 137.703L407.285 154.216" stroke="#BDD9FF" stroke-width="0.385648" stroke-miterlimit="10"/>
<path d="M430.199 193.138L435.142 192.304L433.482 185.717L432.246 184.072L430.199 193.138Z" fill="#FFDE99"/>
<path d="M430.199 193.138L435.142 192.304L433.482 185.717L432.246 184.072L430.199 193.138Z" fill="url(#paint33_radial)"/>
<path d="M434.594 170.093L430.21 160.346C430.21 160.346 428.872 165.071 430.042 170.47C429.252 168.491 428.539 166.735 428.539 166.735C428.539 166.735 425.533 179.182 427.899 188.596C428.616 191.452 429.208 193.497 429.687 194.967L436.089 175.444L434.594 170.093Z" fill="url(#paint34_radial)"/>
<path d="M430.148 160.181C430.148 160.181 428.923 166.362 435.526 176.241L428.51 166.776L427.822 174.003C427.479 177.602 428.32 181.215 430.213 184.295L435.138 192.308L440.063 181.179L440.879 176.234L430.148 160.181Z" fill="#FFDE99"/>
<path d="M430.148 160.181C430.148 160.181 428.923 166.362 435.526 176.241L428.51 166.776L427.822 174.003C427.479 177.602 428.32 181.215 430.213 184.295L435.138 192.308L440.063 181.179L440.879 176.234L430.148 160.181Z" fill="url(#paint35_radial)"/>
<path d="M110.105 26.0131C108.284 28.416 108.357 32.0698 110.277 34.3959C112.493 37.0804 116.515 37.7936 118.606 40.5733C120.2 42.6909 120.269 45.8326 118.77 48.0197" stroke="#0061FE" stroke-width="0.385648" stroke-miterlimit="10"/>
<path d="M24.0041 259.857C24.5781 263.141 26.962 266.049 30.0735 267.256C33.1849 268.463 36.9033 267.918 39.5395 265.877" stroke="#0061FE" stroke-width="0.385648" stroke-miterlimit="10"/>
<path d="M352.028 57.2986C353.542 57.2986 354.77 56.0705 354.77 54.5556C354.77 53.0407 353.542 51.8125 352.028 51.8125C350.515 51.8125 349.286 53.0407 349.286 54.5556C349.286 56.0705 350.515 57.2986 352.028 57.2986Z" stroke="#0061FE" stroke-width="0.385648" stroke-miterlimit="10"/>
<path d="M407.786 272.354L415.83 280.035" stroke="#0061FE" stroke-width="0.385648" stroke-miterlimit="10"/>
<path d="M496.805 169.899L493.276 170.85L494.223 174.381L497.755 173.431L496.805 169.899Z" stroke="#FA404B" stroke-width="0.385648" stroke-miterlimit="10"/>
<defs>
<radialGradient id="paint0_radial" cx="0" cy="0" r="1" gradientUnits="userSpaceOnUse" gradientTransform="translate(417.585 221.408) rotate(18.9225) scale(124.355 64.6118)">
<stop stop-color="#F9C1DA"/>
<stop offset="0.9011" stop-color="white" stop-opacity="0"/>
</radialGradient>
<radialGradient id="paint1_radial" cx="0" cy="0" r="1" gradientUnits="userSpaceOnUse" gradientTransform="translate(183.127 224.343) rotate(-1.91473) scale(111.87 64.8659)">
<stop stop-color="#F9C1DA"/>
<stop offset="0.9011" stop-color="white" stop-opacity="0"/>
</radialGradient>
<radialGradient id="paint2_radial" cx="0" cy="0" r="1" gradientUnits="userSpaceOnUse" gradientTransform="translate(472.432 6.05063) scale(324.86 324.963)">
<stop stop-color="#DCE9FC"/>
<stop offset="0.7754" stop-color="#F7F8FC" stop-opacity="0"/>
</radialGradient>
<radialGradient id="paint3_radial" cx="0" cy="0" r="1" gradientUnits="userSpaceOnUse" gradientTransform="translate(-18.0456 37.0961) scale(380.279 380.4)">
<stop stop-color="#DCE9FC"/>
<stop offset="0.7754" stop-color="#F7F8FC" stop-opacity="0"/>
</radialGradient>
<radialGradient id="paint4_radial" cx="0" cy="0" r="1" gradientUnits="userSpaceOnUse" gradientTransform="translate(293.681 265.095) rotate(-4.83749) scale(334.219 93.6462)">
<stop stop-color="#DCE9FC"/>
<stop offset="0.7754" stop-color="#F7F8FC" stop-opacity="0"/>
</radialGradient>
<radialGradient id="paint5_radial" cx="0" cy="0" r="1" gradientUnits="userSpaceOnUse" gradientTransform="translate(55.6296 144.231) scale(24.737 24.7448)">
<stop stop-color="#B2B1F8"/>
<stop offset="0.1471" stop-color="#B0B0F8"/>
<stop offset="1" stop-color="#EECFF8" stop-opacity="0"/>
</radialGradient>
<radialGradient id="paint6_radial" cx="0" cy="0" r="1" gradientUnits="userSpaceOnUse" gradientTransform="translate(58.5393 135.638) scale(10.0687 10.0718)">
<stop stop-color="#B2B1F8"/>
<stop offset="0.1471" stop-color="#B0B0F8"/>
<stop offset="1" stop-color="#EECFF8"/>
</radialGradient>
<radialGradient id="paint7_radial" cx="0" cy="0" r="1" gradientUnits="userSpaceOnUse" gradientTransform="translate(72.1175 157.259) scale(33.825 33.8357)">
<stop stop-color="#B2B1F8"/>
<stop offset="0.1471" stop-color="#B0B0F8"/>
<stop offset="1" stop-color="#EECFF8"/>
</radialGradient>
<radialGradient id="paint8_radial" cx="0" cy="0" r="1" gradientUnits="userSpaceOnUse" gradientTransform="translate(81.5388 197.868) scale(66.3394 66.3603)">
<stop stop-color="#B2B1F8"/>
<stop offset="0.1471" stop-color="#B0B0F8"/>
<stop offset="1" stop-color="#EECFF8"/>
</radialGradient>
<radialGradient id="paint9_radial" cx="0" cy="0" r="1" gradientUnits="userSpaceOnUse" gradientTransform="translate(29.3046 155.042) scale(25.6528 25.661)">
<stop stop-color="#B2B1F8"/>
<stop offset="0.1471" stop-color="#B0B0F8"/>
<stop offset="1" stop-color="#EECFF8"/>
</radialGradient>
<radialGradient id="paint10_radial" cx="0" cy="0" r="1" gradientUnits="userSpaceOnUse" gradientTransform="translate(473.54 156.289) scale(118.702 118.74)">
<stop offset="0.131" stop-color="#B0B0F8"/>
<stop offset="0.1759" stop-color="#B7B7F9"/>
<stop offset="0.3876" stop-color="#D3D4FB"/>
<stop offset="0.5977" stop-color="#E8E9FD"/>
<stop offset="0.8034" stop-color="#F4F6FE"/>
<stop offset="1" stop-color="#F8FAFE"/>
</radialGradient>
<radialGradient id="paint11_radial" cx="0" cy="0" r="1" gradientUnits="userSpaceOnUse" gradientTransform="translate(529.426 50.4014) rotate(180) scale(45.1912 45.1693)">
<stop stop-color="#FA404B"/>
<stop offset="0.025" stop-color="#FA484F" stop-opacity="0.975"/>
<stop offset="0.1916" stop-color="#FC7565" stop-opacity="0.8084"/>
<stop offset="0.3589" stop-color="#FD9B78" stop-opacity="0.6411"/>
<stop offset="0.5244" stop-color="#FEB886" stop-opacity="0.4756"/>
<stop offset="0.6876" stop-color="#FECD91" stop-opacity="0.3124"/>
<stop offset="0.8474" stop-color="#FFDA97" stop-opacity="0.1526"/>
<stop offset="1" stop-color="#FFDE99" stop-opacity="0"/>
</radialGradient>
<radialGradient id="paint12_radial" cx="0" cy="0" r="1" gradientUnits="userSpaceOnUse" gradientTransform="translate(298.687 281.58) scale(72.5067 72.5297)">
<stop stop-color="#FA404B"/>
<stop offset="0.025" stop-color="#FA484F" stop-opacity="0.975"/>
<stop offset="0.1916" stop-color="#FC7565" stop-opacity="0.8084"/>
<stop offset="0.3589" stop-color="#FD9B78" stop-opacity="0.6411"/>
<stop offset="0.5244" stop-color="#FEB886" stop-opacity="0.4756"/>
<stop offset="0.6876" stop-color="#FECD91" stop-opacity="0.3124"/>
<stop offset="0.8474" stop-color="#FFDA97" stop-opacity="0.1526"/>
<stop offset="1" stop-color="#FFDE99" stop-opacity="0"/>
</radialGradient>
<radialGradient id="paint13_radial" cx="0" cy="0" r="1" gradientUnits="userSpaceOnUse" gradientTransform="translate(248.316 244.407) scale(65.981 62.6561)">
<stop stop-color="#FA404B"/>
<stop offset="0.025" stop-color="#FA484F" stop-opacity="0.975"/>
<stop offset="0.1916" stop-color="#FC7565" stop-opacity="0.8084"/>
<stop offset="0.3589" stop-color="#FD9B78" stop-opacity="0.6411"/>
<stop offset="0.5244" stop-color="#FEB886" stop-opacity="0.4756"/>
<stop offset="0.6876" stop-color="#FECD91" stop-opacity="0.3124"/>
<stop offset="0.8474" stop-color="#FFDA97" stop-opacity="0.1526"/>
<stop offset="1" stop-color="#FFDE99" stop-opacity="0"/>
</radialGradient>
<radialGradient id="paint14_radial" cx="0" cy="0" r="1" gradientUnits="userSpaceOnUse" gradientTransform="translate(128.635 197.868) scale(24.7479 24.7557)">
<stop stop-color="#FA404B"/>
<stop offset="0.025" stop-color="#FA484F" stop-opacity="0.975"/>
<stop offset="0.1916" stop-color="#FC7565" stop-opacity="0.8084"/>
<stop offset="0.3589" stop-color="#FD9B78" stop-opacity="0.6411"/>
<stop offset="0.5244" stop-color="#FEB886" stop-opacity="0.4756"/>
<stop offset="0.6876" stop-color="#FECD91" stop-opacity="0.3124"/>
<stop offset="0.8474" stop-color="#FFDA97" stop-opacity="0.1526"/>
<stop offset="1" stop-color="#FFDE99" stop-opacity="0"/>
</radialGradient>
<radialGradient id="paint15_radial" cx="0" cy="0" r="1" gradientUnits="userSpaceOnUse" gradientTransform="translate(117.92 181.791) scale(7.08413 7.08637)">
<stop stop-color="#FA404B"/>
<stop offset="0.025" stop-color="#FA484F" stop-opacity="0.975"/>
<stop offset="0.1916" stop-color="#FC7565" stop-opacity="0.8084"/>
<stop offset="0.3589" stop-color="#FD9B78" stop-opacity="0.6411"/>
<stop offset="0.5244" stop-color="#FEB886" stop-opacity="0.4756"/>
<stop offset="0.6876" stop-color="#FECD91" stop-opacity="0.3124"/>
<stop offset="0.8474" stop-color="#FFDA97" stop-opacity="0.1526"/>
<stop offset="1" stop-color="#FFDE99" stop-opacity="0"/>
</radialGradient>
<radialGradient id="paint16_radial" cx="0" cy="0" r="1" gradientUnits="userSpaceOnUse" gradientTransform="translate(198.65 189.183) scale(65.9127 65.9336)">
<stop stop-color="#FA404B"/>
<stop offset="0.025" stop-color="#FA484F" stop-opacity="0.975"/>
<stop offset="0.1916" stop-color="#FC7565" stop-opacity="0.8084"/>
<stop offset="0.3589" stop-color="#FD9B78" stop-opacity="0.6411"/>
<stop offset="0.5244" stop-color="#FEB886" stop-opacity="0.4756"/>
<stop offset="0.6876" stop-color="#FECD91" stop-opacity="0.3124"/>
<stop offset="0.8474" stop-color="#FFDA97" stop-opacity="0.1526"/>
<stop offset="1" stop-color="#FFDE99" stop-opacity="0"/>
</radialGradient>
<radialGradient id="paint17_radial" cx="0" cy="0" r="1" gradientUnits="userSpaceOnUse" gradientTransform="translate(245.204 67.0331) scale(56.9849 57.0029)">
<stop offset="0.0775" stop-color="#0144B9"/>
<stop offset="1" stop-color="#0061FE"/>
</radialGradient>
<radialGradient id="paint18_radial" cx="0" cy="0" r="1" gradientUnits="userSpaceOnUse" gradientTransform="translate(257.674 100.019) scale(22.9663 22.9736)">
<stop stop-color="#FA404B"/>
<stop offset="0.025" stop-color="#FA484F" stop-opacity="0.975"/>
<stop offset="0.1916" stop-color="#FC7565" stop-opacity="0.8084"/>
<stop offset="0.3589" stop-color="#FD9B78" stop-opacity="0.6411"/>
<stop offset="0.5244" stop-color="#FEB886" stop-opacity="0.4756"/>
<stop offset="0.6876" stop-color="#FECD91" stop-opacity="0.3124"/>
<stop offset="0.8474" stop-color="#FFDA97" stop-opacity="0.1526"/>
<stop offset="1" stop-color="#FFDE99" stop-opacity="0"/>
</radialGradient>
<radialGradient id="paint19_radial" cx="0" cy="0" r="1" gradientUnits="userSpaceOnUse" gradientTransform="translate(284.179 101.399) rotate(72.565) scale(43.7735 27.4183)">
<stop stop-color="#FA404B"/>
<stop offset="0.025" stop-color="#FA484F" stop-opacity="0.975"/>
<stop offset="0.1916" stop-color="#FC7565" stop-opacity="0.8084"/>
<stop offset="0.3589" stop-color="#FD9B78" stop-opacity="0.6411"/>
<stop offset="0.5244" stop-color="#FEB886" stop-opacity="0.4756"/>
<stop offset="0.6876" stop-color="#FECD91" stop-opacity="0.3124"/>
<stop offset="0.8474" stop-color="#FFDA97" stop-opacity="0.1526"/>
<stop offset="1" stop-color="#FFDE99" stop-opacity="0"/>
</radialGradient>
<radialGradient id="paint20_radial" cx="0" cy="0" r="1" gradientUnits="userSpaceOnUse" gradientTransform="translate(288.987 35.7104) scale(62.6294 62.6492)">
<stop offset="0.0775" stop-color="#0144B9"/>
<stop offset="1" stop-color="#0061FE"/>
</radialGradient>
<radialGradient id="paint21_radial" cx="0" cy="0" r="1" gradientUnits="userSpaceOnUse" gradientTransform="translate(210.15 221.014) scale(55.4339 55.4514)">
<stop offset="0.0989" stop-color="#FA404B"/>
<stop offset="1" stop-color="#F9C1DA" stop-opacity="0"/>
</radialGradient>
<radialGradient id="paint22_radial" cx="0" cy="0" r="1" gradientUnits="userSpaceOnUse" gradientTransform="translate(352.708 129.377) rotate(60.6125) scale(45.1718 28.876)">
<stop offset="0.0989" stop-color="#FA404B"/>
<stop offset="1" stop-color="#F9C1DA" stop-opacity="0"/>
</radialGradient>
<radialGradient id="paint23_radial" cx="0" cy="0" r="1" gradientUnits="userSpaceOnUse" gradientTransform="translate(80.8808 172.921) scale(59.7947 59.8136)">
<stop stop-color="#0061FE"/>
<stop offset="0.9225" stop-color="#0144B9"/>
</radialGradient>
<radialGradient id="paint24_radial" cx="0" cy="0" r="1" gradientUnits="userSpaceOnUse" gradientTransform="translate(333.601 233.626) scale(95.7247 95.755)">
<stop offset="0.0989" stop-color="#FA404B"/>
<stop offset="1" stop-color="#F9C1DA" stop-opacity="0"/>
</radialGradient>
<radialGradient id="paint25_radial" cx="0" cy="0" r="1" gradientUnits="userSpaceOnUse" gradientTransform="translate(424.491 259.682) scale(106.798 106.832)">
<stop stop-color="#F9C1DA"/>
<stop offset="0.1462" stop-color="#F2CEE4" stop-opacity="0.8538"/>
<stop offset="0.4384" stop-color="#E7E3F3" stop-opacity="0.5616"/>
<stop offset="0.7256" stop-color="#E0F0FC" stop-opacity="0.2744"/>
<stop offset="1" stop-color="#DEF4FF" stop-opacity="0"/>
</radialGradient>
<radialGradient id="paint26_radial" cx="0" cy="0" r="1" gradientUnits="userSpaceOnUse" gradientTransform="translate(197.265 139.38) scale(59.9636 59.9826)">
<stop stop-color="#F9C1DA"/>
<stop offset="0.1462" stop-color="#F2CEE4" stop-opacity="0.8538"/>
<stop offset="0.4384" stop-color="#E7E3F3" stop-opacity="0.5616"/>
<stop offset="0.7256" stop-color="#E0F0FC" stop-opacity="0.2744"/>
<stop offset="1" stop-color="#DEF4FF" stop-opacity="0"/>
</radialGradient>
<radialGradient id="paint27_radial" cx="0" cy="0" r="1" gradientUnits="userSpaceOnUse" gradientTransform="translate(223.313 209.788) scale(66.9752 66.9964)">
<stop offset="0.1096" stop-color="#BDD9FF"/>
<stop offset="1" stop-color="#DEF4FF" stop-opacity="0"/>
</radialGradient>
<radialGradient id="paint28_radial" cx="0" cy="0" r="1" gradientUnits="userSpaceOnUse" gradientTransform="translate(295.349 246.933) rotate(-13.8501) scale(100.219 51.224)">
<stop offset="0.1096" stop-color="#BDD9FF"/>
<stop offset="1" stop-color="#DEF4FF" stop-opacity="0"/>
</radialGradient>
<radialGradient id="paint29_radial" cx="0" cy="0" r="1" gradientUnits="userSpaceOnUse" gradientTransform="translate(252.224 88.4692) scale(19.0064 19.0124)">
<stop stop-color="#FA404B"/>
<stop offset="0.025" stop-color="#FA484F" stop-opacity="0.975"/>
<stop offset="0.1916" stop-color="#FC7565" stop-opacity="0.8084"/>
<stop offset="0.3589" stop-color="#FD9B78" stop-opacity="0.6411"/>
<stop offset="0.5244" stop-color="#FEB886" stop-opacity="0.4756"/>
<stop offset="0.6876" stop-color="#FECD91" stop-opacity="0.3124"/>
<stop offset="0.8474" stop-color="#FFDA97" stop-opacity="0.1526"/>
<stop offset="1" stop-color="#FFDE99" stop-opacity="0"/>
</radialGradient>
<radialGradient id="paint30_radial" cx="0" cy="0" r="1" gradientUnits="userSpaceOnUse" gradientTransform="translate(102.356 184.008) scale(21.7805 21.7875)">
<stop stop-color="#BDD9FF"/>
<stop offset="1" stop-color="#DEF4FF"/>
</radialGradient>
<radialGradient id="paint31_radial" cx="0" cy="0" r="1" gradientUnits="userSpaceOnUse" gradientTransform="translate(235.09 61.7665) scale(32.3706 32.3809)">
<stop offset="0.0989" stop-color="#FA404B"/>
<stop offset="1" stop-color="#F9C1DA" stop-opacity="0"/>
</radialGradient>
<radialGradient id="paint32_radial" cx="0" cy="0" r="1" gradientUnits="userSpaceOnUse" gradientTransform="translate(408.32 107.434) rotate(-0.0890091) scale(86.7237 86.7512)">
<stop offset="0.1096" stop-color="#BDD9FF"/>
<stop offset="1" stop-color="#0061FE" stop-opacity="0"/>
</radialGradient>
<radialGradient id="paint33_radial" cx="0" cy="0" r="1" gradientUnits="userSpaceOnUse" gradientTransform="translate(436.842 184.726) rotate(-0.089011) scale(15.9259 15.9313)">
<stop stop-color="#FA404B"/>
<stop offset="0.025" stop-color="#FA484F" stop-opacity="0.975"/>
<stop offset="0.1916" stop-color="#FC7565" stop-opacity="0.8084"/>
<stop offset="0.3589" stop-color="#FD9B78" stop-opacity="0.6411"/>
<stop offset="0.5244" stop-color="#FEB886" stop-opacity="0.4756"/>
<stop offset="0.6876" stop-color="#FECD91" stop-opacity="0.3124"/>
<stop offset="0.8474" stop-color="#FFDA97" stop-opacity="0.1526"/>
<stop offset="1" stop-color="#FFDE99" stop-opacity="0"/>
</radialGradient>
<radialGradient id="paint34_radial" cx="0" cy="0" r="1" gradientUnits="userSpaceOnUse" gradientTransform="translate(432.941 170.318) rotate(-0.0890091) scale(31.1943 31.2042)">
<stop offset="0.0989" stop-color="#0144B9"/>
<stop offset="1" stop-color="#0061FE" stop-opacity="0"/>
</radialGradient>
<radialGradient id="paint35_radial" cx="0" cy="0" r="1" gradientUnits="userSpaceOnUse" gradientTransform="translate(446.396 181.108) rotate(-0.0890094) scale(20.8294 20.8361)">
<stop stop-color="#FA404B"/>
<stop offset="0.025" stop-color="#FA484F" stop-opacity="0.975"/>
<stop offset="0.1916" stop-color="#FC7565" stop-opacity="0.8084"/>
<stop offset="0.3589" stop-color="#FD9B78" stop-opacity="0.6411"/>
<stop offset="0.5244" stop-color="#FEB886" stop-opacity="0.4756"/>
<stop offset="0.6876" stop-color="#FECD91" stop-opacity="0.3124"/>
<stop offset="0.8474" stop-color="#FFDA97" stop-opacity="0.1526"/>
<stop offset="1" stop-color="#FFDE99" stop-opacity="0"/>
</radialGradient>
</defs>
</svg>
