<svg width="46" height="46" viewBox="0 0 46 46" fill="none" xmlns="http://www.w3.org/2000/svg">
<path d="M45.04 43.95H42.43V8.28003C42.43 8.0493 42.3383 7.82801 42.1752 7.66485C42.012 7.50169 41.7907 7.41003 41.56 7.41003H33.44C33.2093 7.41003 32.988 7.50169 32.8248 7.66485C32.6617 7.82801 32.57 8.0493 32.57 8.28003V43.95H27.93V21.62C27.93 21.3893 27.8383 21.168 27.6752 21.0049C27.512 20.8417 27.2907 20.75 27.06 20.75H18.94C18.7093 20.75 18.488 20.8417 18.3248 21.0049C18.1617 21.168 18.07 21.3893 18.07 21.62V43.95H13.43V34.38C13.43 34.1493 13.3383 33.928 13.1752 33.7649C13.012 33.6017 12.7907 33.51 12.56 33.51H4.44C4.20926 33.51 3.98797 33.6017 3.82481 33.7649C3.66166 33.928 3.57 34.1493 3.57 34.38V43.95H0.959996C0.729258 43.95 0.50797 44.0417 0.344813 44.2048C0.181657 44.368 0.0899963 44.5893 0.0899963 44.82C0.0899963 45.0508 0.181657 45.2721 0.344813 45.4352C0.50797 45.5984 0.729258 45.69 0.959996 45.69H45.04C45.2707 45.69 45.492 45.5984 45.6552 45.4352C45.8183 45.2721 45.91 45.0508 45.91 44.82C45.91 44.5893 45.8183 44.368 45.6552 44.2048C45.492 44.0417 45.2707 43.95 45.04 43.95ZM34.31 9.15003H40.69V43.95H34.31V9.15003ZM19.81 22.49H26.19V43.95H19.81V22.49ZM5.31 35.25H11.69V43.95H5.31V35.25Z" fill="#FFC107"/>
<path d="M1.54 27.7099C1.77066 27.7097 1.9918 27.618 2.1548 27.4548L26.19 3.41955V7.11995C26.19 7.35069 26.2817 7.57198 26.4448 7.73513C26.608 7.89829 26.8293 7.98995 27.06 7.98995C27.2907 7.98995 27.512 7.89829 27.6752 7.73513C27.8383 7.57198 27.93 7.35069 27.93 7.11995V1.31995C27.9291 1.21054 27.9075 1.10229 27.8662 1.00095C27.8225 0.89408 27.7579 0.796986 27.6762 0.715332C27.5946 0.633677 27.4975 0.569095 27.3906 0.525351C27.2865 0.478633 27.1741 0.453006 27.06 0.449951H21.26C21.0293 0.449951 20.808 0.541612 20.6448 0.704768C20.4817 0.867925 20.39 1.08921 20.39 1.31995C20.39 1.55069 20.4817 1.77198 20.6448 1.93513C20.808 2.09829 21.0293 2.18995 21.26 2.18995H24.9604L0.925196 26.2251C0.803679 26.3468 0.720942 26.5018 0.687437 26.6704C0.653931 26.8391 0.671158 27.0139 0.736943 27.1728C0.802729 27.3317 0.914121 27.4675 1.05705 27.5631C1.19998 27.6587 1.36804 27.7098 1.54 27.7099Z" fill="#FFC107"/>
</svg>
