<svg width="32" height="32" viewBox="0 0 32 32" fill="none" xmlns="http://www.w3.org/2000/svg">
<g clip-path="url(#clip0)">
<path d="M14.7659 21.7041C15.0103 21.4597 15.0103 21.0642 14.7659 20.8198C14.5213 20.5762 14.125 20.5762 13.8801 20.8198C13.636 21.0642 13.636 21.4597 13.8801 21.7041C14.125 21.9478 14.5213 21.9478 14.7659 21.7041Z" fill="#FFC107"/>
<path d="M11.8011 6.87305C11.8011 10.6628 14.8904 13.7463 18.6876 13.7463C22.4849 13.7463 25.5741 10.6628 25.5741 6.87305C25.5741 3.08325 22.4849 0 18.6876 0C14.8904 0 11.8011 3.08325 11.8011 6.87305ZM24.3222 6.87305C24.3222 9.97388 21.7945 12.4966 18.6876 12.4966C15.5807 12.4966 13.0531 9.97388 13.0531 6.87305C13.0531 3.77246 15.5807 1.24976 18.6876 1.24976C21.7945 1.24976 24.3222 3.77246 24.3222 6.87305Z" fill="#FFC107"/>
<path d="M7.24235 31.8152C7.48502 32.0593 7.88007 32.062 8.12592 31.8203L11.1611 28.8359C11.6768 28.3213 11.8336 27.5593 11.6068 26.897L12.2597 26.2686C12.6112 25.9297 13.0741 25.7429 13.5633 25.7429H21.8859C23.3625 25.7429 24.758 25.177 25.816 24.1494C25.8595 24.1072 25.4855 24.5469 31.4938 17.3799C32.385 16.3276 32.2516 14.7476 31.1964 13.8572C30.1477 12.9751 28.5767 13.1018 27.6832 14.136L23.9889 17.9255C23.5224 17.3525 22.8111 16.9954 22.0425 16.9954H15.0613C14.0679 16.5806 13.0139 16.3706 11.9263 16.3706C8.91163 16.3706 6.27929 17.7603 4.86662 20.3657C4.27146 20.2532 3.64377 20.4329 3.19221 20.8836L0.21398 23.8648C-0.0291704 24.1082 -0.0296597 24.502 0.213002 24.7461L7.24235 31.8152ZM11.9261 17.6201C12.885 17.6201 13.8121 17.8127 14.6822 18.1926C14.7614 18.2273 14.8468 18.2451 14.9332 18.2451H22.0425C22.7213 18.2451 23.2947 18.7976 23.2947 19.4946C23.2947 20.1838 22.7331 20.7444 22.0425 20.7444H16.9346C16.589 20.7444 16.3086 21.0242 16.3086 21.3691C16.3086 21.7144 16.589 21.9939 16.9346 21.9939H22.0425C23.4234 21.9939 24.5467 20.8728 24.5467 19.4946C24.5467 19.3848 24.5388 19.2759 24.5246 19.168C28.0983 15.5017 28.6022 14.9866 28.6237 14.9609C29.0699 14.4353 29.862 14.3687 30.3889 14.812C30.9163 15.2571 30.9831 16.0471 30.5356 16.5757L24.9204 23.2754C24.1005 24.061 23.0239 24.4934 21.8859 24.4934H13.5633C12.7477 24.4934 11.9757 24.8047 11.3901 25.3694L10.8581 25.8818L5.95346 20.9871C7.09974 18.8408 9.25067 17.6201 11.9261 17.6201ZM4.07822 21.7666C4.28467 21.5606 4.6017 21.5234 4.85341 21.6787C4.96178 21.7446 4.65062 21.4619 10.2759 27.0684C10.5261 27.3181 10.5127 27.7161 10.2793 27.949L7.69172 30.4932L1.5403 24.3069L4.07822 21.7666Z" fill="#FFC107"/>
<path d="M17.9364 3.12427V3.85645C17.2077 4.11426 16.6842 4.80884 16.6842 5.62354C16.6842 6.65698 17.5266 7.49805 18.5624 7.49805C18.9075 7.49805 19.1883 7.77832 19.1883 8.12281C19.1883 8.46729 18.9075 8.74756 18.5624 8.74756C18.295 8.74756 18.0061 8.57984 17.7495 8.27491C17.5269 8.01074 17.1321 7.97681 16.8674 8.19873C16.6027 8.4209 16.5685 8.81494 16.7911 9.0791C17.1257 9.47632 17.5193 9.75318 17.9364 9.89283V10.6221C17.9364 10.9673 18.2167 11.2468 18.5624 11.2468C18.908 11.2468 19.1883 10.9673 19.1883 10.6221V9.8899C19.9171 9.63184 20.4405 8.93726 20.4405 8.12281C20.4405 7.08911 19.5981 6.24829 18.5624 6.24829C18.2172 6.24829 17.9364 5.96802 17.9364 5.62354C17.9364 5.27905 18.2172 4.99854 18.5624 4.99854C18.7842 4.99854 19.0183 5.11157 19.2395 5.3252C19.488 5.56519 19.8843 5.5586 20.1247 5.31079C20.3652 5.06275 20.3586 4.66724 20.1103 4.42725C19.7926 4.12036 19.4745 3.94678 19.1883 3.85205V3.12427C19.1883 2.77905 18.908 2.49927 18.5624 2.49927C18.2167 2.49927 17.9364 2.77905 17.9364 3.12427Z" fill="#FFC107"/>
</g>
<defs>
<clipPath id="clip0">
<rect width="32" height="32" fill="white"/>
</clipPath>
</defs>
</svg>
