<svg width="598" height="482" viewBox="0 0 598 482" fill="none" xmlns="http://www.w3.org/2000/svg">
<g clip-path="url(#clip0)">
<path d="M143.607 338.313L150.115 331.784L151.075 323.007C151.126 322.168 151.318 321.499 152.155 321.366L152.583 321.341C152.994 321.345 153.39 321.502 153.692 321.781C153.994 322.061 154.181 322.443 154.216 322.854L155.189 341.35C155.216 341.887 155.044 342.416 154.706 342.835C154.368 343.254 153.887 343.534 153.356 343.621L144.704 345.021L143.607 338.313Z" fill="#FFBDA1"/>
<path d="M483.974 254.596H483.916C486.227 252.246 487.716 249.212 488.163 245.946C488.609 242.68 487.988 239.357 486.393 236.473V236.473C486.15 235.986 485.965 235.704 485.965 235.704H486.031C483.171 230.082 482.165 223.699 483.157 217.47C484.148 211.24 487.087 205.485 491.552 201.03C496.53 194.441 492.767 185.68 492.767 185.68C491.633 182.487 491.282 179.068 491.744 175.71C492.206 172.353 493.468 169.156 495.422 166.387C497.376 163.619 499.967 161.36 502.975 159.801C505.984 158.242 509.323 157.428 512.711 157.428C516.1 157.428 519.439 158.242 522.448 159.801C525.456 161.36 528.047 163.619 530.001 166.387C531.955 169.156 533.217 172.353 533.679 175.71C534.141 179.068 533.79 182.487 532.656 185.68C532.656 185.68 528.89 194.433 533.871 201.03C538.335 205.484 541.275 211.237 542.268 217.465C543.261 223.693 542.257 230.075 539.4 235.697H539.421C539.421 235.697 539.383 235.755 539.327 235.85C539.159 236.181 538.991 236.509 538.809 236.823C537.408 239.523 536.847 242.581 537.197 245.603C537.547 248.625 538.793 251.473 540.773 253.782C540.953 253.993 541.138 254.203 541.315 254.419C541.369 254.475 541.408 254.536 541.464 254.592H541.444C545.791 260.009 548.519 266.546 549.313 273.447C550.106 280.348 548.934 287.333 545.93 293.597C542.926 299.86 538.213 305.147 532.335 308.847C526.457 312.548 519.652 314.511 512.707 314.511C505.761 314.511 498.957 312.548 493.079 308.847C487.2 305.147 482.488 299.86 479.484 293.597C476.48 287.333 475.307 280.348 476.1 273.447C476.894 266.546 479.622 260.009 483.969 254.592L483.974 254.596Z" fill="#00C0CD"/>
<path d="M501.879 270.503L510.905 279.433V248.054L499.819 237.088C499.544 236.815 499.387 236.443 499.385 236.055C499.383 235.667 499.535 235.293 499.809 235.017C500.082 234.741 500.453 234.585 500.841 234.583C501.229 234.581 501.603 234.733 501.879 235.007L510.905 243.935V200.655C510.905 200.269 511.059 199.897 511.332 199.624C511.606 199.35 511.977 199.197 512.364 199.197C512.751 199.197 513.122 199.35 513.395 199.624C513.669 199.897 513.822 200.269 513.822 200.655V226.735L522.598 218.008C522.735 217.873 522.896 217.766 523.074 217.692C523.251 217.619 523.442 217.582 523.634 217.582C523.826 217.583 524.016 217.621 524.193 217.695C524.371 217.769 524.532 217.877 524.667 218.013C524.803 218.15 524.91 218.311 524.983 218.489C525.056 218.666 525.094 218.857 525.093 219.049C525.093 219.241 525.055 219.431 524.981 219.609C524.907 219.786 524.799 219.947 524.662 220.082L513.822 230.863V262.379L523.522 252.581C523.795 252.305 524.166 252.149 524.554 252.146C524.942 252.144 525.315 252.296 525.591 252.569C525.867 252.841 526.023 253.213 526.026 253.601C526.028 253.989 525.876 254.362 525.603 254.638L513.822 266.552V350.149C513.822 350.536 513.669 350.907 513.395 351.18C513.122 351.454 512.751 351.608 512.364 351.608C511.977 351.608 511.606 351.454 511.332 351.18C511.059 350.907 510.905 350.536 510.905 350.149V283.552L499.819 272.584C499.544 272.311 499.387 271.94 499.385 271.551C499.383 271.163 499.535 270.79 499.809 270.514C500.082 270.238 500.453 270.082 500.841 270.08C501.229 270.077 501.603 270.23 501.879 270.503V270.503Z" fill="#009DB0"/>
<path d="M508.212 446.628H33.2227C32.9228 446.614 32.6397 446.485 32.4322 446.268C32.2248 446.051 32.1091 445.762 32.1091 445.462C32.1091 445.161 32.2248 444.873 32.4322 444.656C32.6397 444.438 32.9228 444.31 33.2227 444.296H508.212C508.369 444.289 508.526 444.314 508.674 444.369C508.822 444.424 508.957 444.509 509.071 444.618C509.185 444.727 509.276 444.858 509.338 445.003C509.4 445.148 509.432 445.304 509.432 445.462C509.432 445.62 509.4 445.776 509.338 445.921C509.276 446.066 509.185 446.197 509.071 446.306C508.957 446.415 508.822 446.499 508.674 446.555C508.526 446.61 508.369 446.635 508.212 446.628V446.628Z" fill="#CADFEF"/>
<path d="M190.624 22.335H359.993C367.649 22.335 374.992 25.377 380.406 30.7918C385.82 36.2065 388.861 43.5505 388.861 51.2081V415.301C388.861 422.959 385.82 430.303 380.406 435.718C374.992 441.132 367.649 444.174 359.993 444.174H190.624C186.832 444.174 183.078 443.427 179.575 441.976C176.072 440.525 172.89 438.398 170.209 435.717C167.528 433.036 165.401 429.852 163.95 426.349C162.499 422.846 161.753 419.091 161.753 415.299V51.2106C161.752 47.4185 162.499 43.6635 163.95 40.16C165.4 36.6565 167.527 33.4732 170.208 30.7918C172.889 28.1104 176.072 25.9834 179.575 24.5324C183.078 23.0814 186.832 22.3347 190.624 22.335Z" fill="#214A81"/>
<path d="M269.934 427.976C266.473 427.976 263.089 426.95 260.211 425.027C257.333 423.104 255.089 420.37 253.764 417.172C252.439 413.974 252.092 410.455 252.766 407.059C253.441 403.664 255.106 400.544 257.553 398.096C260 395.647 263.118 393.978 266.512 393.302C269.907 392.625 273.426 392.97 276.624 394.293C279.823 395.616 282.557 397.858 284.482 400.735C286.407 403.613 287.436 406.996 287.438 410.458C287.433 415.101 285.588 419.552 282.307 422.836C279.026 426.12 274.576 427.969 269.934 427.976V427.976Z" fill="white"/>
<path d="M296.131 39.124H255.827C255.325 39.124 254.843 39.3235 254.488 39.6788C254.133 40.034 253.933 40.5157 253.933 41.0181C253.933 41.5204 254.133 42.0022 254.488 42.3574C254.843 42.7126 255.325 42.9121 255.827 42.9121H296.131C296.634 42.9121 297.115 42.7126 297.47 42.3574C297.826 42.0022 298.025 41.5204 298.025 41.0181C298.025 40.5157 297.826 40.034 297.47 39.6788C297.115 39.3235 296.634 39.124 296.131 39.124V39.124Z" fill="#84B4FE"/>
<path d="M246.584 43.5467C246.253 43.5469 245.926 43.4812 245.621 43.3535C245.316 43.2257 245.039 43.0385 244.807 42.8027C244.69 42.6828 244.584 42.5526 244.491 42.4137C244.396 42.2788 244.314 42.1346 244.248 41.9833C244.19 41.8315 244.143 41.6755 244.109 41.5165C244.041 41.1877 244.041 40.8484 244.109 40.5196C244.15 40.361 244.2 40.205 244.26 40.0528C244.324 39.8993 244.4 39.7513 244.489 39.6103C244.677 39.3397 244.913 39.1051 245.184 38.9173C245.323 38.8285 245.47 38.7528 245.624 38.6912C245.775 38.6275 245.931 38.5762 246.091 38.538C246.416 38.4748 246.75 38.4748 247.075 38.538C247.241 38.5755 247.404 38.6267 247.561 38.6912C247.711 38.7534 247.855 38.8291 247.992 38.9173C248.131 39.0108 248.261 39.1166 248.381 39.2334C248.497 39.3491 248.603 39.4752 248.697 39.6103C248.786 39.7508 248.862 39.8988 248.925 40.0528C248.989 40.2026 249.036 40.3592 249.064 40.5196C249.099 40.6859 249.115 40.8555 249.112 41.0254C249.112 41.1881 249.1 41.3507 249.076 41.5116C249.04 41.6715 248.99 41.8278 248.925 41.9785C248.865 42.1297 248.788 42.274 248.697 42.4088C248.604 42.5483 248.498 42.6785 248.381 42.7979C248.261 42.9146 248.131 43.0204 247.992 43.114C247.855 43.2029 247.711 43.2794 247.561 43.3425C247.404 43.4062 247.241 43.4566 247.075 43.4933C246.913 43.5237 246.749 43.5416 246.584 43.5467Z" fill="#84B4FE"/>
<path d="M369.659 59.3364H178.517V376.984H369.659V59.3364Z" fill="white"/>
<path d="M369.659 59.3364H178.517V91.6208H369.659V59.3364Z" fill="#84B4FE"/>
<path d="M203.041 75.6853C203.04 76.8028 202.706 77.8948 202.084 78.8229C201.462 79.7511 200.578 80.4738 199.545 80.8997C198.512 81.3256 197.376 81.4356 196.28 81.2157C195.184 80.9957 194.179 80.4558 193.39 79.6642C192.601 78.8726 192.065 77.8649 191.849 76.7684C191.633 75.6719 191.746 74.5359 192.176 73.5041C192.605 72.4724 193.331 71.5911 194.261 70.9718C195.191 70.3525 196.284 70.023 197.401 70.0249C198.9 70.0281 200.335 70.6261 201.393 71.6875C202.45 72.7489 203.043 74.1868 203.041 75.6853V75.6853Z" fill="#387FFD"/>
<path d="M221.06 75.6853C221.059 76.8024 220.726 77.894 220.104 78.8219C219.482 79.7499 218.599 80.4726 217.566 80.8988C216.534 81.325 215.398 81.4355 214.303 81.2164C213.207 80.9973 212.201 80.4583 211.412 79.6677C210.623 78.8771 210.086 77.8702 209.869 76.7743C209.652 75.6785 209.764 74.5428 210.192 73.5109C210.62 72.4789 211.344 71.597 212.273 70.9765C213.202 70.3561 214.294 70.0249 215.411 70.0249C216.153 70.0249 216.889 70.1714 217.575 70.456C218.261 70.7405 218.884 71.1576 219.409 71.6834C219.934 72.2091 220.35 72.8332 220.633 73.5199C220.917 74.2066 221.062 74.9424 221.06 75.6853Z" fill="#FFD474"/>
<path d="M239.079 75.6853C239.077 76.8024 238.744 77.894 238.123 78.8219C237.501 79.7499 236.617 80.4726 235.585 80.8988C234.552 81.325 233.417 81.4355 232.321 81.2164C231.226 80.9973 230.22 80.4583 229.431 79.6677C228.642 78.8771 228.105 77.8702 227.888 76.7743C227.67 75.6785 227.783 74.5428 228.211 73.5109C228.639 72.4789 229.363 71.597 230.292 70.9765C231.221 70.3561 232.313 70.0249 233.43 70.0249C234.172 70.0249 234.908 70.1714 235.594 70.456C236.28 70.7405 236.903 71.1576 237.428 71.6834C237.953 72.2091 238.369 72.8332 238.652 73.5199C238.935 74.2066 239.081 74.9424 239.079 75.6853Z" fill="#387FFD"/>
<path d="M312.04 304.47H158.855C153.82 304.47 149.738 308.552 149.738 313.588V351.469C149.738 356.505 153.82 360.587 158.855 360.587H312.04C317.075 360.587 321.157 356.505 321.157 351.469V313.588C321.157 308.552 317.075 304.47 312.04 304.47Z" fill="#84B4FE"/>
<path d="M141.903 355.316L148.411 348.787L149.369 340.01C149.42 339.171 149.612 338.502 150.45 338.366L150.876 338.344C151.288 338.346 151.684 338.503 151.987 338.782C152.289 339.061 152.477 339.444 152.512 339.854L153.484 358.35C153.512 358.888 153.34 359.417 153.002 359.836C152.664 360.255 152.183 360.534 151.651 360.621L142.999 362.024L141.903 355.316Z" fill="#FFBDA1"/>
<path d="M109.006 452.4C109.147 451.734 114.031 435.137 114.031 435.137L122.87 435.54L117.955 452.803L109.006 452.4Z" fill="#FFBDA1"/>
<path d="M133.511 457.238L108.833 456.222L109.179 448.651L126.218 449.351C128.231 449.43 130.13 450.305 131.497 451.784C132.865 453.263 133.589 455.225 133.511 457.238V457.238Z" fill="#1E1A1E"/>
<path d="M3.93591 440.573C4.56556 440.318 21.0602 435.137 21.0602 435.137L25.6501 442.703L8.57436 448.237L3.93591 440.573Z" fill="#FFBDA1"/>
<path d="M76.0482 375.061L131.313 381.329L132.376 381.451C134.632 381.709 136.694 382.853 138.107 384.631C139.521 386.41 140.17 388.677 139.912 390.934C139.844 391.511 139.721 392.081 139.545 392.636L125.367 437.588L110.649 436.603L122.474 387.79L130.715 399.081L75.1536 396.076L76.0482 375.061Z" fill="#03345F"/>
<path d="M85.7992 390.413L64.367 432.38L63.7276 433.556C63.2306 434.464 62.555 435.262 61.7416 435.903C60.9282 436.543 59.9937 437.012 58.9944 437.281L21.2766 447.35L17.1171 434.4L53.6436 420.621L48.271 425.521L62.7212 379.982L85.7992 390.413Z" fill="#03345F"/>
<path d="M6.42527 439.577L11.2485 449.9V455.213C11.2485 455.213 16.2151 456.091 17.2386 459.451H5.83453L0 441.215L6.42527 439.577Z" fill="#1E1A1E"/>
<path d="M116.545 356.381H116.28L87.1606 355.136L87.693 342.687L115.636 343.881L145.491 334.59L146.629 346.375L118.567 356.048C117.916 356.27 117.233 356.382 116.545 356.381V356.381Z" fill="#F7C869"/>
<path d="M86.6597 339.042L85.6581 338.349L83.1371 340.236C78.4169 343.768 74.8767 348.648 72.9826 354.231L70.6756 359.298L58.5714 385.747L83.9953 388.359L93.6028 373.165C97.0707 367.68 98.2845 361.067 96.9906 354.707C95.6966 348.348 91.9951 342.735 86.6597 339.042V339.042Z" fill="#FFD474"/>
<path d="M87.7634 334.498L84.5179 340.431L91.1742 346.725L95.6473 334.61L87.7634 334.498Z" fill="#FFBDA1"/>
<path d="M105.887 324.069L103.235 322.73L101.462 326.229L104.061 327.024L105.909 326.051C106.091 325.956 106.243 325.813 106.348 325.637C106.454 325.461 106.508 325.259 106.506 325.054C106.504 324.848 106.445 324.648 106.335 324.474C106.226 324.3 106.071 324.16 105.887 324.069Z" fill="#FFBDA1"/>
<path d="M103.928 329.652C103.241 331.892 101.906 333.877 100.092 335.358C98.2773 336.839 96.0645 337.748 93.7332 337.971C91.4019 338.194 89.0569 337.721 86.9946 336.611C84.9323 335.501 83.2453 333.804 82.147 331.736C81.0487 329.667 80.5884 327.319 80.8243 324.988C81.0602 322.658 81.9817 320.45 83.4722 318.643C84.9628 316.837 86.9554 315.513 89.1983 314.839C91.4412 314.165 93.8335 314.171 96.0728 314.857C99.0759 315.777 101.591 317.853 103.064 320.628C104.537 323.402 104.847 326.648 103.928 329.652V329.652Z" fill="#FFBDA1"/>
<path d="M97.5217 311.48L81.9119 338.731L77.7888 318.402L97.5217 311.48Z" fill="#072042"/>
<path d="M90.5981 326.647C90.4075 327.275 90.0349 327.832 89.5274 328.248C89.0198 328.665 88.4003 328.921 87.7471 328.985C87.0939 329.048 86.4365 328.917 85.8581 328.607C85.2797 328.296 84.8063 327.822 84.4979 327.242C84.1895 326.663 84.06 326.005 84.1257 325.352C84.1913 324.699 84.4493 324.08 84.8669 323.574C85.2845 323.067 85.843 322.696 86.4716 322.507C87.1001 322.319 87.7706 322.321 88.398 322.513C89.2365 322.771 89.9388 323.351 90.3511 324.126C90.7634 324.9 90.8522 325.807 90.5981 326.647V326.647Z" fill="#FFBDA1"/>
<path d="M112.65 373.449C111.608 373.45 110.582 373.188 109.667 372.688L77.3074 355.036L83.2732 344.095L113.732 360.709L144.485 351.316L146.578 363.597L113.695 373.354C113.35 373.416 113.001 373.448 112.65 373.449V373.449Z" fill="#FFD474"/>
<path d="M300.354 322.795H214.185C212.839 322.795 211.747 323.887 211.747 325.234V325.468C211.747 326.814 212.839 327.906 214.185 327.906H300.354C301.701 327.906 302.792 326.814 302.792 325.468V325.234C302.792 323.887 301.701 322.795 300.354 322.795Z" fill="#EBF5FF"/>
<path d="M263.3 334.794H214.185C212.839 334.794 211.747 335.886 211.747 337.233V337.467C211.747 338.813 212.839 339.905 214.185 339.905H263.3C264.647 339.905 265.738 338.813 265.738 337.467V337.233C265.738 335.886 264.647 334.794 263.3 334.794Z" fill="#EBF5FF"/>
<path d="M183.826 348.751C192.784 348.751 200.046 341.488 200.046 332.528C200.046 323.569 192.784 316.306 183.826 316.306C174.868 316.306 167.606 323.569 167.606 332.528C167.606 341.488 174.868 348.751 183.826 348.751Z" fill="#EBF5FF"/>
<path d="M350.679 118.067H197.494C192.459 118.067 188.377 122.15 188.377 127.185V165.067C188.377 170.102 192.459 174.185 197.494 174.185H350.679C355.714 174.185 359.796 170.102 359.796 165.067V127.185C359.796 122.15 355.714 118.067 350.679 118.067Z" fill="#EBF5FF"/>
<path d="M338.993 136.391H252.825C251.478 136.391 250.386 137.482 250.386 138.829V139.063C250.386 140.41 251.478 141.501 252.825 141.501H338.993C340.34 141.501 341.432 140.41 341.432 139.063V138.829C341.432 137.482 340.34 136.391 338.993 136.391Z" fill="white"/>
<path d="M301.939 148.39H252.825C251.478 148.39 250.386 149.481 250.386 150.828V151.062C250.386 152.409 251.478 153.5 252.825 153.5H301.939C303.286 153.5 304.377 152.409 304.377 151.062V150.828C304.377 149.481 303.286 148.39 301.939 148.39Z" fill="white"/>
<path d="M222.468 162.348C231.426 162.348 238.688 155.085 238.688 146.126C238.688 137.167 231.426 129.904 222.468 129.904C213.51 129.904 206.248 137.167 206.248 146.126C206.248 155.085 213.51 162.348 222.468 162.348Z" fill="white"/>
<path d="M349.629 207.925H196.444C191.409 207.925 187.327 212.008 187.327 217.043V254.925C187.327 259.96 191.409 264.043 196.444 264.043H349.629C354.664 264.043 358.746 259.96 358.746 254.925V217.043C358.746 212.008 354.664 207.925 349.629 207.925Z" fill="#84B4FE"/>
<path d="M337.943 226.249H251.774C250.428 226.249 249.336 227.34 249.336 228.687V228.921C249.336 230.268 250.428 231.359 251.774 231.359H337.943C339.29 231.359 340.381 230.268 340.381 228.921V228.687C340.381 227.34 339.29 226.249 337.943 226.249Z" fill="#EBF5FF"/>
<path d="M300.889 238.248H251.774C250.428 238.248 249.336 239.339 249.336 240.686V240.92C249.336 242.267 250.428 243.358 251.774 243.358H300.889C302.236 243.358 303.327 242.267 303.327 240.92V240.686C303.327 239.339 302.236 238.248 300.889 238.248Z" fill="#EBF5FF"/>
<path d="M221.415 252.206C230.373 252.206 237.635 244.943 237.635 235.984C237.635 227.025 230.373 219.762 221.415 219.762C212.457 219.762 205.195 227.025 205.195 235.984C205.195 244.943 212.457 252.206 221.415 252.206Z" fill="#EBF5FF"/>
<path d="M528.409 353.324H481.626C481.268 353.309 480.93 353.157 480.682 352.898C480.434 352.64 480.296 352.295 480.296 351.937C480.296 351.579 480.434 351.235 480.682 350.976C480.93 350.718 481.268 350.565 481.626 350.55H528.409C528.596 350.542 528.782 350.572 528.958 350.638C529.133 350.705 529.293 350.806 529.428 350.935C529.563 351.065 529.67 351.22 529.744 351.392C529.817 351.565 529.855 351.75 529.855 351.937C529.855 352.124 529.817 352.31 529.744 352.482C529.67 352.654 529.563 352.81 529.428 352.939C529.293 353.069 529.133 353.17 528.958 353.236C528.782 353.302 528.596 353.332 528.409 353.324V353.324Z" fill="#CADFEF"/>
<path d="M445.549 370.147C444.753 369.935 443.921 369.891 443.108 370.019C442.294 370.146 441.515 370.442 440.822 370.887C440.129 371.333 439.537 371.918 439.083 372.605C438.629 373.292 438.323 374.067 438.185 374.879C437.823 376.569 438.107 378.333 438.979 379.824C439.852 381.316 441.251 382.427 442.901 382.939C443.697 383.152 444.528 383.196 445.342 383.069C446.156 382.942 446.934 382.646 447.627 382.201C448.32 381.756 448.913 381.171 449.367 380.484C449.821 379.797 450.127 379.022 450.265 378.21C450.626 376.52 450.343 374.756 449.47 373.264C448.597 371.772 447.199 370.661 445.549 370.147V370.147Z" fill="#FFBDA1"/>
<path d="M333.745 243.536C335.627 243.597 337.412 244.391 338.719 245.747C340.026 247.104 340.752 248.917 340.744 250.801C340.764 251.723 340.6 252.64 340.26 253.497C339.92 254.354 339.412 255.135 338.765 255.792C338.118 256.449 337.346 256.97 336.495 257.324C335.644 257.678 334.73 257.858 333.808 257.852C331.925 257.791 330.141 256.998 328.834 255.642C327.526 254.286 326.799 252.473 326.806 250.59C326.786 249.667 326.951 248.75 327.291 247.893C327.63 247.035 328.139 246.255 328.786 245.597C329.433 244.939 330.205 244.418 331.056 244.064C331.908 243.71 332.822 243.531 333.745 243.536Z" fill="#FFBDA1"/>
<path d="M383 475.987L392.095 475.647L391.956 459.65L382.708 460.061L383 475.987Z" fill="#FAAAAB"/>
<path d="M368.217 482L392.26 481.725L392.114 472.641L377.615 472.795C376.377 472.715 375.136 472.896 373.972 473.328C372.809 473.76 371.749 474.431 370.863 475.3C369.976 476.168 369.282 477.214 368.826 478.368C368.37 479.523 368.163 480.76 368.217 482V482Z" fill="#241C2B"/>
<path d="M423.446 475.987L414.353 475.647L412.448 459.65L421.695 460.061L423.446 475.987Z" fill="#FAAAAB"/>
<path d="M438.229 482L415.044 481.72L413.996 472.641L428.826 472.795C430.064 472.715 431.305 472.896 432.469 473.328C433.632 473.76 434.692 474.431 435.578 475.3C436.465 476.168 437.159 477.214 437.615 478.368C438.07 479.523 438.278 480.76 438.224 482H438.229Z" fill="#241C2B"/>
<path d="M382.405 351.71L398.197 351.121L399.838 351.061L415.63 350.472L415.824 373.581L383.601 374.782L382.405 351.71Z" fill="#03345F"/>
<path d="M411.217 467.287L425.561 467.19L418.01 407.693L415.622 350.472L400.392 352.967L402.456 408.233C402.44 408.863 402.495 409.492 402.619 410.11L411.217 467.287Z" fill="#03345F"/>
<path d="M379.833 466.607L393.502 466.726L391.482 410.054L399.123 353.422L382.405 351.72L375.955 409.074C375.892 409.64 375.888 410.21 375.94 410.776L379.833 466.607Z" fill="#03345F"/>
<path d="M403.798 293.266H394.499V305.756H403.798V293.266Z" fill="#FFBDA1"/>
<path d="M389.89 285.758C389.89 286.369 389.708 286.966 389.369 287.474C389.029 287.983 388.547 288.379 387.982 288.613C387.418 288.847 386.796 288.908 386.197 288.789C385.598 288.669 385.047 288.375 384.615 287.943C384.183 287.511 383.889 286.96 383.769 286.36C383.65 285.761 383.711 285.14 383.945 284.575C384.179 284.01 384.575 283.528 385.083 283.188C385.591 282.848 386.189 282.667 386.8 282.667C387.619 282.667 388.405 282.993 388.985 283.572C389.564 284.152 389.89 284.938 389.89 285.758V285.758Z" fill="#FFBDA1"/>
<path d="M414.738 285.758C414.738 286.369 414.556 286.966 414.217 287.474C413.877 287.983 413.395 288.379 412.83 288.613C412.266 288.847 411.644 288.908 411.045 288.789C410.446 288.669 409.895 288.375 409.463 287.943C409.031 287.511 408.736 286.96 408.617 286.36C408.498 285.761 408.559 285.14 408.793 284.575C409.027 284.01 409.423 283.528 409.931 283.188C410.439 282.848 411.037 282.667 411.648 282.667C412.467 282.667 413.253 282.993 413.833 283.572C414.412 284.152 414.738 284.938 414.738 285.758V285.758Z" fill="#FFBDA1"/>
<path d="M399.208 295.795C406.223 295.795 411.91 290.107 411.91 283.09C411.91 276.074 406.223 270.386 399.208 270.386C392.193 270.386 386.506 276.074 386.506 283.09C386.506 290.107 392.193 295.795 399.208 295.795Z" fill="#072042"/>
<path d="M415.659 353.264H382.11L380.82 313.806C380.82 307.191 384.933 301.829 391.139 301.829H406.64C412.846 301.829 416.96 307.178 416.96 313.806L415.659 353.264Z" fill="#FFD474"/>
<path d="M436.722 373.634L424.012 339.973L402.213 310.33L413.86 305.041L433.333 332.402C433.996 333.147 434.481 334.033 434.75 334.994L447.878 370.116L436.722 373.634Z" fill="#FFD474"/>
<path d="M382.735 316.303L357.547 290.19C357.428 290.064 357.304 289.932 357.199 289.799L332.483 259.919L343.034 251.19L367.587 280.875L392.593 306.801L382.735 316.303Z" fill="#FFD474"/>
<path d="M463.94 19.0089H400.655C400.655 19.0089 405.293 9.80877e-06 421.659 9.80877e-06C425.853 -0.057332 429.988 0.988341 433.651 3.03232C437.314 5.0763 440.376 8.04685 442.529 11.6465C447.314 9.77432 457.602 7.5131 463.94 19.0089Z" fill="white"/>
<path d="M482.433 94.874C485.44 94.8754 488.394 95.6714 490.995 97.1815C493.294 93.0459 496.623 89.5748 500.658 87.1048C504.693 84.6348 509.299 83.2497 514.027 83.0838C518.755 82.9179 523.446 83.977 527.644 86.1582C531.843 88.3394 535.406 91.5687 537.99 95.533C539.319 90.7097 542.301 86.5069 546.414 83.6584C550.526 80.81 555.509 79.497 560.491 79.9488C565.473 80.4005 570.138 82.5882 573.672 86.1299C577.205 89.6716 579.382 94.3422 579.823 99.326C580.719 99.1723 581.627 99.091 582.536 99.0828C585.747 99.0993 588.891 100.004 591.62 101.696C594.35 103.389 596.558 105.803 598 108.672H465.442C466.294 104.788 468.439 101.308 471.525 98.8018C474.612 96.2953 478.457 94.9105 482.433 94.874V94.874Z" fill="white"/>
</g>
<defs>
<clipPath id="clip0">
<rect width="598" height="482" fill="white"/>
</clipPath>
</defs>
</svg>
