<svg width="681" height="184" viewBox="0 0 681 184" fill="none" xmlns="http://www.w3.org/2000/svg">
<path d="M44.6885 73.4414H37.0596V67.9453H44.6885V60.4189H50.2051V67.9453H57.834V73.4414H50.2051V80.8447H44.6885V73.4414ZM83.3457 79.6963H80.0439V85.5H72.0459V79.6963H60.0898V73.749L72.5586 55.5176H80.0439V73.6465H83.3457V79.6963ZM72.0459 73.6465V70.1602C72.0459 69.5039 72.0664 68.6221 72.1074 67.5146C72.1621 66.3936 72.2031 65.8057 72.2305 65.751H72.0049C71.54 66.8037 71.0137 67.7881 70.4258 68.7041L67.1035 73.6465H72.0459ZM97.5986 65.8535C99.3213 65.8535 100.873 66.2568 102.254 67.0635C103.648 67.8564 104.729 68.9844 105.494 70.4473C106.273 71.9102 106.663 73.5986 106.663 75.5127C106.663 78.8623 105.651 81.4326 103.628 83.2236C101.618 85.0146 98.5693 85.9102 94.4814 85.9102C90.9814 85.9102 88.124 85.3701 85.9092 84.29V77.6455C87.0986 78.1924 88.4385 78.6436 89.9287 78.999C91.4326 79.3545 92.7246 79.5322 93.8047 79.5322C95.3086 79.5322 96.4639 79.2178 97.2705 78.5889C98.0771 77.9463 98.4805 77.0029 98.4805 75.7588C98.4805 74.6104 98.0703 73.7148 97.25 73.0723C96.4297 72.4297 95.1855 72.1084 93.5176 72.1084C92.2461 72.1084 90.8721 72.3477 89.3955 72.8262L86.4219 71.3496L87.5498 55.5176H104.653V62.2646H94.4404L94.0713 66.2227C95.1377 66.0176 95.8965 65.9082 96.3477 65.8945C96.7988 65.8672 97.2158 65.8535 97.5986 65.8535ZM115.522 64.541C115.522 66.1133 115.652 67.248 115.912 67.9453C116.172 68.6426 116.562 68.9912 117.081 68.9912C117.601 68.9912 117.983 68.6494 118.229 67.9658C118.489 67.2822 118.619 66.1406 118.619 64.541C118.619 62.9688 118.489 61.834 118.229 61.1367C117.983 60.4395 117.601 60.0908 117.081 60.0908C116.548 60.0908 116.151 60.4463 115.892 61.1572C115.646 61.8682 115.522 62.9961 115.522 64.541ZM124.812 64.459C124.812 67.4668 124.136 69.7979 122.782 71.4521C121.429 73.0928 119.501 73.9131 116.999 73.9131C114.647 73.9131 112.781 73.0654 111.4 71.3701C110.033 69.6611 109.35 67.3574 109.35 64.459C109.35 61.4512 110.02 59.1406 111.359 57.5273C112.699 55.9004 114.579 55.0869 116.999 55.0869C119.392 55.0869 121.292 55.9277 122.7 57.6094C124.108 59.291 124.812 61.5742 124.812 64.459ZM139.763 55.5176L123.131 85.5H117.04L133.672 55.5176H139.763ZM138.327 76.4766C138.327 78.0488 138.457 79.1836 138.717 79.8809C138.977 80.5781 139.366 80.9268 139.886 80.9268C140.474 80.9268 140.877 80.5303 141.096 79.7373C141.328 78.9307 141.444 77.8438 141.444 76.4766C141.444 75.1094 141.328 74.0293 141.096 73.2363C140.877 72.4297 140.474 72.0264 139.886 72.0264C139.353 72.0264 138.956 72.3818 138.696 73.0928C138.45 73.8037 138.327 74.9316 138.327 76.4766ZM147.617 76.3945C147.617 79.3887 146.934 81.7129 145.566 83.3672C144.213 85.0078 142.292 85.8281 139.804 85.8281C137.452 85.8281 135.586 84.9805 134.205 83.2852C132.838 81.5762 132.154 79.2793 132.154 76.3945C132.154 73.3867 132.824 71.0762 134.164 69.4629C135.504 67.8359 137.384 67.0225 139.804 67.0225C142.196 67.0225 144.097 67.8633 145.505 69.5449C146.913 71.2266 147.617 73.5098 147.617 76.3945Z" fill="black"/>
<path d="M9.41211 128.5H8.44531V117.885H9.41211V128.5ZM8.30859 114.936C8.30859 114.311 8.51367 113.998 8.92383 113.998C9.12565 113.998 9.2819 114.079 9.39258 114.242C9.50977 114.405 9.56836 114.636 9.56836 114.936C9.56836 115.229 9.50977 115.46 9.39258 115.629C9.2819 115.798 9.12565 115.883 8.92383 115.883C8.51367 115.883 8.30859 115.567 8.30859 114.936ZM20.3789 128.5V121.615C20.3789 120.548 20.1543 119.773 19.7051 119.291C19.2559 118.803 18.5592 118.559 17.6152 118.559C16.3457 118.559 15.4147 118.881 14.8223 119.525C14.2363 120.163 13.9434 121.202 13.9434 122.641V128.5H12.9766V117.885H13.7969L13.9824 119.34H14.041C14.7311 118.233 15.9583 117.68 17.7227 117.68C20.1315 117.68 21.3359 118.972 21.3359 121.557V128.5H20.3789ZM36.5508 125.736C36.5508 126.687 36.1895 127.419 35.4668 127.934C34.7441 128.441 33.7188 128.695 32.3906 128.695C30.9714 128.695 29.8451 128.477 29.0117 128.041V126.996C30.0794 127.53 31.2057 127.797 32.3906 127.797C33.4388 127.797 34.2331 127.624 34.7734 127.279C35.3203 126.928 35.5938 126.462 35.5938 125.883C35.5938 125.349 35.3757 124.9 34.9395 124.535C34.5098 124.171 33.8001 123.812 32.8105 123.461C31.7493 123.077 31.0039 122.748 30.5742 122.475C30.1445 122.195 29.819 121.882 29.5977 121.537C29.3828 121.186 29.2754 120.759 29.2754 120.258C29.2754 119.464 29.6074 118.835 30.2715 118.373C30.9421 117.911 31.8763 117.68 33.0742 117.68C34.2201 117.68 35.3073 117.895 36.3359 118.324L35.9746 119.203C34.9329 118.773 33.9661 118.559 33.0742 118.559C32.2083 118.559 31.5215 118.702 31.0137 118.988C30.5059 119.275 30.252 119.672 30.252 120.18C30.252 120.733 30.4473 121.176 30.8379 121.508C31.235 121.84 32.0065 122.211 33.1523 122.621C34.1094 122.966 34.806 123.279 35.2422 123.559C35.6784 123.832 36.0039 124.145 36.2188 124.496C36.4401 124.848 36.5508 125.261 36.5508 125.736ZM45.7305 128.5L45.4863 126.82H45.4082C44.8743 127.504 44.3242 127.989 43.7578 128.275C43.1979 128.555 42.5339 128.695 41.7656 128.695C40.724 128.695 39.9134 128.428 39.334 127.895C38.7546 127.361 38.4648 126.622 38.4648 125.678C38.4648 124.643 38.8945 123.839 39.7539 123.266C40.6198 122.693 41.8698 122.39 43.5039 122.357L45.5254 122.299V121.596C45.5254 120.587 45.3203 119.825 44.9102 119.311C44.5 118.796 43.8392 118.539 42.9277 118.539C41.9447 118.539 40.9258 118.812 39.8711 119.359L39.5098 118.52C40.6751 117.973 41.8275 117.699 42.9668 117.699C44.1322 117.699 45.0013 118.002 45.5742 118.607C46.1536 119.213 46.4434 120.157 46.4434 121.439V128.5H45.7305ZM41.8242 127.816C42.957 127.816 43.849 127.494 44.5 126.85C45.1576 126.199 45.4863 125.297 45.4863 124.145V123.1L43.6309 123.178C42.14 123.249 41.0755 123.484 40.4375 123.881C39.806 124.271 39.4902 124.883 39.4902 125.717C39.4902 126.381 39.6921 126.898 40.0957 127.27C40.5059 127.634 41.082 127.816 41.8242 127.816ZM50.8574 128.5H49.8906V113.305H50.8574V128.5ZM58.709 128.695C57.166 128.695 55.9616 128.22 55.0957 127.27C54.2363 126.319 53.8066 124.988 53.8066 123.275C53.8066 121.583 54.2233 120.229 55.0566 119.213C55.89 118.191 57.013 117.68 58.4258 117.68C59.6758 117.68 60.6621 118.116 61.3848 118.988C62.1074 119.861 62.4688 121.046 62.4688 122.543V123.324H54.8223C54.8353 124.783 55.1738 125.896 55.8379 126.664C56.5085 127.432 57.4655 127.816 58.709 127.816C59.3145 127.816 59.8451 127.774 60.3008 127.689C60.763 127.605 61.3457 127.423 62.0488 127.143V128.021C61.4499 128.282 60.8965 128.458 60.3887 128.549C59.8809 128.646 59.321 128.695 58.709 128.695ZM58.4258 118.539C57.4036 118.539 56.5833 118.878 55.9648 119.555C55.3464 120.225 54.985 121.195 54.8809 122.465H61.4434C61.4434 121.234 61.1764 120.274 60.6426 119.584C60.1087 118.887 59.3698 118.539 58.4258 118.539ZM71.9805 125.736C71.9805 126.687 71.6191 127.419 70.8965 127.934C70.1738 128.441 69.1484 128.695 67.8203 128.695C66.401 128.695 65.2747 128.477 64.4414 128.041V126.996C65.5091 127.53 66.6354 127.797 67.8203 127.797C68.8685 127.797 69.6628 127.624 70.2031 127.279C70.75 126.928 71.0234 126.462 71.0234 125.883C71.0234 125.349 70.8053 124.9 70.3691 124.535C69.9395 124.171 69.2298 123.812 68.2402 123.461C67.179 123.077 66.4336 122.748 66.0039 122.475C65.5742 122.195 65.2487 121.882 65.0273 121.537C64.8125 121.186 64.7051 120.759 64.7051 120.258C64.7051 119.464 65.0371 118.835 65.7012 118.373C66.3717 117.911 67.306 117.68 68.5039 117.68C69.6497 117.68 70.737 117.895 71.7656 118.324L71.4043 119.203C70.3626 118.773 69.3958 118.559 68.5039 118.559C67.638 118.559 66.9512 118.702 66.4434 118.988C65.9355 119.275 65.6816 119.672 65.6816 120.18C65.6816 120.733 65.877 121.176 66.2676 121.508C66.6647 121.84 67.4362 122.211 68.582 122.621C69.5391 122.966 70.2357 123.279 70.6719 123.559C71.1081 123.832 71.4336 124.145 71.6484 124.496C71.8698 124.848 71.9805 125.261 71.9805 125.736ZM83.8555 118.725H81.3555V128.5H80.3887V118.725H78.416V118.158L80.3887 117.797V116.977C80.3887 115.674 80.6263 114.721 81.1016 114.115C81.5833 113.503 82.3678 113.197 83.4551 113.197C84.041 113.197 84.627 113.285 85.2129 113.461L84.9883 114.301C84.4674 114.138 83.9499 114.057 83.4355 114.057C82.6803 114.057 82.1432 114.281 81.8242 114.73C81.5117 115.173 81.3555 115.896 81.3555 116.898V117.885H83.8555V118.725ZM86.873 128.5H85.9062V117.885H86.873V128.5ZM85.7695 114.936C85.7695 114.311 85.9746 113.998 86.3848 113.998C86.5866 113.998 86.7428 114.079 86.8535 114.242C86.9707 114.405 87.0293 114.636 87.0293 114.936C87.0293 115.229 86.9707 115.46 86.8535 115.629C86.7428 115.798 86.5866 115.883 86.3848 115.883C85.9746 115.883 85.7695 115.567 85.7695 114.936ZM94.6172 117.68C95.0664 117.68 95.5482 117.725 96.0625 117.816L95.877 118.744C95.4342 118.633 94.9753 118.578 94.5 118.578C93.5951 118.578 92.8529 118.962 92.2734 119.73C91.694 120.499 91.4043 121.469 91.4043 122.641V128.5H90.4375V117.885H91.2578L91.3555 119.799H91.4238C91.86 119.018 92.3255 118.471 92.8203 118.158C93.3151 117.839 93.9141 117.68 94.6172 117.68ZM104.812 125.736C104.812 126.687 104.451 127.419 103.729 127.934C103.006 128.441 101.98 128.695 100.652 128.695C99.2331 128.695 98.1068 128.477 97.2734 128.041V126.996C98.3411 127.53 99.4674 127.797 100.652 127.797C101.701 127.797 102.495 127.624 103.035 127.279C103.582 126.928 103.855 126.462 103.855 125.883C103.855 125.349 103.637 124.9 103.201 124.535C102.771 124.171 102.062 123.812 101.072 123.461C100.011 123.077 99.2656 122.748 98.8359 122.475C98.4062 122.195 98.0807 121.882 97.8594 121.537C97.6445 121.186 97.5371 120.759 97.5371 120.258C97.5371 119.464 97.8691 118.835 98.5332 118.373C99.2038 117.911 100.138 117.68 101.336 117.68C102.482 117.68 103.569 117.895 104.598 118.324L104.236 119.203C103.195 118.773 102.228 118.559 101.336 118.559C100.47 118.559 99.7832 118.702 99.2754 118.988C98.7676 119.275 98.5137 119.672 98.5137 120.18C98.5137 120.733 98.709 121.176 99.0996 121.508C99.4967 121.84 100.268 122.211 101.414 122.621C102.371 122.966 103.068 123.279 103.504 123.559C103.94 123.832 104.266 124.145 104.48 124.496C104.702 124.848 104.812 125.261 104.812 125.736ZM110.35 127.836C110.962 127.836 111.495 127.784 111.951 127.68V128.461C111.482 128.617 110.942 128.695 110.33 128.695C109.393 128.695 108.699 128.445 108.25 127.943C107.807 127.442 107.586 126.654 107.586 125.58V118.725H106.014V118.158L107.586 117.719L108.074 115.316H108.572V117.885H111.688V118.725H108.572V125.443C108.572 126.257 108.715 126.859 109.002 127.25C109.288 127.641 109.738 127.836 110.35 127.836ZM132.703 128.5V121.537C132.703 120.502 132.501 119.747 132.098 119.271C131.694 118.796 131.076 118.559 130.242 118.559C129.155 118.559 128.351 118.858 127.83 119.457C127.309 120.056 127.049 120.997 127.049 122.279V128.5H126.062V121.244C126.062 119.454 125.242 118.559 123.602 118.559C122.488 118.559 121.678 118.884 121.17 119.535C120.662 120.18 120.408 121.215 120.408 122.641V128.5H119.441V117.885H120.242L120.447 119.34H120.506C120.799 118.812 121.215 118.406 121.756 118.119C122.296 117.826 122.892 117.68 123.543 117.68C125.216 117.68 126.29 118.308 126.766 119.564H126.805C127.15 118.959 127.612 118.493 128.191 118.168C128.777 117.842 129.441 117.68 130.184 117.68C131.342 117.68 132.212 117.989 132.791 118.607C133.37 119.226 133.66 120.209 133.66 121.557V128.5H132.703ZM145.877 123.178C145.877 124.91 145.457 126.264 144.617 127.24C143.777 128.21 142.618 128.695 141.141 128.695C140.21 128.695 139.389 128.471 138.68 128.021C137.97 127.572 137.426 126.928 137.049 126.088C136.671 125.248 136.482 124.278 136.482 123.178C136.482 121.446 136.902 120.098 137.742 119.135C138.582 118.165 139.734 117.68 141.199 117.68C142.658 117.68 143.8 118.171 144.627 119.154C145.46 120.131 145.877 121.472 145.877 123.178ZM137.498 123.178C137.498 124.636 137.817 125.775 138.455 126.596C139.1 127.41 140.008 127.816 141.18 127.816C142.352 127.816 143.257 127.41 143.895 126.596C144.539 125.775 144.861 124.636 144.861 123.178C144.861 121.713 144.536 120.577 143.885 119.77C143.24 118.962 142.332 118.559 141.16 118.559C139.988 118.559 139.083 118.962 138.445 119.77C137.814 120.57 137.498 121.706 137.498 123.178ZM156.219 128.5V121.615C156.219 120.548 155.994 119.773 155.545 119.291C155.096 118.803 154.399 118.559 153.455 118.559C152.186 118.559 151.255 118.881 150.662 119.525C150.076 120.163 149.783 121.202 149.783 122.641V128.5H148.816V117.885H149.637L149.822 119.34H149.881C150.571 118.233 151.798 117.68 153.562 117.68C155.971 117.68 157.176 118.972 157.176 121.557V128.5H156.219ZM163.416 127.836C164.028 127.836 164.562 127.784 165.018 127.68V128.461C164.549 128.617 164.008 128.695 163.396 128.695C162.459 128.695 161.766 128.445 161.316 127.943C160.874 127.442 160.652 126.654 160.652 125.58V118.725H159.08V118.158L160.652 117.719L161.141 115.316H161.639V117.885H164.754V118.725H161.639V125.443C161.639 126.257 161.782 126.859 162.068 127.25C162.355 127.641 162.804 127.836 163.416 127.836ZM174.715 128.5V121.615C174.715 120.548 174.49 119.773 174.041 119.291C173.592 118.803 172.895 118.559 171.951 118.559C170.682 118.559 169.751 118.881 169.158 119.525C168.572 120.163 168.279 121.202 168.279 122.641V128.5H167.312V113.305H168.279V118.139L168.23 119.496H168.299C168.696 118.858 169.197 118.396 169.803 118.109C170.408 117.823 171.16 117.68 172.059 117.68C174.467 117.68 175.672 118.972 175.672 121.557V128.5H174.715Z" fill="black"/>
<path d="M251.18 77.0117C244.764 76.7188 238.582 75.2832 232.635 72.7051V58.1152C236.033 59.8438 239.725 61.2939 243.709 62.4658C247.693 63.6084 251.194 64.1797 254.212 64.1797C256.702 64.1797 258.519 63.8867 259.661 63.3008C260.833 62.6855 261.419 61.6748 261.419 60.2686C261.419 59.3018 260.994 58.4814 260.145 57.8076C259.324 57.1338 257.933 56.3721 255.97 55.5225C254.036 54.6729 251.414 53.6475 248.104 52.4463C244.383 51.0693 241.38 49.5312 239.095 47.832C236.81 46.1035 235.14 44.1846 234.085 42.0752C233.06 39.9365 232.547 37.2852 232.547 34.1211C232.547 29.2871 234.1 25.5078 237.205 22.7832C240.311 20.0586 244.969 18.374 251.18 17.7295V11.709H260.276V17.6416C266.106 17.9639 271.98 19.3994 277.898 21.9482L272.669 34.4727C266.546 31.7187 261.023 30.3418 256.102 30.3418C253.758 30.3418 252.103 30.6348 251.136 31.2207C250.198 31.7773 249.729 32.6123 249.729 33.7256C249.729 34.6924 250.066 35.498 250.74 36.1426C251.443 36.7578 252.645 37.4609 254.344 38.252C256.043 39.0137 258.401 39.9072 261.419 40.9326C267.542 43.1006 271.937 45.5762 274.603 48.3594C277.269 51.1133 278.602 54.6729 278.602 59.0381C278.602 63.96 277.034 67.959 273.899 71.0352C270.794 74.1113 266.253 76.0156 260.276 76.748V85.2295H251.18V77.0117ZM328.919 29.6826C328.919 33.667 327.703 37.0947 325.271 39.9658C322.84 42.8076 319.324 44.873 314.725 46.1621V46.4258C325.447 47.7734 330.809 52.8418 330.809 61.6309C330.809 67.6074 328.436 72.3096 323.689 75.7373C318.973 79.165 312.41 80.8789 304.002 80.8789C300.545 80.8789 297.337 80.6299 294.378 80.1318C291.448 79.6338 288.27 78.7256 284.842 77.4072V62.9932C287.654 64.4287 290.511 65.498 293.411 66.2012C296.341 66.875 299.036 67.2119 301.497 67.2119C305.306 67.2119 308.074 66.6846 309.803 65.6299C311.561 64.5459 312.439 62.8613 312.439 60.5762C312.439 58.8184 311.985 57.4707 311.077 56.5332C310.169 55.5664 308.704 54.8486 306.683 54.3799C304.661 53.8818 302.024 53.6328 298.772 53.6328H294.817V40.5811H298.86C307.679 40.5811 312.088 38.3252 312.088 33.8135C312.088 32.1143 311.429 30.8545 310.11 30.0342C308.821 29.2139 307.078 28.8037 304.881 28.8037C300.779 28.8037 296.531 30.1807 292.137 32.9346L284.93 21.333C288.328 18.9893 291.8 17.3193 295.345 16.3232C298.919 15.3271 303.006 14.8291 307.605 14.8291C314.256 14.8291 319.471 16.1475 323.25 18.7842C327.029 21.4209 328.919 25.0537 328.919 29.6826ZM384.07 47.9639C384.07 59.3311 382.166 67.666 378.357 72.9688C374.549 78.2422 368.719 80.8789 360.867 80.8789C353.191 80.8789 347.405 78.125 343.509 72.6172C339.612 67.0801 337.664 58.8623 337.664 47.9639C337.664 36.5381 339.568 28.1592 343.377 22.8271C347.186 17.4951 353.016 14.8291 360.867 14.8291C368.514 14.8291 374.285 17.6123 378.182 23.1787C382.107 28.7158 384.07 36.9775 384.07 47.9639ZM354.935 47.9639C354.935 55.2295 355.389 60.2246 356.297 62.9492C357.205 65.6738 358.729 67.0361 360.867 67.0361C363.035 67.0361 364.559 65.6299 365.438 62.8174C366.346 60.0049 366.8 55.0537 366.8 47.9639C366.8 40.8447 366.346 35.8643 365.438 33.0225C364.529 30.1514 363.006 28.7158 360.867 28.7158C358.729 28.7158 357.205 30.0928 356.297 32.8467C355.389 35.6006 354.935 40.6396 354.935 47.9639ZM436.805 47.9639C436.805 59.3311 434.9 67.666 431.092 72.9688C427.283 78.2422 421.453 80.8789 413.602 80.8789C405.926 80.8789 400.14 78.125 396.243 72.6172C392.347 67.0801 390.398 58.8623 390.398 47.9639C390.398 36.5381 392.303 28.1592 396.111 22.8271C399.92 17.4951 405.75 14.8291 413.602 14.8291C421.248 14.8291 427.02 17.6123 430.916 23.1787C434.842 28.7158 436.805 36.9775 436.805 47.9639ZM407.669 47.9639C407.669 55.2295 408.123 60.2246 409.031 62.9492C409.939 65.6738 411.463 67.0361 413.602 67.0361C415.77 67.0361 417.293 65.6299 418.172 62.8174C419.08 60.0049 419.534 55.0537 419.534 47.9639C419.534 40.8447 419.08 35.8643 418.172 33.0225C417.264 30.1514 415.74 28.7158 413.602 28.7158C411.463 28.7158 409.939 30.0928 409.031 32.8467C408.123 35.6006 407.669 40.6396 407.669 47.9639Z" fill="black"/>
<path d="M246.117 141L239.109 116.32H238.898C239.227 120.523 239.391 123.789 239.391 126.117V141H231.188V106.734H243.516L250.664 131.062H250.852L257.859 106.734H270.211V141H261.703V125.977C261.703 125.195 261.711 124.328 261.727 123.375C261.758 122.422 261.867 120.086 262.055 116.367H261.844L254.93 141H246.117ZM277.594 141V106.734H286.898V141H277.594ZM294.328 141V106.734H303.586V133.523H316.781V141H294.328ZM322.266 141V106.734H331.523V133.523H344.719V141H322.266ZM350.203 141V106.734H359.508V141H350.203ZM399 123.82C399 129.586 397.586 133.969 394.758 136.969C391.93 139.969 387.789 141.469 382.336 141.469C376.961 141.469 372.836 139.961 369.961 136.945C367.102 133.93 365.672 129.539 365.672 123.773C365.672 118.07 367.094 113.719 369.938 110.719C372.797 107.703 376.945 106.195 382.383 106.195C387.836 106.195 391.969 107.688 394.781 110.672C397.594 113.656 399 118.039 399 123.82ZM375.422 123.82C375.422 130.445 377.727 133.758 382.336 133.758C384.68 133.758 386.414 132.953 387.539 131.344C388.68 129.734 389.25 127.227 389.25 123.82C389.25 120.398 388.672 117.875 387.516 116.25C386.375 114.609 384.664 113.789 382.383 113.789C377.742 113.789 375.422 117.133 375.422 123.82ZM437.812 141H425.672L413.156 116.859H412.945C413.242 120.656 413.391 123.555 413.391 125.555V141H405.188V106.734H417.281L429.75 130.547H429.891C429.672 127.094 429.562 124.32 429.562 122.227V106.734H437.812V141Z" fill="black"/>
<path d="M262.469 177H261.502V166.385H262.469V177ZM261.365 163.436C261.365 162.811 261.57 162.498 261.98 162.498C262.182 162.498 262.339 162.579 262.449 162.742C262.566 162.905 262.625 163.136 262.625 163.436C262.625 163.729 262.566 163.96 262.449 164.129C262.339 164.298 262.182 164.383 261.98 164.383C261.57 164.383 261.365 164.067 261.365 163.436ZM273.436 177V170.115C273.436 169.048 273.211 168.273 272.762 167.791C272.312 167.303 271.616 167.059 270.672 167.059C269.402 167.059 268.471 167.381 267.879 168.025C267.293 168.663 267 169.702 267 171.141V177H266.033V166.385H266.854L267.039 167.84H267.098C267.788 166.733 269.015 166.18 270.779 166.18C273.188 166.18 274.393 167.472 274.393 170.057V177H273.436ZM289.607 174.236C289.607 175.187 289.246 175.919 288.523 176.434C287.801 176.941 286.775 177.195 285.447 177.195C284.028 177.195 282.902 176.977 282.068 176.541V175.496C283.136 176.03 284.262 176.297 285.447 176.297C286.495 176.297 287.29 176.124 287.83 175.779C288.377 175.428 288.65 174.962 288.65 174.383C288.65 173.849 288.432 173.4 287.996 173.035C287.566 172.671 286.857 172.312 285.867 171.961C284.806 171.577 284.061 171.248 283.631 170.975C283.201 170.695 282.876 170.382 282.654 170.037C282.439 169.686 282.332 169.259 282.332 168.758C282.332 167.964 282.664 167.335 283.328 166.873C283.999 166.411 284.933 166.18 286.131 166.18C287.277 166.18 288.364 166.395 289.393 166.824L289.031 167.703C287.99 167.273 287.023 167.059 286.131 167.059C285.265 167.059 284.578 167.202 284.07 167.488C283.562 167.775 283.309 168.172 283.309 168.68C283.309 169.233 283.504 169.676 283.895 170.008C284.292 170.34 285.063 170.711 286.209 171.121C287.166 171.466 287.863 171.779 288.299 172.059C288.735 172.332 289.061 172.645 289.275 172.996C289.497 173.348 289.607 173.761 289.607 174.236ZM298.787 177L298.543 175.32H298.465C297.931 176.004 297.381 176.489 296.814 176.775C296.255 177.055 295.59 177.195 294.822 177.195C293.781 177.195 292.97 176.928 292.391 176.395C291.811 175.861 291.521 175.122 291.521 174.178C291.521 173.143 291.951 172.339 292.811 171.766C293.676 171.193 294.926 170.89 296.561 170.857L298.582 170.799V170.096C298.582 169.087 298.377 168.325 297.967 167.811C297.557 167.296 296.896 167.039 295.984 167.039C295.001 167.039 293.982 167.312 292.928 167.859L292.566 167.02C293.732 166.473 294.884 166.199 296.023 166.199C297.189 166.199 298.058 166.502 298.631 167.107C299.21 167.713 299.5 168.657 299.5 169.939V177H298.787ZM294.881 176.316C296.014 176.316 296.906 175.994 297.557 175.35C298.214 174.699 298.543 173.797 298.543 172.645V171.6L296.688 171.678C295.197 171.749 294.132 171.984 293.494 172.381C292.863 172.771 292.547 173.383 292.547 174.217C292.547 174.881 292.749 175.398 293.152 175.77C293.562 176.134 294.139 176.316 294.881 176.316ZM303.914 177H302.947V161.805H303.914V177ZM311.766 177.195C310.223 177.195 309.018 176.72 308.152 175.77C307.293 174.819 306.863 173.488 306.863 171.775C306.863 170.083 307.28 168.729 308.113 167.713C308.947 166.691 310.07 166.18 311.482 166.18C312.732 166.18 313.719 166.616 314.441 167.488C315.164 168.361 315.525 169.546 315.525 171.043V171.824H307.879C307.892 173.283 308.23 174.396 308.895 175.164C309.565 175.932 310.522 176.316 311.766 176.316C312.371 176.316 312.902 176.274 313.357 176.189C313.82 176.105 314.402 175.923 315.105 175.643V176.521C314.507 176.782 313.953 176.958 313.445 177.049C312.938 177.146 312.378 177.195 311.766 177.195ZM311.482 167.039C310.46 167.039 309.64 167.378 309.021 168.055C308.403 168.725 308.042 169.695 307.938 170.965H314.5C314.5 169.734 314.233 168.774 313.699 168.084C313.165 167.387 312.426 167.039 311.482 167.039ZM325.037 174.236C325.037 175.187 324.676 175.919 323.953 176.434C323.23 176.941 322.205 177.195 320.877 177.195C319.458 177.195 318.331 176.977 317.498 176.541V175.496C318.566 176.03 319.692 176.297 320.877 176.297C321.925 176.297 322.719 176.124 323.26 175.779C323.807 175.428 324.08 174.962 324.08 174.383C324.08 173.849 323.862 173.4 323.426 173.035C322.996 172.671 322.286 172.312 321.297 171.961C320.236 171.577 319.49 171.248 319.061 170.975C318.631 170.695 318.305 170.382 318.084 170.037C317.869 169.686 317.762 169.259 317.762 168.758C317.762 167.964 318.094 167.335 318.758 166.873C319.428 166.411 320.363 166.18 321.561 166.18C322.706 166.18 323.794 166.395 324.822 166.824L324.461 167.703C323.419 167.273 322.452 167.059 321.561 167.059C320.695 167.059 320.008 167.202 319.5 167.488C318.992 167.775 318.738 168.172 318.738 168.68C318.738 169.233 318.934 169.676 319.324 170.008C319.721 170.34 320.493 170.711 321.639 171.121C322.596 171.466 323.292 171.779 323.729 172.059C324.165 172.332 324.49 172.645 324.705 172.996C324.926 173.348 325.037 173.761 325.037 174.236ZM336.912 167.225H334.412V177H333.445V167.225H331.473V166.658L333.445 166.297V165.477C333.445 164.174 333.683 163.221 334.158 162.615C334.64 162.003 335.424 161.697 336.512 161.697C337.098 161.697 337.684 161.785 338.27 161.961L338.045 162.801C337.524 162.638 337.007 162.557 336.492 162.557C335.737 162.557 335.2 162.781 334.881 163.23C334.568 163.673 334.412 164.396 334.412 165.398V166.385H336.912V167.225ZM339.93 177H338.963V166.385H339.93V177ZM338.826 163.436C338.826 162.811 339.031 162.498 339.441 162.498C339.643 162.498 339.799 162.579 339.91 162.742C340.027 162.905 340.086 163.136 340.086 163.436C340.086 163.729 340.027 163.96 339.91 164.129C339.799 164.298 339.643 164.383 339.441 164.383C339.031 164.383 338.826 164.067 338.826 163.436ZM347.674 166.18C348.123 166.18 348.605 166.225 349.119 166.316L348.934 167.244C348.491 167.133 348.032 167.078 347.557 167.078C346.652 167.078 345.91 167.462 345.33 168.23C344.751 168.999 344.461 169.969 344.461 171.141V177H343.494V166.385H344.314L344.412 168.299H344.48C344.917 167.518 345.382 166.971 345.877 166.658C346.372 166.339 346.971 166.18 347.674 166.18ZM357.869 174.236C357.869 175.187 357.508 175.919 356.785 176.434C356.062 176.941 355.037 177.195 353.709 177.195C352.29 177.195 351.163 176.977 350.33 176.541V175.496C351.398 176.03 352.524 176.297 353.709 176.297C354.757 176.297 355.551 176.124 356.092 175.779C356.639 175.428 356.912 174.962 356.912 174.383C356.912 173.849 356.694 173.4 356.258 173.035C355.828 172.671 355.118 172.312 354.129 171.961C353.068 171.577 352.322 171.248 351.893 170.975C351.463 170.695 351.137 170.382 350.916 170.037C350.701 169.686 350.594 169.259 350.594 168.758C350.594 167.964 350.926 167.335 351.59 166.873C352.26 166.411 353.195 166.18 354.393 166.18C355.538 166.18 356.626 166.395 357.654 166.824L357.293 167.703C356.251 167.273 355.285 167.059 354.393 167.059C353.527 167.059 352.84 167.202 352.332 167.488C351.824 167.775 351.57 168.172 351.57 168.68C351.57 169.233 351.766 169.676 352.156 170.008C352.553 170.34 353.325 170.711 354.471 171.121C355.428 171.466 356.124 171.779 356.561 172.059C356.997 172.332 357.322 172.645 357.537 172.996C357.758 173.348 357.869 173.761 357.869 174.236ZM363.406 176.336C364.018 176.336 364.552 176.284 365.008 176.18V176.961C364.539 177.117 363.999 177.195 363.387 177.195C362.449 177.195 361.756 176.945 361.307 176.443C360.864 175.942 360.643 175.154 360.643 174.08V167.225H359.07V166.658L360.643 166.219L361.131 163.816H361.629V166.385H364.744V167.225H361.629V173.943C361.629 174.757 361.772 175.359 362.059 175.75C362.345 176.141 362.794 176.336 363.406 176.336ZM370.721 166.385H371.717L373.963 172.342C374.646 174.171 375.079 175.405 375.262 176.043H375.32C375.594 175.203 376.04 173.95 376.658 172.283L378.904 166.385H379.9L375.145 178.719C374.76 179.721 374.438 180.398 374.178 180.75C373.917 181.102 373.611 181.365 373.26 181.541C372.915 181.717 372.495 181.805 372 181.805C371.629 181.805 371.215 181.736 370.76 181.6V180.76C371.137 180.864 371.544 180.916 371.98 180.916C372.312 180.916 372.605 180.838 372.859 180.682C373.113 180.525 373.341 180.281 373.543 179.949C373.751 179.624 373.989 179.103 374.256 178.387C374.529 177.677 374.705 177.215 374.783 177L370.721 166.385ZM385.965 177.195C384.422 177.195 383.217 176.72 382.352 175.77C381.492 174.819 381.062 173.488 381.062 171.775C381.062 170.083 381.479 168.729 382.312 167.713C383.146 166.691 384.269 166.18 385.682 166.18C386.932 166.18 387.918 166.616 388.641 167.488C389.363 168.361 389.725 169.546 389.725 171.043V171.824H382.078C382.091 173.283 382.43 174.396 383.094 175.164C383.764 175.932 384.721 176.316 385.965 176.316C386.57 176.316 387.101 176.274 387.557 176.189C388.019 176.105 388.602 175.923 389.305 175.643V176.521C388.706 176.782 388.152 176.958 387.645 177.049C387.137 177.146 386.577 177.195 385.965 177.195ZM385.682 167.039C384.66 167.039 383.839 167.378 383.221 168.055C382.602 168.725 382.241 169.695 382.137 170.965H388.699C388.699 169.734 388.432 168.774 387.898 168.084C387.365 167.387 386.626 167.039 385.682 167.039ZM399.1 177L398.855 175.32H398.777C398.243 176.004 397.693 176.489 397.127 176.775C396.567 177.055 395.903 177.195 395.135 177.195C394.093 177.195 393.283 176.928 392.703 176.395C392.124 175.861 391.834 175.122 391.834 174.178C391.834 173.143 392.264 172.339 393.123 171.766C393.989 171.193 395.239 170.89 396.873 170.857L398.895 170.799V170.096C398.895 169.087 398.689 168.325 398.279 167.811C397.869 167.296 397.208 167.039 396.297 167.039C395.314 167.039 394.295 167.312 393.24 167.859L392.879 167.02C394.044 166.473 395.197 166.199 396.336 166.199C397.501 166.199 398.37 166.502 398.943 167.107C399.523 167.713 399.812 168.657 399.812 169.939V177H399.1ZM395.193 176.316C396.326 176.316 397.218 175.994 397.869 175.35C398.527 174.699 398.855 173.797 398.855 172.645V171.6L397 171.678C395.509 171.749 394.445 171.984 393.807 172.381C393.175 172.771 392.859 173.383 392.859 174.217C392.859 174.881 393.061 175.398 393.465 175.77C393.875 176.134 394.451 176.316 395.193 176.316ZM407.439 166.18C407.889 166.18 408.37 166.225 408.885 166.316L408.699 167.244C408.257 167.133 407.798 167.078 407.322 167.078C406.417 167.078 405.675 167.462 405.096 168.23C404.516 168.999 404.227 169.969 404.227 171.141V177H403.26V166.385H404.08L404.178 168.299H404.246C404.682 167.518 405.148 166.971 405.643 166.658C406.137 166.339 406.736 166.18 407.439 166.18Z" fill="black"/>
<path d="M541.119 84.1055C538.125 83.9688 535.24 83.2988 532.465 82.0957V75.2871C534.051 76.0938 535.773 76.7705 537.633 77.3174C539.492 77.8506 541.126 78.1172 542.534 78.1172C543.696 78.1172 544.544 77.9805 545.077 77.707C545.624 77.4199 545.897 76.9482 545.897 76.292C545.897 75.8408 545.699 75.458 545.303 75.1436C544.92 74.8291 544.271 74.4736 543.354 74.0771C542.452 73.6807 541.229 73.2021 539.684 72.6416C537.947 71.999 536.546 71.2812 535.479 70.4883C534.413 69.6816 533.634 68.7861 533.142 67.8018C532.663 66.8037 532.424 65.5664 532.424 64.0898C532.424 61.834 533.148 60.0703 534.598 58.7988C536.047 57.5273 538.221 56.7412 541.119 56.4404V53.6309H545.364V56.3994C548.085 56.5498 550.826 57.2197 553.588 58.4092L551.147 64.2539C548.29 62.9688 545.713 62.3262 543.416 62.3262C542.322 62.3262 541.55 62.4629 541.099 62.7363C540.661 62.9961 540.442 63.3857 540.442 63.9053C540.442 64.3564 540.6 64.7324 540.914 65.0332C541.242 65.3203 541.803 65.6484 542.596 66.0176C543.389 66.373 544.489 66.79 545.897 67.2686C548.755 68.2803 550.806 69.4355 552.05 70.7344C553.294 72.0195 553.916 73.6807 553.916 75.7178C553.916 78.0146 553.185 79.8809 551.722 81.3164C550.272 82.752 548.153 83.6406 545.364 83.9824V87.9404H541.119V84.1055ZM574.711 85.5H566.487V69.627C566.487 67.6992 566.528 65.9355 566.61 64.3359C566.104 64.9512 565.476 65.5938 564.724 66.2637L561.319 69.0732L557.115 63.9053L567.41 55.5176H574.711V85.5ZM593.619 65.8535C595.342 65.8535 596.894 66.2568 598.274 67.0635C599.669 67.8564 600.749 68.9844 601.515 70.4473C602.294 71.9102 602.684 73.5986 602.684 75.5127C602.684 78.8623 601.672 81.4326 599.648 83.2236C597.639 85.0146 594.59 85.9102 590.502 85.9102C587.002 85.9102 584.145 85.3701 581.93 84.29V77.6455C583.119 78.1924 584.459 78.6436 585.949 78.999C587.453 79.3545 588.745 79.5322 589.825 79.5322C591.329 79.5322 592.484 79.2178 593.291 78.5889C594.098 77.9463 594.501 77.0029 594.501 75.7588C594.501 74.6104 594.091 73.7148 593.271 73.0723C592.45 72.4297 591.206 72.1084 589.538 72.1084C588.267 72.1084 586.893 72.3477 585.416 72.8262L582.442 71.3496L583.57 55.5176H600.674V62.2646H590.461L590.092 66.2227C591.158 66.0176 591.917 65.9082 592.368 65.8945C592.819 65.8672 593.236 65.8535 593.619 65.8535ZM620.915 85.5L614.783 63.9053H614.599C614.886 67.583 615.029 70.4404 615.029 72.4775V85.5H607.852V55.5176H618.639L624.894 76.8047H625.058L631.189 55.5176H641.997V85.5H634.553V72.3545C634.553 71.6709 634.56 70.9121 634.573 70.0781C634.601 69.2441 634.696 67.2002 634.86 63.9463H634.676L628.626 85.5H620.915Z" fill="black"/>
<path d="M505.412 128.5H504.445V117.885H505.412V128.5ZM504.309 114.936C504.309 114.311 504.514 113.998 504.924 113.998C505.126 113.998 505.282 114.079 505.393 114.242C505.51 114.405 505.568 114.636 505.568 114.936C505.568 115.229 505.51 115.46 505.393 115.629C505.282 115.798 505.126 115.883 504.924 115.883C504.514 115.883 504.309 115.567 504.309 114.936ZM516.379 128.5V121.615C516.379 120.548 516.154 119.773 515.705 119.291C515.256 118.803 514.559 118.559 513.615 118.559C512.346 118.559 511.415 118.881 510.822 119.525C510.236 120.163 509.943 121.202 509.943 122.641V128.5H508.977V117.885H509.797L509.982 119.34H510.041C510.731 118.233 511.958 117.68 513.723 117.68C516.132 117.68 517.336 118.972 517.336 121.557V128.5H516.379ZM532.551 125.736C532.551 126.687 532.189 127.419 531.467 127.934C530.744 128.441 529.719 128.695 528.391 128.695C526.971 128.695 525.845 128.477 525.012 128.041V126.996C526.079 127.53 527.206 127.797 528.391 127.797C529.439 127.797 530.233 127.624 530.773 127.279C531.32 126.928 531.594 126.462 531.594 125.883C531.594 125.349 531.376 124.9 530.939 124.535C530.51 124.171 529.8 123.812 528.811 123.461C527.749 123.077 527.004 122.748 526.574 122.475C526.145 122.195 525.819 121.882 525.598 121.537C525.383 121.186 525.275 120.759 525.275 120.258C525.275 119.464 525.607 118.835 526.271 118.373C526.942 117.911 527.876 117.68 529.074 117.68C530.22 117.68 531.307 117.895 532.336 118.324L531.975 119.203C530.933 118.773 529.966 118.559 529.074 118.559C528.208 118.559 527.521 118.702 527.014 118.988C526.506 119.275 526.252 119.672 526.252 120.18C526.252 120.733 526.447 121.176 526.838 121.508C527.235 121.84 528.007 122.211 529.152 122.621C530.109 122.966 530.806 123.279 531.242 123.559C531.678 123.832 532.004 124.145 532.219 124.496C532.44 124.848 532.551 125.261 532.551 125.736ZM541.73 128.5L541.486 126.82H541.408C540.874 127.504 540.324 127.989 539.758 128.275C539.198 128.555 538.534 128.695 537.766 128.695C536.724 128.695 535.913 128.428 535.334 127.895C534.755 127.361 534.465 126.622 534.465 125.678C534.465 124.643 534.895 123.839 535.754 123.266C536.62 122.693 537.87 122.39 539.504 122.357L541.525 122.299V121.596C541.525 120.587 541.32 119.825 540.91 119.311C540.5 118.796 539.839 118.539 538.928 118.539C537.945 118.539 536.926 118.812 535.871 119.359L535.51 118.52C536.675 117.973 537.827 117.699 538.967 117.699C540.132 117.699 541.001 118.002 541.574 118.607C542.154 119.213 542.443 120.157 542.443 121.439V128.5H541.73ZM537.824 127.816C538.957 127.816 539.849 127.494 540.5 126.85C541.158 126.199 541.486 125.297 541.486 124.145V123.1L539.631 123.178C538.14 123.249 537.076 123.484 536.438 123.881C535.806 124.271 535.49 124.883 535.49 125.717C535.49 126.381 535.692 126.898 536.096 127.27C536.506 127.634 537.082 127.816 537.824 127.816ZM546.857 128.5H545.891V113.305H546.857V128.5ZM554.709 128.695C553.166 128.695 551.962 128.22 551.096 127.27C550.236 126.319 549.807 124.988 549.807 123.275C549.807 121.583 550.223 120.229 551.057 119.213C551.89 118.191 553.013 117.68 554.426 117.68C555.676 117.68 556.662 118.116 557.385 118.988C558.107 119.861 558.469 121.046 558.469 122.543V123.324H550.822C550.835 124.783 551.174 125.896 551.838 126.664C552.508 127.432 553.465 127.816 554.709 127.816C555.314 127.816 555.845 127.774 556.301 127.689C556.763 127.605 557.346 127.423 558.049 127.143V128.021C557.45 128.282 556.896 128.458 556.389 128.549C555.881 128.646 555.321 128.695 554.709 128.695ZM554.426 118.539C553.404 118.539 552.583 118.878 551.965 119.555C551.346 120.225 550.985 121.195 550.881 122.465H557.443C557.443 121.234 557.176 120.274 556.643 119.584C556.109 118.887 555.37 118.539 554.426 118.539ZM567.98 125.736C567.98 126.687 567.619 127.419 566.896 127.934C566.174 128.441 565.148 128.695 563.82 128.695C562.401 128.695 561.275 128.477 560.441 128.041V126.996C561.509 127.53 562.635 127.797 563.82 127.797C564.868 127.797 565.663 127.624 566.203 127.279C566.75 126.928 567.023 126.462 567.023 125.883C567.023 125.349 566.805 124.9 566.369 124.535C565.939 124.171 565.23 123.812 564.24 123.461C563.179 123.077 562.434 122.748 562.004 122.475C561.574 122.195 561.249 121.882 561.027 121.537C560.812 121.186 560.705 120.759 560.705 120.258C560.705 119.464 561.037 118.835 561.701 118.373C562.372 117.911 563.306 117.68 564.504 117.68C565.65 117.68 566.737 117.895 567.766 118.324L567.404 119.203C566.363 118.773 565.396 118.559 564.504 118.559C563.638 118.559 562.951 118.702 562.443 118.988C561.936 119.275 561.682 119.672 561.682 120.18C561.682 120.733 561.877 121.176 562.268 121.508C562.665 121.84 563.436 122.211 564.582 122.621C565.539 122.966 566.236 123.279 566.672 123.559C567.108 123.832 567.434 124.145 567.648 124.496C567.87 124.848 567.98 125.261 567.98 125.736ZM579.855 118.725H577.355V128.5H576.389V118.725H574.416V118.158L576.389 117.797V116.977C576.389 115.674 576.626 114.721 577.102 114.115C577.583 113.503 578.368 113.197 579.455 113.197C580.041 113.197 580.627 113.285 581.213 113.461L580.988 114.301C580.467 114.138 579.95 114.057 579.436 114.057C578.68 114.057 578.143 114.281 577.824 114.73C577.512 115.173 577.355 115.896 577.355 116.898V117.885H579.855V118.725ZM582.873 128.5H581.906V117.885H582.873V128.5ZM581.77 114.936C581.77 114.311 581.975 113.998 582.385 113.998C582.587 113.998 582.743 114.079 582.854 114.242C582.971 114.405 583.029 114.636 583.029 114.936C583.029 115.229 582.971 115.46 582.854 115.629C582.743 115.798 582.587 115.883 582.385 115.883C581.975 115.883 581.77 115.567 581.77 114.936ZM590.617 117.68C591.066 117.68 591.548 117.725 592.062 117.816L591.877 118.744C591.434 118.633 590.975 118.578 590.5 118.578C589.595 118.578 588.853 118.962 588.273 119.73C587.694 120.499 587.404 121.469 587.404 122.641V128.5H586.438V117.885H587.258L587.355 119.799H587.424C587.86 119.018 588.326 118.471 588.82 118.158C589.315 117.839 589.914 117.68 590.617 117.68ZM600.812 125.736C600.812 126.687 600.451 127.419 599.729 127.934C599.006 128.441 597.98 128.695 596.652 128.695C595.233 128.695 594.107 128.477 593.273 128.041V126.996C594.341 127.53 595.467 127.797 596.652 127.797C597.701 127.797 598.495 127.624 599.035 127.279C599.582 126.928 599.855 126.462 599.855 125.883C599.855 125.349 599.637 124.9 599.201 124.535C598.771 124.171 598.062 123.812 597.072 123.461C596.011 123.077 595.266 122.748 594.836 122.475C594.406 122.195 594.081 121.882 593.859 121.537C593.645 121.186 593.537 120.759 593.537 120.258C593.537 119.464 593.869 118.835 594.533 118.373C595.204 117.911 596.138 117.68 597.336 117.68C598.482 117.68 599.569 117.895 600.598 118.324L600.236 119.203C599.195 118.773 598.228 118.559 597.336 118.559C596.47 118.559 595.783 118.702 595.275 118.988C594.768 119.275 594.514 119.672 594.514 120.18C594.514 120.733 594.709 121.176 595.1 121.508C595.497 121.84 596.268 122.211 597.414 122.621C598.371 122.966 599.068 123.279 599.504 123.559C599.94 123.832 600.266 124.145 600.48 124.496C600.702 124.848 600.812 125.261 600.812 125.736ZM606.35 127.836C606.962 127.836 607.495 127.784 607.951 127.68V128.461C607.482 128.617 606.942 128.695 606.33 128.695C605.393 128.695 604.699 128.445 604.25 127.943C603.807 127.442 603.586 126.654 603.586 125.58V118.725H602.014V118.158L603.586 117.719L604.074 115.316H604.572V117.885H607.688V118.725H604.572V125.443C604.572 126.257 604.715 126.859 605.002 127.25C605.288 127.641 605.738 127.836 606.35 127.836ZM628.703 128.5V121.537C628.703 120.502 628.501 119.747 628.098 119.271C627.694 118.796 627.076 118.559 626.242 118.559C625.155 118.559 624.351 118.858 623.83 119.457C623.309 120.056 623.049 120.997 623.049 122.279V128.5H622.062V121.244C622.062 119.454 621.242 118.559 619.602 118.559C618.488 118.559 617.678 118.884 617.17 119.535C616.662 120.18 616.408 121.215 616.408 122.641V128.5H615.441V117.885H616.242L616.447 119.34H616.506C616.799 118.812 617.215 118.406 617.756 118.119C618.296 117.826 618.892 117.68 619.543 117.68C621.216 117.68 622.29 118.308 622.766 119.564H622.805C623.15 118.959 623.612 118.493 624.191 118.168C624.777 117.842 625.441 117.68 626.184 117.68C627.342 117.68 628.212 117.989 628.791 118.607C629.37 119.226 629.66 120.209 629.66 121.557V128.5H628.703ZM641.877 123.178C641.877 124.91 641.457 126.264 640.617 127.24C639.777 128.21 638.618 128.695 637.141 128.695C636.21 128.695 635.389 128.471 634.68 128.021C633.97 127.572 633.426 126.928 633.049 126.088C632.671 125.248 632.482 124.278 632.482 123.178C632.482 121.446 632.902 120.098 633.742 119.135C634.582 118.165 635.734 117.68 637.199 117.68C638.658 117.68 639.8 118.171 640.627 119.154C641.46 120.131 641.877 121.472 641.877 123.178ZM633.498 123.178C633.498 124.636 633.817 125.775 634.455 126.596C635.1 127.41 636.008 127.816 637.18 127.816C638.352 127.816 639.257 127.41 639.895 126.596C640.539 125.775 640.861 124.636 640.861 123.178C640.861 121.713 640.536 120.577 639.885 119.77C639.24 118.962 638.332 118.559 637.16 118.559C635.988 118.559 635.083 118.962 634.445 119.77C633.814 120.57 633.498 121.706 633.498 123.178ZM652.219 128.5V121.615C652.219 120.548 651.994 119.773 651.545 119.291C651.096 118.803 650.399 118.559 649.455 118.559C648.186 118.559 647.255 118.881 646.662 119.525C646.076 120.163 645.783 121.202 645.783 122.641V128.5H644.816V117.885H645.637L645.822 119.34H645.881C646.571 118.233 647.798 117.68 649.562 117.68C651.971 117.68 653.176 118.972 653.176 121.557V128.5H652.219ZM659.416 127.836C660.028 127.836 660.562 127.784 661.018 127.68V128.461C660.549 128.617 660.008 128.695 659.396 128.695C658.459 128.695 657.766 128.445 657.316 127.943C656.874 127.442 656.652 126.654 656.652 125.58V118.725H655.08V118.158L656.652 117.719L657.141 115.316H657.639V117.885H660.754V118.725H657.639V125.443C657.639 126.257 657.782 126.859 658.068 127.25C658.355 127.641 658.804 127.836 659.416 127.836ZM670.715 128.5V121.615C670.715 120.548 670.49 119.773 670.041 119.291C669.592 118.803 668.895 118.559 667.951 118.559C666.682 118.559 665.751 118.881 665.158 119.525C664.572 120.163 664.279 121.202 664.279 122.641V128.5H663.312V113.305H664.279V118.139L664.23 119.496H664.299C664.696 118.858 665.197 118.396 665.803 118.109C666.408 117.823 667.16 117.68 668.059 117.68C670.467 117.68 671.672 118.972 671.672 121.557V128.5H670.715Z" fill="black"/>
</svg>
