<svg width="32" height="90" viewBox="0 0 32 90" fill="none" xmlns="http://www.w3.org/2000/svg">
<path d="M13.8462 65.4231C13.3846 65.4231 13.0385 65.1923 12.8077 64.7307C12.3462 63.6923 0.92308 38.5384 0.92308 18C0.92308 10.8461 6.69231 5.0769 13.8462 5.0769C21 5.0769 26.7692 10.8461 26.7692 18C26.7692 38.5384 15.3462 63.6923 14.8846 64.7307C14.6539 65.1923 14.3077 65.4231 13.8462 65.4231ZM13.8462 7.49998C7.96154 7.49998 3.23077 12.2308 3.23077 18.1154C3.23077 34.5 10.9615 54.5769 13.8462 61.3846C16.7308 54.5769 24.4615 34.5 24.4615 18.1154C24.4615 12.2308 19.7308 7.49998 13.8462 7.49998Z" fill="#2C3E50"/>
<path d="M13.8462 89.423C8.76923 89.423 4.5 85.2692 4.5 80.0769C4.5 74.8846 8.65384 70.7307 13.8462 70.7307C19.0385 70.7307 23.1923 74.8846 23.1923 80.0769C23.1923 85.2692 18.9231 89.423 13.8462 89.423ZM13.8462 73.1538C10.0385 73.1538 6.80769 76.2692 6.80769 80.1923C6.80769 83.9999 9.92308 87.2307 13.8462 87.2307C17.6538 87.2307 20.8846 84.1153 20.8846 80.1923C20.8846 76.2692 17.6538 73.1538 13.8462 73.1538Z" fill="#2C3E50"/>
<path d="M17.3077 60.8078C16.8462 60.8078 16.5 60.5771 16.2692 60.1155C15.8077 59.0771 4.38461 33.9232 4.38461 13.3847C4.38461 6.2309 10.1538 0.46167 17.3077 0.46167C24.4615 0.46167 30.2308 6.2309 30.2308 13.3847C30.2308 33.9232 18.8077 59.0771 18.3462 60.1155C18.1154 60.5771 17.7692 60.8078 17.3077 60.8078ZM17.3077 2.88475C11.4231 2.88475 6.69231 7.61552 6.69231 13.5001C6.69231 29.8847 14.4231 49.9617 17.3077 56.7694C20.1923 49.9617 27.9231 29.8847 27.9231 13.5001C27.9231 7.61552 23.1923 2.88475 17.3077 2.88475Z" fill="#FFC107"/>
<path d="M17.3077 84.8078C12.2308 84.8078 7.96153 80.6539 7.96153 75.4616C7.96153 70.2693 12.1154 66.1155 17.3077 66.1155C22.5 66.1155 26.6538 70.2693 26.6538 75.4616C26.6538 80.6539 22.3846 84.8078 17.3077 84.8078ZM17.3077 68.5386C13.5 68.5386 10.2692 71.6539 10.2692 75.577C10.2692 79.3847 13.3846 82.6155 17.3077 82.6155C21.1154 82.6155 24.3461 79.5001 24.3461 75.577C24.3461 71.6539 21.1154 68.5386 17.3077 68.5386Z" fill="#FFC107"/>
</svg>
