<svg width="175" height="46" viewBox="0 0 175 46" fill="none" xmlns="http://www.w3.org/2000/svg">
<g opacity="0.35" clip-path="url(#clip0)">
<path d="M0 0.350037H6.33552L9.15608 17.6876H9.24199L12.0625 0.350037H18.3909V24.5783H14.203V6.20905H14.0956L10.8957 24.5783H7.18026L3.95165 6.20905H3.8729V24.5783H0V0.350037Z" fill="white"/>
<path d="M25.1345 0.350037H31.1479L35.751 24.5783H31.3125L30.5036 19.7695V19.8371H25.4567L24.6549 24.5783H20.5386L25.1345 0.350037ZM29.981 16.5452L27.998 4.56926H27.9193L25.9864 16.5452H29.981Z" fill="white"/>
<path d="M37.8843 0.350037H43.4466L47.7419 14.8502H47.8207V0.350037H51.7795V24.5783H47.248L41.9218 6.89076H41.8359V24.5783H37.8843V0.350037Z" fill="white"/>
<path d="M56.4828 23.3501C55.3517 22.2999 54.7933 20.7952 54.7933 18.8299V6.09239C54.7933 4.13324 55.3517 2.62857 56.4828 1.57837C57.6139 0.528171 59.2533 0 61.408 0C63.5628 0 65.2022 0.528171 66.3261 1.57837C67.4501 2.62857 68.0228 4.13324 68.0228 6.09239V8.17437H63.8277V5.85287C63.8277 4.26017 63.0617 3.46382 61.5297 3.46382C59.9978 3.46382 59.2318 4.26017 59.2318 5.85287V19.1063C59.2318 20.6785 59.9978 21.4646 61.5297 21.4646C63.0617 21.4646 63.8277 20.6785 63.8277 19.1063V14.365H61.6085V10.9073H68.0514V18.8299C68.0514 20.7952 67.4859 22.3019 66.3548 23.3501C65.2308 24.4003 63.5843 24.9223 61.4367 24.9223C59.289 24.9223 57.6139 24.4003 56.4828 23.3501Z" fill="white"/>
<path d="M72.3037 23.3316C71.1439 22.2671 70.5641 20.7665 70.5641 18.8299V6.09239C70.5641 4.15986 71.1439 2.66133 72.3037 1.5968C73.4634 0.532265 75.1338 0 77.3148 0C79.5006 0 81.171 0.532265 82.326 1.5968C83.4809 2.66133 84.0608 4.15986 84.0656 6.09239V18.8299C84.0656 20.7706 83.4857 22.2712 82.326 23.3316C81.1662 24.3921 79.4959 24.9223 77.3148 24.9223C75.129 24.9223 73.4586 24.3921 72.3037 23.3316ZM79.6056 19.1063V5.85287C79.6056 4.26017 78.8373 3.46382 77.3005 3.46382C75.7638 3.46382 74.9978 4.26017 75.0025 5.85287V19.1063C75.0025 20.6949 75.7685 21.4912 77.3005 21.4953C78.8325 21.4994 79.6009 20.7031 79.6056 19.1063Z" fill="white"/>
<path d="M93.4794 0.350037H100.18C102.461 0.350037 104.132 0.804509 105.191 1.71345C106.236 2.62854 106.766 4.02881 106.766 5.9204V6.89076C106.817 7.94869 106.571 9.00162 106.05 9.96152C105.6 10.7326 104.836 11.3355 103.903 11.6566V11.7241C106.107 12.3751 107.212 14.06 107.217 16.7786V18.8544C107.217 20.7297 106.644 22.1627 105.499 23.1535C104.354 24.1443 102.683 24.6357 100.488 24.6275H93.508L93.4794 0.350037ZM99.6574 10.2133C100.022 10.2338 100.387 10.1899 100.73 10.0843C101.074 9.97861 101.389 9.81349 101.655 9.59917C102.161 9.03884 102.4 8.33366 102.32 7.62774V6.27661C102.383 5.60825 102.192 4.94038 101.776 4.37273C101.566 4.16196 101.301 3.99655 101.003 3.88986C100.704 3.78317 100.381 3.7382 100.058 3.75858H97.9107V10.2133H99.6574ZM100.459 21.1145C100.777 21.1367 101.096 21.1005 101.396 21.0084C101.696 20.9162 101.97 20.7703 102.199 20.5802C102.634 20.0423 102.834 19.3899 102.764 18.7378V16.6496C102.861 15.8389 102.626 15.0246 102.099 14.3466C101.804 14.1165 101.455 13.9428 101.077 13.8369C100.698 13.731 100.297 13.6954 99.9008 13.7324H97.9178V21.1145H100.459Z" fill="white"/>
<path d="M109.787 0.350037H114.226V21.1145H121.528V24.5783H109.787V0.350037Z" fill="white"/>
<path d="M124.921 23.3316C123.766 22.2671 123.188 20.7665 123.188 18.8299V6.09239C123.188 4.15986 123.766 2.66133 124.921 1.5968C126.076 0.532265 127.746 0 129.932 0C132.079 0 133.776 0.534312 134.943 1.5968C136.11 2.65928 136.675 4.15781 136.675 6.09239V18.8299C136.675 20.7706 136.103 22.2692 134.943 23.3316C133.783 24.3941 132.122 24.9223 129.932 24.9223C127.741 24.9223 126.08 24.3941 124.921 23.3316ZM132.215 19.1063V5.85287C132.215 4.26017 131.449 3.46382 129.917 3.46382C128.386 3.46382 127.62 4.26017 127.62 5.85287V19.1063C127.62 20.6949 128.386 21.4912 129.917 21.4953C131.449 21.4994 132.215 20.7031 132.215 19.1063Z" fill="white"/>
<path d="M141.064 23.3316C139.904 22.2671 139.324 20.7665 139.324 18.8299V6.09239C139.324 4.15986 139.904 2.66133 141.064 1.5968C142.224 0.532265 143.894 0 146.075 0C148.251 0 149.922 0.532265 151.086 1.5968C152.251 2.66133 152.83 4.15986 152.826 6.09239V18.8299C152.826 20.7706 152.246 22.2712 151.086 23.3316C149.926 24.3921 148.256 24.9223 146.075 24.9223C143.889 24.9223 142.219 24.3921 141.064 23.3316ZM148.366 19.1063V5.85287C148.366 4.26017 147.6 3.46382 146.068 3.46382C144.536 3.46382 143.767 4.26017 143.763 5.85287V19.1063C143.763 20.6949 144.531 21.4912 146.068 21.4953C147.605 21.4994 148.371 20.7031 148.366 19.1063Z" fill="white"/>
<path d="M155.789 0.350037H162.125L164.946 17.6876H165.024L167.852 0.350037H174.188V24.5783H169.992V6.20905H169.907L166.685 24.5538H162.998L159.741 6.20905H159.662V24.5783H155.789V0.350037Z" fill="white"/>
<path d="M61.9235 44.1575C61.2761 44.7385 60.4984 45.2012 59.6373 45.5178C58.7761 45.8344 57.8493 45.9984 56.9124 46C55.9191 46.0383 54.9316 45.852 54.0488 45.4595C53.6056 45.284 53.2282 45.006 52.9588 44.6567C52.6895 44.3074 52.5389 43.9006 52.524 43.482C52.425 42.1407 52.9385 40.8191 53.9558 39.797C54.3567 39.6435 54.7862 39.4777 55.2372 39.2873L56.669 38.6731C56.8408 38.7223 56.9267 38.8083 56.9267 38.9311C56.8372 39.382 56.6127 39.8053 56.2752 40.1594C55.4812 41.1124 55.042 42.2493 55.0153 43.4205C55.0153 44.7655 55.8672 45.4104 57.5423 45.3797C58.106 45.3705 58.6592 45.2472 59.1568 45.0199C59.6544 44.7926 60.0824 44.4676 60.4058 44.0715C61.0983 43.3089 61.4669 42.3666 61.451 41.4C61.451 40.3559 60.8258 38.7182 59.5754 36.4868C59.2604 36.6649 58.8596 36.8491 58.4658 37.0456C58.0721 37.2422 57.5567 37.4448 57.0341 37.6598C56.9195 37.6598 56.805 37.5001 56.6904 37.1746C57.0341 36.9965 57.4779 36.7877 58.0148 36.5605C58.6935 36.3269 59.3317 36.0149 59.9119 35.6331C60.2197 35.3383 60.6779 34.4355 61.3436 33.7047C62.1597 32.8141 62.7754 32.329 63.3052 32.3167C63.3776 32.3052 63.4519 32.3061 63.5239 32.3193C63.5959 32.3325 63.6642 32.3579 63.7247 32.3938C63.7853 32.4298 63.8369 32.4757 63.8767 32.5288C63.9165 32.582 63.9437 32.6414 63.9566 32.7036C63.9638 32.7566 63.9638 32.8102 63.9566 32.8633C63.7441 33.7885 63.1397 34.6133 62.26 35.1786C63.4483 37.6352 64.0425 39.1788 64.0425 39.8093C64.0489 40.6192 63.8644 41.4218 63.5003 42.169C63.1362 42.9162 62.5999 43.5925 61.9235 44.1575Z" fill="white"/>
<path d="M77.0929 43.2854C75.5543 44.69 73.4564 45.5471 71.2156 45.6868C70.5118 45.7462 69.8019 45.6556 69.1488 45.4231C68.4956 45.1907 67.9195 44.8234 67.4715 44.3541C66.5002 43.4034 65.9591 42.1851 65.9467 40.9209C65.8823 38.7837 67.4715 36.9289 70.6071 35.3936C72.2385 34.5768 74.0752 34.1092 75.9618 34.0302C76.5022 34.0168 77.0425 34.0559 77.5726 34.1468C78.3887 34.2758 78.8397 34.4846 78.8397 34.6812C78.8397 34.8777 78.6177 35.1049 78.1811 35.2953L76.6133 35.9095C76.2366 35.5998 75.7839 35.3663 75.2885 35.2261C74.7931 35.0858 74.2673 35.0423 73.7498 35.0988C72.2679 35.1541 71.0867 35.8787 70.1704 37.1746C69.3755 38.2828 68.9542 39.5583 68.9534 40.8595C68.9162 41.8472 69.3209 42.8097 70.0845 43.5495C70.4527 43.9027 70.9113 44.1779 71.4242 44.3537C71.9371 44.5295 72.4905 44.6011 73.0411 44.5629C73.6696 44.537 74.281 44.379 74.8216 44.1027C75.3621 43.8264 75.8152 43.4403 76.1408 42.9784C76.8432 42.069 77.2077 40.9983 77.186 39.9076C77.095 39.0129 76.7348 38.1537 76.1408 37.4141C76.8934 36.9049 77.769 36.5461 78.7037 36.3639C79.3193 36.3639 79.6128 36.9781 79.62 38.2064C79.6172 39.1551 79.3921 40.0936 78.9579 40.9662C78.5238 41.8387 77.8896 42.6274 77.0929 43.2854Z" fill="white"/>
<path d="M88.146 21.6427L87.1868 21.9989C86.8031 22.1858 86.3944 22.3322 85.9698 22.435C85.7335 22.435 85.619 22.2569 85.619 21.8577C86.027 21.7103 86.5138 21.5322 87.0507 21.3111C87.5877 21.09 88.2606 20.8259 88.9908 20.5127C89.6803 20.1764 90.3982 19.8849 91.1384 19.6406C91.2243 19.6406 91.2673 19.9661 91.2673 20.6416C91.2673 22.3121 89.8737 27.0513 87.0865 34.8593C86.8503 35.4427 86.5568 36.1797 86.1917 37.0702L84.9103 40.2085C84.4096 41.2821 83.9724 42.3767 83.6002 43.4881C83.6002 43.7399 83.7434 43.8566 84.0369 43.8382C84.6592 43.6726 85.2397 43.408 85.7478 43.0582L86.4637 42.6651L87.423 42.1063C87.602 42.1738 87.6879 42.3519 87.6879 42.6528C86.7516 43.2058 85.7761 43.7084 84.7671 44.1575C83.2351 44.8822 82.24 45.22 81.8535 45.2077C81.7283 45.2196 81.6017 45.2101 81.4808 45.1797C81.36 45.1494 81.2474 45.0987 81.1495 45.0307C81.0516 44.9628 80.9704 44.8788 80.9106 44.7837C80.8508 44.6887 80.8136 44.5844 80.8011 44.4769C80.794 44.4136 80.794 44.3498 80.8011 44.2865C80.8917 43.7666 81.0526 43.2575 81.2808 42.7695L84.1443 35.934C84.4092 35.3199 84.7456 34.3986 85.168 33.1703C85.5904 31.942 86.0915 30.3698 86.6713 28.4721C87.9456 24.3122 88.5851 21.9723 88.5899 21.4523L88.146 21.6427Z" fill="white"/>
<path d="M102.95 42.5914C103.304 42.4901 103.63 42.3294 103.91 42.1185L104.74 41.6518C105.091 41.6518 105.263 41.7439 105.263 41.9957C105.021 42.2129 104.766 42.418 104.497 42.6099C104.136 42.8635 103.751 43.0895 103.344 43.2854L102.106 43.8996C101.8 44.059 101.47 44.181 101.125 44.2619C100.868 44.2887 100.608 44.2485 100.378 44.1467C100.148 44.0448 99.9595 43.8859 99.8363 43.6908C99.5352 43.2811 99.3786 42.8055 99.3853 42.3212C99.3898 41.5196 99.552 40.7243 99.865 39.969C100.165 39.3051 100.425 38.6287 100.645 37.9423C100.18 38.5196 99.6502 39.1706 99.056 39.7848C98.4618 40.3989 97.7961 41.1605 97.073 41.9282C95.4194 43.6539 93.8516 44.5567 92.3697 44.6488C91.0024 44.7287 90.2722 44.0961 90.2221 42.8064C90.1648 41.0131 91.21 38.3538 93.2717 34.89L91.1241 35.5041C90.8592 35.5655 90.7017 35.3874 90.6444 34.9698C91.2243 34.8101 91.8471 34.632 92.5129 34.4294C93.224 34.2124 93.9217 33.9643 94.6033 33.6862L96.7509 32.8448C96.98 32.8448 97.0945 32.9124 97.0945 33.0475C96.851 33.577 96.5439 34.0834 96.1782 34.5583C95.5772 35.441 95.0532 36.3607 94.6104 37.3097C93.4316 40.1594 92.8422 41.6661 92.8422 41.8299C92.8422 42.7266 93.1572 43.1565 93.8015 43.1135C94.4458 43.0705 95.4408 42.4993 96.665 41.271C99.3352 38.5872 101.168 35.0374 102.592 33.7169C103.479 33.0272 104.56 32.5469 105.728 32.3228C105.785 32.3228 105.814 32.3228 105.814 32.4272C105.814 32.5316 105.449 33.3362 104.726 34.9268C102.893 39.0601 101.984 41.3693 101.984 41.8729C101.984 42.3765 102.313 42.6344 102.95 42.5914Z" fill="white"/>
<path d="M115.235 33.0782C114.936 33.3057 114.615 33.5112 114.276 33.6924C113.607 33.9014 112.895 33.9872 112.185 33.9442C110.62 37.8379 109.837 40.3314 109.837 41.4246C109.837 41.9466 110.124 42.1923 110.703 42.1493C111.085 42.1247 111.942 41.6088 113.273 40.6016C113.538 40.6016 113.667 40.7613 113.667 41.1359C111.87 42.6713 110.088 43.5004 108.355 43.5925C107.482 43.6478 107.045 43.1258 107.045 42.0326C107.045 40.9394 107.933 38.2371 109.708 34.0117H107.611L108.749 32.3658L110.532 32.2491L112.751 26.906C114.583 26.1137 115.536 25.7145 115.614 25.6777C115.669 25.6666 115.727 25.6745 115.776 25.6998C115.824 25.7251 115.858 25.7657 115.872 25.8128C115.883 25.8366 115.883 25.8628 115.872 25.8865C114.648 28.4475 114.039 29.7311 112.822 32.2921C113.011 32.3044 113.2 32.3044 113.388 32.2921H113.868C114.534 32.273 115.187 32.1261 115.779 31.8622L115.915 32.3044C115.936 32.4825 115.7 32.7404 115.235 33.0782Z" fill="white"/>
<path d="M120.289 41.271C121.061 40.908 121.765 40.4485 122.379 39.9076C122.673 39.9076 122.816 40.012 122.816 40.2884L120.117 42.2537C119.589 42.6474 118.936 42.8975 118.242 42.9722C118.038 42.9842 117.835 42.9503 117.651 42.8738C117.468 42.7973 117.311 42.6809 117.196 42.5362C116.92 42.2562 116.765 41.9022 116.76 41.5351C116.76 40.2659 117.69 37.5534 119.552 33.3976L117.805 33.8828C117.576 33.8828 117.461 33.7047 117.461 33.3055C118.541 32.9857 119.589 32.5934 120.597 32.1324C121.369 31.7765 122.168 31.4646 122.988 31.1989C123.224 31.1989 123.339 31.2849 123.339 31.5121C122.485 32.9255 121.767 34.3961 121.191 35.9095C120.096 38.4398 119.537 39.9874 119.537 40.534C119.537 41.0806 119.766 41.3017 120.289 41.271ZM123.382 27.6246C122.666 28.1159 120.876 28.6993 120.418 28.4844C120.346 28.4475 120.289 28.2264 120.289 28.1527C120.828 27.8914 121.291 27.5281 121.642 27.0902C121.888 26.5872 122.005 26.0448 121.986 25.4996C122.137 25.4745 122.283 25.4332 122.422 25.3768L123.074 25.1311C123.31 25.0451 123.532 24.9591 123.79 24.8854C123.975 24.8125 124.174 24.7688 124.377 24.7565C124.634 24.7565 124.77 24.9161 124.77 25.2908C124.777 25.7473 124.654 26.1983 124.412 26.6049C124.17 27.0115 123.817 27.3614 123.382 27.6246Z" fill="white"/>
<path d="M135.795 39.7602C134.253 41.1755 132.164 42.0617 129.918 42.2536C129.223 42.3265 128.518 42.2527 127.864 42.0387C127.211 41.8246 126.628 41.4767 126.166 41.0253C125.193 40.0978 124.65 38.8957 124.642 37.6475C124.584 35.5103 126.166 33.588 129.302 31.985C130.924 31.131 132.765 30.6293 134.664 30.5233C135.204 30.5059 135.744 30.5409 136.275 30.6277C137.091 30.7506 137.534 30.9594 137.534 31.1621C137.534 31.3647 137.32 31.5858 136.883 31.7762L135.315 32.3904C134.939 32.0813 134.486 31.8502 133.989 31.715C133.493 31.5798 132.967 31.544 132.452 31.6104C130.97 31.6964 129.789 32.4395 128.872 33.7599C128.078 34.8867 127.655 36.1772 127.648 37.494C127.607 38.473 128.013 39.4271 128.779 40.1532C129.151 40.5004 129.614 40.7675 130.129 40.9329C130.644 41.0983 131.197 41.1573 131.743 41.1052C132.374 41.0691 132.985 40.9021 133.523 40.6186C134.062 40.3351 134.512 39.9435 134.836 39.4777C135.538 38.5683 135.903 37.4976 135.881 36.4069C135.79 35.5236 135.429 34.6763 134.836 33.9503C135.588 33.4336 136.467 33.0685 137.406 32.8817C138.014 32.8817 138.315 33.4958 138.322 34.7241C138.308 35.6649 138.077 36.5941 137.644 37.4583C137.21 38.3225 136.582 39.1047 135.795 39.7602Z" fill="white"/>
<path d="M152.869 36.1736C152.697 36.5728 152.475 37.0518 152.217 37.6107C151.959 38.1696 151.666 38.839 151.344 39.5453C151.58 39.4838 151.888 39.4224 152.282 39.3426L153.713 39.0662C153.799 39.0662 153.885 39.2689 153.971 39.6804C152.827 39.8521 151.7 40.0984 150.599 40.4173C149.756 40.6558 148.945 40.9708 148.18 41.357L147.965 41.271L147.614 41.1543C148.722 39.4029 149.679 37.5842 150.478 35.7129C151.014 34.6305 151.373 33.4897 151.544 32.3228C151.544 31.5551 151.236 31.1744 150.628 31.1928C149.898 31.2174 148.547 32.3372 146.576 34.5522C144.904 36.4191 143.403 38.3944 142.088 40.4603C141.801 40.5709 141.407 40.7428 140.913 40.9639L139.124 41.7562C139.247 40.9872 139.487 40.2356 139.84 39.5207C140.427 38.145 140.727 37.4571 141.322 36.0876C141.93 34.7166 142.367 33.294 142.624 31.8438C142.424 31.8991 142.152 31.9912 141.823 32.1017C141.493 32.2123 141.107 32.372 140.577 32.5685C140.398 32.429 140.29 32.235 140.276 32.028C142.71 31.2603 144.321 30.5725 145.109 29.9399C145.459 29.9399 145.631 29.9952 145.631 30.1426C145.557 30.6576 145.447 31.1682 145.302 31.6718C145.118 32.3447 144.893 33.0088 144.629 33.6617C144.227 34.6549 143.965 35.6858 143.849 36.7324C144.922 35.3936 145.877 34.2349 146.712 33.2563C148.659 31.0085 150.614 29.8601 152.546 29.768C153.62 29.7127 154.164 30.2163 154.164 31.2911C154.043 32.9679 153.605 34.6168 152.869 36.1736Z" fill="white"/>
<path d="M164.981 39.2136C164.33 39.7907 163.552 40.2508 162.692 40.5671C161.831 40.8835 160.906 41.0497 159.97 41.0561C158.981 41.0977 157.995 40.9223 157.107 40.5463C156.664 40.3784 156.286 40.1064 156.016 39.7619C155.747 39.4174 155.596 39.0144 155.582 38.5995C155.479 37.2447 155.992 35.9084 157.014 34.8715C157.424 34.7119 157.854 34.5338 158.302 34.3372C158.753 34.1469 159.219 33.9319 159.734 33.7231C159.906 33.7722 159.992 33.8582 159.992 33.981C159.902 34.432 159.678 34.8552 159.34 35.2093C158.545 36.1669 158.103 37.3073 158.073 38.4828C158.073 39.8339 158.932 40.4603 160.6 40.4235C161.163 40.4126 161.714 40.2892 162.212 40.0632C162.709 39.8371 163.137 39.5147 163.464 39.1215C164.153 38.3622 164.521 37.4246 164.509 36.4622C164.509 35.4181 163.879 33.7722 162.633 31.549C162.311 31.7271 161.917 31.9113 161.524 32.1017C161.13 32.2921 160.614 32.5071 160.092 32.7159C159.977 32.7159 159.863 32.5562 159.741 32.2368C160.092 32.0587 160.536 31.8438 161.073 31.6227C161.763 31.3831 162.411 31.0628 162.998 30.6708C163.306 30.376 163.757 29.4793 164.43 28.7546C165.246 27.8764 165.862 27.3973 166.384 27.3973C166.536 27.3796 166.69 27.4133 166.813 27.4913C166.936 27.5693 167.018 27.6854 167.043 27.8149C167.05 27.8618 167.05 27.9093 167.043 27.9562C166.827 28.8733 166.219 29.6882 165.339 30.2408C166.535 32.6975 167.129 34.2635 167.129 34.9084C167.132 35.7137 166.943 36.511 166.574 37.2513C166.204 37.9917 165.662 38.6594 164.981 39.2136Z" fill="white"/>
</g>
<defs>
<clipPath id="clip0">
<rect width="174.187" height="46" fill="white"/>
</clipPath>
</defs>
</svg>
