<svg id="Capa_1" enable-background="new 0 0 512 512" height="512" viewBox="0 0 512 512" width="512" xmlns="http://www.w3.org/2000/svg"><g><path d="m460.739 204.106h-152.329v87.97h-51.463v61.314l-23.357-10.01v107.402h51.463v45.818l106.909-45.818h120.038v-195.414c0-28.266-22.996-51.262-51.261-51.262zm-51.681 198.851-12.198-32.321h-48.067l-12.32 32.347-28.035-10.677 51.818-136.056 25.491-.026 51.377 136.141z"/><path d="m360.22 340.636h25.319l-12.602-33.392z"/><path d="m149.404 176.778-17.985-17.985 21.213-21.213 17.645 17.646c2.174-5.068 3.382-10.646 3.382-16.5 0-23.157-18.839-41.997-41.997-41.997-23.157 0-41.996 18.839-41.996 41.997 0 23.157 18.839 41.997 41.996 41.997 6.339-.001 12.348-1.42 17.742-3.945z"/><path d="m226.947 307.894v-45.818h51.463v-246.675h-227.149c-28.265 0-51.261 22.995-51.261 51.261v195.414h120.038zm-167.28-169.169c0-39.699 32.297-71.997 71.996-71.997s71.997 32.297 71.997 71.997c0 14.2-4.149 27.441-11.274 38.608l17.928 17.928-21.214 21.214-17.731-17.732c-11.39 7.561-25.039 11.979-39.705 11.979-39.7 0-71.997-32.298-71.997-71.997z"/></g></svg>