<svg width="24" height="24" viewBox="0 0 24 24" fill="none" xmlns="http://www.w3.org/2000/svg">
<path d="M2.27991 23.894L5.87658 21.6645C6.29053 21.408 6.76683 21.2723 7.25391 21.2723H15.4507C19.4996 21.2723 22.7937 17.9784 22.7937 13.9295V0.703125C22.7937 0.314812 22.4789 0 22.0905 0H8.54977C4.50056 0 1.20633 3.29419 1.20633 7.3433V23.2964C1.20633 23.8499 1.815 24.1821 2.27991 23.894ZM2.61258 7.3433C2.61258 4.06959 5.27597 1.40625 8.54977 1.40625H21.3874V13.9296C21.3874 17.203 18.7242 19.8661 15.4507 19.8661H7.25391C6.50485 19.8661 5.77238 20.0747 5.13572 20.4693L2.61258 22.0333V7.3433Z" fill="black"/>
<path d="M8.62332 8.04784C9.01163 8.04784 9.32645 7.73303 9.32645 7.34471C9.32645 5.84485 10.5573 4.63679 12.0656 4.67228C13.4704 4.70589 14.6399 5.87584 14.6727 7.28031C14.7057 8.6897 13.6336 9.88787 12.2321 10.008C11.6988 10.0537 11.2966 10.4899 11.2966 11.0228V13.7632C11.2966 14.1515 11.6114 14.4663 11.9997 14.4663C12.388 14.4663 12.7028 14.1515 12.7028 13.7632V11.3637C14.6682 11.0222 16.126 9.27859 16.0786 7.24745C16.0279 5.08056 14.2674 3.31829 12.0992 3.26645C9.80143 3.2117 7.9202 5.0536 7.9202 7.34471C7.9202 7.73307 8.23501 8.04784 8.62332 8.04784Z" fill="black"/>
<path d="M11.9998 17.304C12.3881 17.304 12.7029 16.9892 12.7029 16.6009C12.7029 16.2126 12.3881 15.8978 11.9998 15.8978C11.6114 15.8978 11.2966 16.2126 11.2966 16.6009C11.2966 16.9892 11.6114 17.304 11.9998 17.304Z" fill="black"/>
</svg>
