<svg width="301" height="259" viewBox="0 0 301 259" fill="none" xmlns="http://www.w3.org/2000/svg">
<circle cx="72" cy="130" r="72" fill="#EEEEEE"/>
<circle cx="69" cy="3" r="3" fill="black"/>
<path d="M71 3C87.6122 3 104.062 6.27202 119.41 12.6292C134.757 18.9865 148.703 28.3044 160.449 40.051C172.196 51.7976 181.514 65.7429 187.871 81.0905C194.228 96.4382 197.5 112.888 197.5 129.5C197.5 146.112 194.228 162.562 187.871 177.909C181.514 193.257 172.196 207.202 160.449 218.949C148.703 230.696 134.757 240.014 119.41 246.371C104.062 252.728 87.6122 256 71 256" stroke="black" stroke-dasharray="7 7"/>
<circle cx="180" cy="65" r="8" fill="#FFC107"/>
<circle cx="180" cy="193" r="8" fill="#FFC107"/>
<ellipse cx="197" cy="129.5" rx="8" ry="8.5" fill="#FFC107"/>
<circle cx="69" cy="256" r="3" fill="black"/>
<line x1="206.38" y1="201.323" x2="279.478" y2="218.109" stroke="#787878" stroke-dasharray="3 3"/>
<line x1="206.225" y1="57.0117" x2="279.215" y2="39.7661" stroke="#787878" stroke-dasharray="3 3"/>
<line x1="226" y1="128.5" x2="301" y2="128.502" stroke="#787878" stroke-dasharray="3 3"/>
</svg>
