<svg width="32" height="32" viewBox="0 0 32 32" fill="none" xmlns="http://www.w3.org/2000/svg">
<g clip-path="url(#clip0)">
<path d="M11.4893 2.1748H6.99953C6.64626 2.1748 6.35988 2.46118 6.35988 2.81445C6.35988 3.16772 6.64626 3.4541 6.99953 3.4541H11.4893C11.8425 3.4541 12.1289 3.16772 12.1289 2.81445C12.1289 2.46118 11.8425 2.1748 11.4893 2.1748Z" fill="#FFC107"/>
<path d="M29.0481 18.3044L23.9519 13.2082C22.9189 12.1753 21.29 12.1233 20.321 13.0923C19.9914 13.4216 19.7722 13.8318 19.6777 14.2834C19.2983 14.061 18.8733 13.9333 18.4346 13.9148C18.2393 13.9065 18.0481 13.9206 17.8635 13.9546V11.0117H23.3935C23.7468 11.0117 24.0332 10.7256 24.0332 10.3723C24.0332 10.019 23.7468 9.73265 23.3935 9.73265H17.8635V2.83251C17.8635 1.27051 16.593 0 15.031 0H3.45754C1.89578 0 0.625028 1.27051 0.625028 2.83251V7.34032C0.625028 7.69359 0.911404 7.97996 1.26467 7.97996C1.6177 7.97996 1.90408 7.69359 1.90408 7.34032V5.64476H16.5845V14.6404C16.2771 14.9597 16.0652 15.3681 15.9746 15.8015C14.9785 15.2185 13.7168 15.3183 12.9111 16.124C12.6016 16.4333 12.3965 16.81 12.294 17.2129L10.1165 15.0354C9.14796 14.0669 7.65602 13.9607 6.67458 14.7497C6.60915 14.8022 6.54616 14.8589 6.48561 14.9194C5.51662 15.8886 5.56862 17.5173 6.60158 18.5503L9.60987 21.5586H1.90408V12.4697C1.90408 12.1164 1.6177 11.8301 1.26467 11.8301C0.911404 11.8301 0.625028 12.1164 0.625028 12.4697V26.9565C0.625028 28.5185 1.89578 29.789 3.45754 29.789H10.8274C10.991 31.0324 12.0566 31.9955 13.3438 31.9955C13.3438 31.9955 23.2827 31.9999 23.3706 31.9999C25.4905 31.9999 27.5461 31.1525 29.0481 29.6506C32.1762 26.5224 32.1762 21.4326 29.0481 18.3044ZM1.90408 4.36547V2.83251C1.90408 1.97607 2.6011 1.27905 3.45754 1.27905H15.0312C15.8877 1.27905 16.5845 1.97607 16.5845 2.83251V4.36547H1.90408ZM1.90432 26.9565V22.8378H10.8889L14.5403 26.4892C14.176 26.4892 13.8115 26.4892 13.4473 26.4892C13.166 26.4892 12.8906 26.5156 12.6194 26.5952C12.2073 26.7163 11.8276 26.9484 11.5283 27.2561C11.1924 27.601 10.9566 28.0383 10.8582 28.51H3.45754C2.6011 28.51 1.90432 27.8129 1.90432 26.9565ZM28.1435 28.746C26.8266 30.0632 25.0039 30.7817 23.1396 30.7167C23.1323 30.7165 13.344 30.7165 13.344 30.7165C12.6924 30.7165 12.1331 30.196 12.0874 29.5458C12.0754 29.3764 12.0833 29.2038 12.0842 29.0341C12.0857 28.7243 12.1958 28.4247 12.4021 28.1926C12.6397 27.925 12.9861 27.7685 13.344 27.7685H15.8196L16.7864 28.7353C16.9114 28.8603 17.0749 28.9228 17.2388 28.9228C17.4023 28.9228 17.5659 28.8603 17.6909 28.7353C17.9407 28.4855 17.9407 28.0805 17.6909 27.8308L7.50612 17.646C7.16457 17.3044 6.98219 16.7917 7.1089 16.3159C7.17116 16.0818 7.31007 15.8662 7.50758 15.7241C7.75197 15.5481 8.04616 15.4804 8.34425 15.5127C8.6714 15.5483 8.98048 15.7085 9.21192 15.9399L16.2451 22.9731C16.3701 23.0979 16.5337 23.1604 16.6973 23.1604C16.8611 23.1604 17.0247 23.0979 17.1497 22.9731C17.3994 22.7233 17.3994 22.3183 17.1497 22.0686L13.9316 18.8505C13.3972 18.3164 13.3452 17.499 13.8157 17.0285C14.2859 16.5583 15.1033 16.6103 15.6374 17.1445L18.8191 20.3261C18.9441 20.4511 19.1077 20.5134 19.2712 20.5134C19.4351 20.5134 19.5986 20.4511 19.7236 20.3261C19.9734 20.0764 19.9734 19.6713 19.7236 19.4216L17.6365 17.3344C17.5364 17.2343 17.4531 17.1242 17.387 17.0083C17.2551 16.7766 17.1919 16.5215 17.1997 16.2763C17.209 15.9904 17.3147 15.7185 17.5205 15.5127C17.5444 15.4887 17.5698 15.4665 17.5957 15.445C17.6018 15.4402 17.6077 15.435 17.6138 15.4301C17.8237 15.2644 18.092 15.1806 18.3801 15.1926C18.7346 15.2077 19.0764 15.3625 19.3425 15.6286L21.4294 17.7155C21.5544 17.8405 21.718 17.903 21.8818 17.903C22.0454 17.903 22.209 17.8405 22.334 17.7155C22.5837 17.466 22.5837 17.061 22.334 16.8112L21.3391 15.8164C21.0745 15.5508 20.9206 15.2099 20.9055 14.8564C20.8913 14.5227 21.0049 14.2173 21.2253 13.9968C21.6958 13.5263 22.5129 13.5783 23.0473 14.1128L28.1435 19.2089C30.7729 21.8383 30.7729 26.1166 28.1435 28.746Z" fill="#FFC107"/>
<path d="M0.674106 10.1499C0.776401 10.3974 1.0286 10.5564 1.29593 10.5437C1.56278 10.5312 1.79911 10.3459 1.8765 10.0905C1.95072 9.8464 1.86795 9.57223 1.6702 9.41061C1.45414 9.23434 1.14188 9.21969 0.909457 9.3735C0.657749 9.54025 0.55936 9.87204 0.674106 10.1499Z" fill="#FFC107"/>
<path d="M9.2444 23.851C8.2422 23.851 7.42677 24.6664 7.42677 25.6686C7.42677 26.6706 8.2422 27.486 9.2444 27.486C10.2466 27.486 11.0618 26.6708 11.0618 25.6686C11.0618 24.6664 10.2466 23.851 9.2444 23.851ZM9.2444 26.207C8.94752 26.207 8.70607 25.9655 8.70607 25.6686C8.70607 25.3718 8.94752 25.1301 9.2444 25.1301C9.54127 25.1301 9.78273 25.3718 9.78273 25.6686C9.78273 25.9655 9.54127 26.207 9.2444 26.207Z" fill="#FFC107"/>
<path d="M5.69192 13.3813C5.44216 13.1316 5.03738 13.1316 4.78738 13.3813C3.9053 14.2634 3.41946 15.4362 3.41946 16.6836C3.41946 17.9311 3.9053 19.1037 4.78738 19.9858C4.91238 20.1108 5.07595 20.1733 5.23953 20.1733C5.40335 20.1733 5.56692 20.1108 5.69192 19.9858C5.94168 19.7361 5.94168 19.331 5.69192 19.0813C5.05154 18.4409 4.69876 17.5893 4.69876 16.6836C4.69876 15.7778 5.05154 14.9262 5.69192 14.2859C5.94168 14.0361 5.94168 13.6311 5.69192 13.3813Z" fill="#FFC107"/>
<path d="M19.7878 8.34836H25.0435C25.3967 8.34836 25.6831 8.06198 25.6831 7.70871C25.6831 7.35544 25.3967 7.06906 25.0435 7.06906H19.7878C19.4348 7.06906 19.1482 7.35544 19.1482 7.70871C19.1482 8.06198 19.4346 8.34836 19.7878 8.34836Z" fill="#FFC107"/>
<path d="M27.0158 7.9536C27.1189 8.20287 27.3774 8.36449 27.6472 8.34692C27.9104 8.33007 28.1416 8.14648 28.2182 7.89428C28.2961 7.63769 28.2009 7.35082 27.9839 7.19311C27.7742 7.04076 27.4892 7.03075 27.269 7.16601C27.0049 7.32836 26.8979 7.66869 27.0158 7.9536Z" fill="#FFC107"/>
</g>
<defs>
<clipPath id="clip0">
<rect width="32" height="32" fill="white"/>
</clipPath>
</defs>
</svg>
