<svg width="32" height="32" viewBox="0 0 32 32" fill="none" xmlns="http://www.w3.org/2000/svg">
<g clip-path="url(#clip0)">
<path d="M13.3333 32C6 32 0 26 0 18.6667C0 11.3333 6 5.33334 13.3333 5.33334C20.6667 5.33334 26.6667 11.3333 26.6667 18.6667C26.6667 26 20.6667 32 13.3333 32ZM13.3333 6.66668C6.66667 6.66668 1.33333 12 1.33333 18.6667C1.33333 25.3334 6.66667 30.6667 13.3333 30.6667C20 30.6667 25.3333 25.3334 25.3333 18.6667C25.3333 12 20 6.66668 13.3333 6.66668Z" fill="#FFC107"/>
<path d="M13.3333 27.3333C8.53332 27.3333 4.66666 23.4667 4.66666 18.6667C4.66666 13.8667 8.53332 10 13.3333 10C18.1333 10 22 13.8667 22 18.6667C22 23.4667 18.1333 27.3333 13.3333 27.3333ZM13.3333 11.3333C9.33332 11.3333 5.99999 14.6667 5.99999 18.6667C5.99999 22.6667 9.33332 26 13.3333 26C17.3333 26 20.6667 22.6667 20.6667 18.6667C20.6667 14.6667 17.3333 11.3333 13.3333 11.3333Z" fill="#FFC107"/>
<path d="M13.3333 22.6667C11.0667 22.6667 9.33334 20.9333 9.33334 18.6667C9.33334 16.4 11.0667 14.6667 13.3333 14.6667C15.6 14.6667 17.3333 16.4 17.3333 18.6667C17.3333 20.9333 15.6 22.6667 13.3333 22.6667ZM13.3333 16C11.8667 16 10.6667 17.2 10.6667 18.6667C10.6667 20.1333 11.8667 21.3333 13.3333 21.3333C14.8 21.3333 16 20.1333 16 18.6667C16 17.2 14.8 16 13.3333 16Z" fill="#FFC107"/>
<path d="M13.3333 19.3333C13.2 19.3333 12.9333 19.3333 12.8 19.2C12.5333 18.9333 12.5333 18.5333 12.8 18.2667L22.8 8.26668C23.0667 8.00001 23.4667 8.00001 23.7333 8.26668C24 8.53335 24 8.93335 23.7333 9.20001L13.7333 19.2C13.7333 19.3333 13.4667 19.3333 13.3333 19.3333Z" fill="#FFC107"/>
<path d="M26.6667 9.33333H23.3333C22.9333 9.33333 22.6667 9.06666 22.6667 8.66666V5.33333C22.6667 5.2 22.8 4.93333 22.8 4.8L27.4667 0.133333C27.7333 0 28 0 28.2667 0C28.5333 0.133333 28.6667 0.4 28.6667 0.666666V3.33333H31.3333C31.6 3.33333 31.8667 3.46667 32 3.73333C32 4 32 4.26666 31.8667 4.53333L27.2 9.2C27.0667 9.2 26.8 9.33333 26.6667 9.33333ZM24 8H26.4L29.7333 4.66666H28C27.6 4.66666 27.3333 4.4 27.3333 4V2.26667L24 5.6V8Z" fill="#FFC107"/>
</g>
<defs>
<clipPath id="clip0">
<rect width="32" height="32" fill="white"/>
</clipPath>
</defs>
</svg>
